<svg id="Layer_1" data-name="Layer 1" xmlns="http://www.w3.org/2000/svg" viewBox="0 0 375.19 374.61"><defs><style>.cls-1{fill:#f58999;}.cls-2{fill:#fff;}.cls-10,.cls-11,.cls-12,.cls-13,.cls-14,.cls-15,.cls-16,.cls-3,.cls-4,.cls-5,.cls-6,.cls-7,.cls-8,.cls-9{fill:none;stroke:#ff6aa9;}.cls-3{stroke-miterlimit:10;stroke-width:0.25px;}.cls-4{stroke-miterlimit:10;stroke-width:0.25px;}.cls-5{stroke-miterlimit:10;stroke-width:0.25px;}.cls-6{stroke-miterlimit:10;stroke-width:0.25px;}.cls-7{stroke-miterlimit:10;stroke-width:0.25px;}.cls-8{stroke-miterlimit:10;stroke-width:0.25px;}.cls-9{stroke-miterlimit:10;stroke-width:0.25px;}.cls-10{stroke-miterlimit:10;stroke-width:0.25px;}.cls-11{stroke-miterlimit:10.02;stroke-width:0.25px;}.cls-12{stroke-miterlimit:10;}.cls-12,.cls-13{stroke-width:0.25px;}.cls-13{stroke-miterlimit:10;}.cls-14{stroke-miterlimit:10;stroke-width:0.25px;}.cls-15{stroke-miterlimit:10;stroke-width:0.25px;}.cls-16{stroke-miterlimit:9.99;stroke-width:0.25px;}</style></defs><path id="path1977" class="cls-1" d="M172.61,74h-32.8a3.88,3.88,0,0,0-3.89,3.84v0a3.81,3.81,0,0,0,.28,1.41l33.2,85.23a3.84,3.84,0,0,1-2.18,5,3.79,3.79,0,0,1-2.81,0l-85.08-33.2a3.86,3.86,0,0,0-5,2.19,4,4,0,0,0-.26,1.4v32.81Z"/><path id="path1985" class="cls-1" d="M301.11,172.69H206.29a3.87,3.87,0,0,1-3.85-3.87V74"/><path id="path1997" class="cls-1" d="M202.56,300h32.81a3.85,3.85,0,0,0,3.86-3.85,4,4,0,0,0-.26-1.41l-33.08-85.19a3.84,3.84,0,0,1,5-4.95L296,238.28a3.86,3.86,0,0,0,5-2.15h0a4,4,0,0,0,.28-1.42V201.9Z"/><path id="path1975" class="cls-1" d="M73.94,172.69h94.83a3.87,3.87,0,0,0,3.85-3.87V74"/><path id="path1987" class="cls-1" d="M301.11,172.69V139.88a3.85,3.85,0,0,0-3.85-3.86,3.71,3.71,0,0,0-1.4.27L210.62,169.5a3.86,3.86,0,0,1-5-5l33.21-85.25A3.86,3.86,0,0,0,235.24,74h-32.8"/><path id="path1995" class="cls-1" d="M301.25,201.9H206.41a3.85,3.85,0,0,0-3.85,3.85v94.84"/><path id="path2005" class="cls-1" d="M74.06,201.9h94.83a3.85,3.85,0,0,1,3.86,3.85v94.84"/><path id="path2007" class="cls-1" d="M74.06,201.9v32.77a3.86,3.86,0,0,0,5.28,3.59l85.17-33.7a3.86,3.86,0,0,1,5,5l-33.29,85.18a3.84,3.84,0,0,0,2.19,4.95,3.71,3.71,0,0,0,1.4.27h32.79"/><path id="path1981" class="cls-1" d="M202.44,59.68V36.57a3.86,3.86,0,0,1,6.29-3L232.5,52.83A3.85,3.85,0,0,1,230,59.67H202.44"/><path id="path1983" class="cls-1" d="M172.61,59.68V36.57a3.86,3.86,0,0,0-6.29-3L142.61,52.83A3.85,3.85,0,0,0,145,59.67h27.59"/><path id="path1991" class="cls-1" d="M315.44,202.5v27.59a3.84,3.84,0,0,0,6.84,2.42l19.29-23.72a3.87,3.87,0,0,0-3-6.29H315.46"/><path id="path1993" class="cls-1" d="M315.44,172.69h23.11a3.86,3.86,0,0,0,3-6.29l-19.29-23.73a3.85,3.85,0,0,0-6.84,2.43v27.59"/><path id="path2001" class="cls-1" d="M172.61,314.9H145a3.86,3.86,0,0,0-2.43,6.85L166.29,341a3.86,3.86,0,0,0,6.29-3V314.92"/><path id="path2003" class="cls-1" d="M202.44,314.9V338a3.86,3.86,0,0,0,6.29,3l23.77-19.25a3.86,3.86,0,0,0-2.44-6.85H202.44"/><path id="path2011" class="cls-1" d="M59.74,172.69V145.1a3.85,3.85,0,0,0-6.84-2.43L33.62,166.41a3.86,3.86,0,0,0,.58,5.43,3.92,3.92,0,0,0,2.41.86H59.72"/><path id="path2013" class="cls-1" d="M59.74,202.5H36.63a3.85,3.85,0,0,0-3,6.29l19.25,23.72a3.84,3.84,0,0,0,6.84-2.42V202.5"/><g id="g2019"><path id="path2015" class="cls-1" d="M263.72,254.88l10.34,10.35a.59.59,0,0,0,.83,0h0l10.35-10.35"/><path id="path2017" class="cls-1" d="M285.26,254.88l-3.59-3.57a.58.58,0,0,0-1,.18L275,264.41a.58.58,0,0,1-.74.33h0a.59.59,0,0,1-.33-.33l-5.67-12.91a.61.61,0,0,0-.77-.32.9.9,0,0,0-.2.14l-3.58,3.59Z"/></g><path id="path2021" class="cls-1" d="M290.07,256.57l2.52-2.52a.6.6,0,0,1,.85,0,.58.58,0,0,1,.17.37l.48,4.69a.59.59,0,0,1-1,.49l-3-3"/><path id="path2023" class="cls-1" d="M286.82,253.32l2.52-2.52a.58.58,0,0,0,0-.82h0a.58.58,0,0,0-.39-.19l-4.68-.48a.59.59,0,0,0-.67.49.59.59,0,0,0,.18.52l3,3"/><g id="g2029"><path id="path2025" class="cls-1" d="M288.51,279.68l-10.35-10.35a.58.58,0,0,1,0-.82h0l10.35-10.34"/><path id="path2027" class="cls-1" d="M288.51,279.68l3.57-3.59a.57.57,0,0,0,0-.81h0a.48.48,0,0,0-.2-.14L279,269.46a.59.59,0,0,1-.34-.75h0a.59.59,0,0,1,.33-.33l13-5.67a.59.59,0,0,0,.31-.77h0a.56.56,0,0,0-.14-.2l-3.57-3.58"/></g><path id="path2031" class="cls-1" d="M286.82,284.49l-3,3a.6.6,0,0,0,0,.83.67.67,0,0,0,.49.17L289,288a.58.58,0,0,0,.54-.62h0a.53.53,0,0,0-.18-.39l-2.52-2.53"/><path id="path2033" class="cls-1" d="M290.07,281.24l2.52,2.52a.6.6,0,0,0,.85,0,.64.64,0,0,0,.17-.36l.48-4.7a.58.58,0,0,0-.47-.67.59.59,0,0,0-.54.19l-3,3"/><g id="g2039"><path id="path2035" class="cls-1" d="M285.32,282.87,275,272.53a.57.57,0,0,0-.82,0h0L263.8,282.87"/><path id="path2037" class="cls-1" d="M263.86,282.79l3.58,3.58a.59.59,0,0,0,.83,0,.56.56,0,0,0,.14-.2l5.69-12.91a.59.59,0,0,1,.76-.33.75.75,0,0,1,.33.33l5.6,13a.58.58,0,0,0,.75.33h0a.46.46,0,0,0,.21-.13l3.57-3.58Z"/></g><path id="path2041" class="cls-1" d="M259,281.14l-3-3a.58.58,0,0,0-.82,0h0a.54.54,0,0,0-.18.52l.48,4.69a.58.58,0,0,0,.62.55h0a.62.62,0,0,0,.39-.18l2.53-2.53"/><path id="path2043" class="cls-1" d="M262.21,284.44l-2.47,2.47a.59.59,0,0,0,0,.83.57.57,0,0,0,.38.18l4.69.49a.6.6,0,0,0,.67-.5.59.59,0,0,0-.18-.52l-3.09-2.95"/><g id="g2049"><path id="path2045" class="cls-1" d="M260.56,258.08l10.35,10.35a.59.59,0,0,1,0,.83h0l-10.35,10.36"/><path id="path2047" class="cls-1" d="M260.56,258.08,257,261.66a.57.57,0,0,0,0,.82.51.51,0,0,0,.21.15l13,5.61a.59.59,0,0,1,.33.76h0a.55.55,0,0,1-.33.32L257.24,275a.58.58,0,0,0-.31.77h0a.53.53,0,0,0,.13.2l3.58,3.58"/></g><path id="path2051" class="cls-1" d="M262.21,253.33l3-3a.56.56,0,0,0,0-.81h0a.57.57,0,0,0-.52-.19l-4.68.49a.58.58,0,0,0-.55.62h0a.62.62,0,0,0,.18.39l2.53,2.52"/><path id="path2053" class="cls-1" d="M258.91,256.59l-2.48-2.53a.59.59,0,0,0-.82,0,.57.57,0,0,0-.18.38l-.49,4.7a.59.59,0,0,0,.53.65h0a.59.59,0,0,0,.48-.17l3-3"/><g id="g2059"><path id="path2055" class="cls-1" d="M92.51,254.72l10.35,10.35a.59.59,0,0,0,.82,0h0L114,254.72"/><path id="path2057" class="cls-1" d="M114,254.72l-3.57-3.58a.6.6,0,0,0-.83,0,.69.69,0,0,0-.13.2l-5.67,12.93a.59.59,0,0,1-1.09,0l-5.67-12.91a.59.59,0,0,0-.77-.32h0a.64.64,0,0,0-.19.13l-3.6,3.55Z"/></g><path id="path2061" class="cls-1" d="M118.86,256.37l2.53-2.51a.58.58,0,0,1,.82,0h0a.58.58,0,0,1,.19.39l.48,4.69a.57.57,0,0,1-.48.66h0a.54.54,0,0,1-.52-.18l-3-3.05"/><path id="path2063" class="cls-1" d="M115.61,253.11l2.53-2.52a.6.6,0,0,0,0-.83.57.57,0,0,0-.39-.18l-4.69-.49a.59.59,0,0,0-.67.49.56.56,0,0,0,.18.53l3,3"/><g id="g2069"><path id="path2065" class="cls-1" d="M117.3,279.49,107,269.12a.6.6,0,0,1,0-.83h0l10.35-10.35"/><path id="path2067" class="cls-1" d="M117.3,279.49l3.58-3.59a.6.6,0,0,0,0-.84.71.71,0,0,0-.18-.12l-12.92-5.67a.6.6,0,0,1-.32-.78.59.59,0,0,1,.32-.32l12.92-5.67a.58.58,0,0,0,.32-.75h0a.6.6,0,0,0-.14-.21L117.3,258"/></g><path id="path2071" class="cls-1" d="M115.61,284.28l-3,3a.59.59,0,0,0,0,.83.59.59,0,0,0,.52.18l4.69-.49a.58.58,0,0,0,.54-.62h0a.57.57,0,0,0-.18-.39l-2.53-2.53"/><path id="path2073" class="cls-1" d="M118.86,281l2.53,2.53a.58.58,0,0,0,.82,0h0a.58.58,0,0,0,.19-.38l.48-4.7a.59.59,0,0,0-.49-.67h0a.57.57,0,0,0-.51.19l-3,3"/><g id="g2079"><path id="path2075" class="cls-1" d="M114.13,282.67l-10.35-10.35a.6.6,0,0,0-.83,0h0L92.59,282.67"/><path id="path2077" class="cls-1" d="M92.66,282.61l3.57,3.58a.6.6,0,0,0,.83,0,.53.53,0,0,0,.13-.2l5.72-12.88a.58.58,0,0,1,.76-.34h0a.53.53,0,0,1,.32.33l5.61,12.95a.6.6,0,0,0,.76.33,1.1,1.1,0,0,0,.21-.14l3.57-3.58Z"/></g><path id="path2081" class="cls-1" d="M87.76,281l-3-3a.59.59,0,0,0-.83,0,.63.63,0,0,0-.19.52l.49,4.7a.6.6,0,0,0,.63.54.6.6,0,0,0,.39-.19L87.76,281"/><path id="path2083" class="cls-1" d="M91,284.22l-2.52,2.52a.59.59,0,0,0,0,.83.61.61,0,0,0,.39.17l4.68.49a.59.59,0,0,0,.67-.49h0a.6.6,0,0,0-.18-.52l-3-3"/><g id="g2089"><path id="path2085" class="cls-1" d="M89.34,257.88l10.34,10.35a.59.59,0,0,1,0,.82h0L89.34,279.42"/><path id="path2087" class="cls-1" d="M89.34,257.88l-3.58,3.58a.57.57,0,0,0,0,.82.5.5,0,0,0,.2.15l13,5.61a.58.58,0,0,1,.32.77.58.58,0,0,1-.32.33L86,274.81a.57.57,0,0,0-.31.75h0a.63.63,0,0,0,.13.2l3.58,3.58"/></g><path id="path2091" class="cls-1" d="M91,253.13l3-3a.58.58,0,0,0,.06-.82.58.58,0,0,0-.54-.19l-4.7.48a.58.58,0,0,0-.53.63.59.59,0,0,0,.18.39L91,253.13"/><path id="path2093" class="cls-1" d="M87.7,256.37l-2.47-2.51a.6.6,0,0,0-.83,0,.57.57,0,0,0-.18.39l-.49,4.68a.6.6,0,0,0,.49.68.59.59,0,0,0,.53-.19l3-3.05"/><g id="g2099"><path id="path2095" class="cls-1" d="M85.75,102.4h14.62a.59.59,0,0,0,.59-.59V87.17"/><path id="path2097" class="cls-1" d="M101,87.17H95.91a.58.58,0,0,0-.6.56h0a1,1,0,0,0,0,.24l5.13,13.15a.59.59,0,0,1-.29.77h0a.57.57,0,0,1-.48,0L86.57,96.77a.59.59,0,0,0-.77.32h0a.45.45,0,0,0,0,.23v5.07Z"/></g><path id="path2101" class="cls-1" d="M105.57,85V81.39a.59.59,0,0,1,.55-.61h0a.53.53,0,0,1,.41.15l3.66,2.94a.58.58,0,0,1,.13.81h0a.6.6,0,0,1-.51.24h-4.25"/><path id="path2103" class="cls-1" d="M101,85V81.39a.59.59,0,0,0-.56-.61h0a.57.57,0,0,0-.43.15l-3.68,2.94a.57.57,0,0,0-.13.81h0a.58.58,0,0,0,.5.24h4.26"/><g id="g2109"><path id="path2105" class="cls-1" d="M120.8,102.4H106.21a.59.59,0,0,1-.59-.58h0V87.17"/><path id="path2107" class="cls-1" d="M120.8,102.4V97.33a.6.6,0,0,0-.82-.56l-13.14,5.13a.6.6,0,0,1-.78-.29h0a.57.57,0,0,1,0-.48L111.16,88a.6.6,0,0,0-.32-.77.67.67,0,0,0-.24,0h-5"/></g><path id="path2111" class="cls-1" d="M123,107v4.26a.58.58,0,0,0,.55.61.57.57,0,0,0,.5-.24l3-3.66a.56.56,0,0,0-.42-1h-3.56"/><path id="path2113" class="cls-1" d="M123,102.4h3.55a.58.58,0,0,0,.61-.56h0a.6.6,0,0,0-.14-.42l-3-3.65a.57.57,0,0,0-.8-.14h0a.57.57,0,0,0-.24.5v4.26"/><g id="g2119"><path id="path2115" class="cls-1" d="M120.82,106.9H106.21a.59.59,0,0,0-.59.59v14.63"/><path id="path2117" class="cls-1" d="M105.59,122h5.07a.59.59,0,0,0,.6-.57h0a.59.59,0,0,0-.05-.23l-5.11-13.15a.59.59,0,0,1,.31-.77.57.57,0,0,1,.48,0l13.13,5.2a.6.6,0,0,0,.77-.32.49.49,0,0,0,0-.24v-5Z"/></g><path id="path2121" class="cls-1" d="M101,124.31H96.72a.58.58,0,0,0-.61.56h0a.61.61,0,0,0,.23.5l3.66,3a.6.6,0,0,0,.83-.08.52.52,0,0,0,.13-.38v-3.57"/><path id="path2123" class="cls-1" d="M105.57,124.31v3.57a.61.61,0,0,0,.6.6.59.59,0,0,0,.38-.14l3.66-3a.59.59,0,0,0,.13-.82.6.6,0,0,0-.51-.24h-4.25"/><g id="g2129"><path id="path2125" class="cls-1" d="M85.76,106.9h14.67a.58.58,0,0,1,.59.59v14.63"/><path id="path2127" class="cls-1" d="M85.76,106.9v5a.59.59,0,0,0,.58.59h0a.4.4,0,0,0,.24,0l13.14-5.2a.58.58,0,0,1,.77.28h0a.57.57,0,0,1,0,.48L95.36,121.2a.58.58,0,0,0,.3.76h0a.69.69,0,0,0,.24.05H101"/></g><path id="path2131" class="cls-1" d="M83.56,102.4V98.14a.58.58,0,0,0-.56-.61h0a.59.59,0,0,0-.5.24l-3,3.65a.6.6,0,0,0,0,.83.66.66,0,0,0,.42.15h3.57"/><path id="path2133" class="cls-1" d="M83.56,107H80a.57.57,0,0,0-.61.56h0a.58.58,0,0,0,.14.42l3,3.66a.56.56,0,0,0,.8.13h0a.57.57,0,0,0,.24-.5V107"/><path id="path1973" class="cls-1" d="M268.77,124.31h-4.26a.58.58,0,0,0-.61.56.6.6,0,0,0,.23.5l3.67,3a.58.58,0,0,0,.82,0h0a.6.6,0,0,0,.14-.42v-3.61"/><g id="g2139"><path id="path2135" class="cls-1" d="M253.54,102.4h14.63a.6.6,0,0,0,.59-.59V87.17"/><path id="path2137" class="cls-1" d="M268.77,87.17h-5.06a.59.59,0,0,0-.61.57h0a1,1,0,0,0,0,.24l5.14,13.15a.6.6,0,0,1-.31.77h0a.53.53,0,0,1-.46,0l-13.13-5.13a.61.61,0,0,0-.78.35.78.78,0,0,0,0,.21v5.07Z"/></g><path id="path2141" class="cls-1" d="M273.37,85V81.39a.57.57,0,0,1,.53-.61h0a.56.56,0,0,1,.42.15l3.66,3a.59.59,0,0,1,.13.82h0a.57.57,0,0,1-.5.24h-4.25"/><path id="path2143" class="cls-1" d="M268.77,85V81.39a.59.59,0,0,0-.55-.61h0a.53.53,0,0,0-.41.15l-3.66,2.94a.57.57,0,0,0-.13.81h0a.58.58,0,0,0,.5.24h4.26"/><g id="g2149"><path id="path2145" class="cls-1" d="M288.62,102.4H274a.59.59,0,0,1-.59-.59V87.17"/><path id="path2147" class="cls-1" d="M288.62,102.4V97.33a.58.58,0,0,0-.58-.6.61.61,0,0,0-.24,0l-13.15,5.13a.6.6,0,0,1-.78-.32.61.61,0,0,1,0-.46L279,88a.57.57,0,0,0-.27-.77.54.54,0,0,0-.28,0h-5.06"/></g><path id="path2151" class="cls-1" d="M290.81,107v4.26a.6.6,0,0,0,.56.61h0a.57.57,0,0,0,.5-.24l3-3.66a.56.56,0,0,0-.44-1h-3.56"/><path id="path2153" class="cls-1" d="M290.81,102.4h3.59a.58.58,0,0,0,.61-.56h0a.56.56,0,0,0-.15-.42l-3-3.65a.57.57,0,0,0-.8-.14h0a.57.57,0,0,0-.24.5v4.26"/><g id="g2159"><path id="path2155" class="cls-1" d="M288.62,106.9H274a.58.58,0,0,0-.58.59v14.63"/><path id="path2157" class="cls-1" d="M273.39,122h5.06a.59.59,0,0,0,.6-.57h0a.88.88,0,0,0,0-.23l-5.11-13.15a.58.58,0,0,1,.3-.77.57.57,0,0,1,.48,0l13.13,5.2a.59.59,0,0,0,.78-.31.67.67,0,0,0,0-.24V106.9Z"/></g><path id="path2161" class="cls-1" d="M273.37,124.31v3.57a.59.59,0,0,0,.54.61h0a.61.61,0,0,0,.43-.15l3.66-3a.58.58,0,0,0,.12-.82.57.57,0,0,0-.5-.24h-4.25"/><g id="g2167"><path id="path2163" class="cls-1" d="M253.55,106.9h14.64a.58.58,0,0,1,.58.59v14.63"/><path id="path2165" class="cls-1" d="M253.55,106.9v5a.59.59,0,0,0,.58.59h0a.4.4,0,0,0,.24,0l13.14-5.2a.59.59,0,0,1,.78.28h0a.57.57,0,0,1,0,.48l-5.13,13.15a.58.58,0,0,0,.31.76h0a.69.69,0,0,0,.24.05h5.1"/></g><path id="path2169" class="cls-1" d="M251.35,102.4V98.14a.59.59,0,0,0-1.06-.37l-2.94,3.65a.62.62,0,0,0,.05.83.72.72,0,0,0,.42.15h3.57"/><path id="path2171" class="cls-1" d="M251.35,107h-3.57a.59.59,0,0,0-.61.58.63.63,0,0,0,.14.4l3,3.66a.58.58,0,0,0,.81.13h0a.57.57,0,0,0,.24-.5V107"/><g id="Koltuk_Benzeri_Olanlar" data-name="Koltuk Benzeri Olanlar"><g id="g2302"><g id="g2202"><g id="g2182"><path id="path2178" class="cls-2" d="M123.28,161.32h38.6a1.55,1.55,0,0,0,1.57-1.55h0V121.15"/></g><g id="g2188"><path id="path2184" class="cls-2" d="M252.13,161.32H213.51a1.56,1.56,0,0,1-1.57-1.55h0V121.15"/></g><g id="g2194"><path id="path2190" class="cls-2" d="M163.46,251.22V212.63a1.56,1.56,0,0,0-1.56-1.56H123.28"/></g><g id="g2200"><path id="path2196" class="cls-2" d="M213.79,251.24V212.63a1.57,1.57,0,0,1,1.57-1.57H254"/></g></g><g id="g2300"><g id="g2208"><path id="path2204" class="cls-2" d="M270.34,259l4.21,4.22a.26.26,0,0,0,.35,0h0l4.21-4.22"/><path id="path2206" class="cls-2" d="M279.11,259l-1.46-1.45a.24.24,0,0,0-.33,0h0l-.05.07L275,262.9a.25.25,0,0,1-.3.13h0a.23.23,0,0,1-.12-.12l-2.31-5.26a.24.24,0,0,0-.32-.12h0l-.07,0L270.36,259Z"/></g><g id="g2214"><path id="path2210" class="cls-2" d="M284.41,273.09l-4.22-4.22a.25.25,0,0,1,0-.34l4.22-4.21"/><path id="path2212" class="cls-2" d="M284.41,264.32l1.45,1.46a.25.25,0,0,1,0,.34l-.07.05-5.26,2.31a.23.23,0,0,0-.13.3v0a.22.22,0,0,0,.13.12l5.26,2.31a.24.24,0,0,1,.11.32h0a.16.16,0,0,1,0,.07l-1.46,1.46Z"/></g><g id="g2220"><path id="path2216" class="cls-2" d="M264.92,273.22l4.21-4.21a.22.22,0,0,0,0-.32v0h0l-4.21-4.21"/><path id="path2218" class="cls-2" d="M264.92,264.46l-1.46,1.45a.23.23,0,0,0,0,.34h.06l5.27,2.32a.26.26,0,0,1,.12.33.25.25,0,0,1-.12.11l-5.26,2.3a.26.26,0,0,0-.12.33l0,.07,1.45,1.45Z"/></g><g id="g2226"><path id="path2222" class="cls-2" d="M270.41,278.72l4.18-4.19a.26.26,0,0,1,.35,0h0l4.21,4.22"/><path id="path2224" class="cls-2" d="M279.17,278.72l-1.45,1.45a.24.24,0,0,1-.35,0l-.05-.07L275,274.84a.22.22,0,0,0-.3-.13h0a.18.18,0,0,0-.12.12l-2.31,5.26a.25.25,0,0,1-.33.11l-.06,0-1.46-1.46Z"/></g><g id="g2232"><path id="path2228" class="cls-2" d="M99.14,258.85l4.21,4.21a.22.22,0,0,0,.32,0h0l4.21-4.21"/><path id="path2230" class="cls-2" d="M107.9,258.85l-1.46-1.46a.25.25,0,0,0-.34,0,.18.18,0,0,0,0,.07l-2.32,5.25a.26.26,0,0,1-.32.12.34.34,0,0,1-.12-.12l-2.3-5.26a.25.25,0,0,0-.32-.13h0l-.07.05-1.45,1.48Z"/></g><g id="g2238"><path id="path2234" class="cls-2" d="M113.19,272.88,109,268.67a.23.23,0,0,1,0-.34l4.21-4.21"/><path id="path2236" class="cls-2" d="M113.19,264.12l1.46,1.46a.23.23,0,0,1,0,.34.15.15,0,0,1-.06.05l-5.27,2.31a.25.25,0,0,0-.12.32.34.34,0,0,0,.12.12l5.26,2.31a.24.24,0,0,1,.13.31h0a.12.12,0,0,1,0,.07l-1.46,1.46Z"/></g><g id="g2244"><path id="path2240" class="cls-2" d="M93.71,273,98,268.81a.24.24,0,0,0,0-.33h0l-4.22-4.22"/><path id="path2242" class="cls-2" d="M93.71,264.25l-1.46,1.46a.25.25,0,0,0,0,.34l.08.05,5.25,2.31a.23.23,0,0,1,.13.31h0a.22.22,0,0,1-.13.12l-5.24,2.31a.23.23,0,0,0-.13.31h0l.05.07L93.71,273Z"/></g><g id="g2250"><path id="path2246" class="cls-2" d="M99.2,278.51l4.22-4.21a.24.24,0,0,1,.33,0h0l4.21,4.21"/><path id="path2248" class="cls-2" d="M108,278.51,106.51,280a.23.23,0,0,1-.34,0l0-.06-2.31-5.27a.24.24,0,0,0-.32-.12.25.25,0,0,0-.13.12l-2.3,5.26a.24.24,0,0,1-.32.12l-.08,0-1.46-1.46Z"/></g><g id="g2256"><path id="path2252" class="cls-2" d="M93.36,100.64h6a.24.24,0,0,0,.24-.24h0v-6"/><path id="path2254" class="cls-2" d="M99.56,94.44H97.49a.24.24,0,0,0-.24.24h0v.08l2.11,5.36a.25.25,0,0,1-.14.31.25.25,0,0,1-.17,0L93.7,98.35a.26.26,0,0,0-.32.14v2.15Z"/></g><g id="g2262"><path id="path2258" class="cls-2" d="M113.24,100.64h-5.95a.24.24,0,0,1-.26-.22.09.09,0,0,1,0,0V94.44"/><path id="path2260" class="cls-2" d="M107,94.44h2.06a.24.24,0,0,1,.24.24h0v.08l-2.1,5.36a.25.25,0,0,0,.14.31.28.28,0,0,0,.18,0l5.34-2.09a.26.26,0,0,1,.32.14.14.14,0,0,1,0,.09v2.06Z"/></g><g id="g2268"><path id="path2264" class="cls-2" d="M99.56,114.51v-6a.24.24,0,0,0-.24-.24h-6"/><path id="path2266" class="cls-2" d="M93.36,108.31v2.07a.24.24,0,0,0,.24.24h.09l5.36-2.09a.24.24,0,0,1,.31.14.25.25,0,0,1,0,.17l-2.09,5.35a.25.25,0,0,0,.14.31h2.15Z"/></g><g id="g2274"><path id="path2270" class="cls-2" d="M107.33,114.52v-6a.25.25,0,0,1,.23-.25h6"/><path id="path2272" class="cls-2" d="M113.53,108.31v2.07a.25.25,0,0,1-.25.24h-.08l-5.34-2.1a.24.24,0,0,0-.31.13h0a.19.19,0,0,0,0,.18l2.08,5.35a.25.25,0,0,1-.13.32h-2.17Z"/></g><g id="g2280"><path id="path2276" class="cls-2" d="M261.16,100.64h5.95a.23.23,0,0,0,.24-.23h0v-6"/><path id="path2278" class="cls-2" d="M267.35,94.44h-2.06a.25.25,0,0,0-.25.25v.08l2.12,5.36a.24.24,0,0,1-.14.31.25.25,0,0,1-.17,0l-5.35-2.09a.25.25,0,0,0-.31.14.14.14,0,0,0,0,.09v2.06Z"/></g><g id="g2286"><path id="path2282" class="cls-2" d="M281,100.64h-6a.24.24,0,0,1-.24-.24h0v-6"/><path id="path2284" class="cls-2" d="M274.84,94.44h2.06a.23.23,0,0,1,.24.23v0a.11.11,0,0,1,0,.08l-2.09,5.36a.25.25,0,0,0,.32.31l5.35-2.09a.25.25,0,0,1,.31.14.14.14,0,0,1,0,.09v2.06Z"/></g><g id="g2292"><path id="path2288" class="cls-2" d="M267.35,114.51v-6a.24.24,0,0,0-.24-.24h-6"/><path id="path2290" class="cls-2" d="M261.16,108.31v2.07a.23.23,0,0,0,.23.24h.1l5.34-2.09a.24.24,0,0,1,.33.1.25.25,0,0,1,0,.17l-2.08,5.35a.24.24,0,0,0,.13.31h2.14Z"/></g><g id="g2298"><path id="path2294" class="cls-2" d="M275.12,114.52v-6a.26.26,0,0,1,.24-.25h6"/><path id="path2296" class="cls-2" d="M281.32,108.31v2.07a.24.24,0,0,1-.24.24H281l-5.36-2.08a.23.23,0,0,0-.31.13h0a.28.28,0,0,0,0,.18l2.09,5.35a.25.25,0,0,1-.14.31h-2.15Z"/></g></g></g></g><ellipse id="ellipse2305" class="cls-3" cx="187.57" cy="176.43" rx="12.53" ry="10.85"/><ellipse id="ellipse2307" class="cls-4" cx="192.03" cy="177.38" rx="10.85" ry="12.53" transform="translate(-48.11 280.66) rotate(-66)"/><ellipse id="ellipse2309" class="cls-5" cx="195.73" cy="180.06" rx="10.85" ry="12.53" transform="translate(-70.21 177.22) rotate(-42)"/><ellipse id="ellipse2311" class="cls-6" cx="198.01" cy="184.02" rx="10.85" ry="12.53" transform="translate(-47.17 70.2) rotate(-18)"/><ellipse id="ellipse2313" class="cls-7" cx="198.49" cy="188.56" rx="12.53" ry="10.85" transform="translate(-9.78 366.26) rotate(-84)"/><ellipse id="ellipse2315" class="cls-8" cx="198.21" cy="190.93" rx="12.57" ry="10.9" transform="translate(-66.1 267.63) rotate(-60.11)"/><ellipse id="ellipse2317" class="cls-9" cx="194.02" cy="196.29" rx="12.53" ry="10.85" transform="translate(-78.32 151.53) rotate(-36)"/><ellipse id="ellipse2319" class="cls-10" cx="189.85" cy="198.15" rx="12.53" ry="10.85" transform="translate(-37.05 43.8) rotate(-12)"/><ellipse id="ellipse2321" class="cls-11" cx="185.91" cy="198.22" rx="10.88" ry="12.56" transform="translate(-46.86 338.47) rotate(-77.91)"/><ellipse id="ellipse2323" class="cls-9" cx="181.12" cy="196.29" rx="10.85" ry="12.53" transform="translate(-84.14 227.44) rotate(-54)"/><ellipse id="ellipse2325" class="cls-12" cx="178.06" cy="192.9" rx="10.85" ry="12.53" transform="translate(-72.59 114.88) rotate(-30)"/><ellipse id="ellipse2327" class="cls-7" cx="176.65" cy="188.56" rx="10.85" ry="12.53" transform="translate(-18.74 19.5) rotate(-6)"/><ellipse id="ellipse2329" class="cls-6" cx="177.13" cy="184.02" rx="12.53" ry="10.85" transform="translate(-52.63 295.62) rotate(-72)"/><ellipse id="ellipse2331" class="cls-5" cx="179.41" cy="180.05" rx="12.53" ry="10.85" transform="translate(-74.44 192.9) rotate(-48)"/><ellipse id="ellipse2333" class="cls-4" cx="183.1" cy="177.38" rx="12.53" ry="10.85" transform="translate(-56.32 89.81) rotate(-24)"/><ellipse id="ellipse2335" class="cls-3" cx="187.57" cy="176.43" rx="12.53" ry="10.85"/><g id="g2371"><ellipse id="ellipse2339" class="cls-3" cx="225.52" cy="181.35" rx="6.83" ry="5.92"/><ellipse id="ellipse2341" class="cls-4" cx="227.97" cy="181.86" rx="5.92" ry="6.83" transform="translate(-30.89 316.15) rotate(-66)"/><ellipse id="ellipse2343" class="cls-5" cx="230" cy="183.33" rx="5.92" ry="6.83" transform="translate(-63.6 200.99) rotate(-42)"/><ellipse id="ellipse2345" class="cls-6" cx="231.24" cy="185.49" rx="5.92" ry="6.83" transform="translate(-46 80.54) rotate(-18)"/><ellipse id="ellipse2347" class="cls-7" cx="231.51" cy="187.99" rx="6.83" ry="5.92" transform="translate(20.36 398.58) rotate(-84)"/><ellipse id="ellipse2349" class="cls-13" cx="230.74" cy="190.36" rx="6.83" ry="5.92" transform="translate(-49.49 295.01) rotate(-60)"/><ellipse id="ellipse2351" class="cls-14" cx="229.96" cy="191.51" rx="6.84" ry="5.93" transform="translate(-68.67 172.1) rotate(-36.07)"/><ellipse id="ellipse2353" class="cls-10" cx="226.78" cy="193.24" rx="6.83" ry="5.92" transform="translate(-35.22 51.37) rotate(-12)"/><ellipse id="ellipse2355" class="cls-10" cx="224.27" cy="193.24" rx="5.92" ry="6.83" transform="translate(-11.38 372.43) rotate(-78)"/><ellipse id="ellipse2357" class="cls-9" cx="221.99" cy="192.23" rx="5.92" ry="6.83" transform="translate(-64.01 258.83) rotate(-54)"/><ellipse id="ellipse2359" class="cls-12" cx="220.31" cy="190.36" rx="5.92" ry="6.83" transform="translate(-65.67 135.66) rotate(-30)"/><ellipse id="ellipse2361" class="cls-7" cx="219.54" cy="187.99" rx="5.92" ry="6.83" transform="matrix(0.99, -0.1, 0.1, 0.99, -18.45, 23.98)"/><ellipse id="ellipse2363" class="cls-6" cx="219.81" cy="185.51" rx="6.83" ry="5.92" transform="matrix(0.31, -0.95, 0.95, 0.31, -24.54, 337.23)"/><ellipse id="ellipse2365" class="cls-5" cx="221.05" cy="183.33" rx="6.83" ry="5.92" transform="translate(-63.1 224.93) rotate(-48)"/><ellipse id="ellipse2367" class="cls-4" cx="223.08" cy="181.86" rx="6.83" ry="5.92" transform="translate(-54.68 106.46) rotate(-24)"/><ellipse id="ellipse2369" class="cls-3" cx="225.52" cy="181.35" rx="6.83" ry="5.92"/></g><g id="g2405"><ellipse id="ellipse2373" class="cls-3" cx="254.51" cy="181.35" rx="6.83" ry="5.92"/><ellipse id="ellipse2375" class="cls-4" cx="256.96" cy="181.86" rx="5.92" ry="6.83" transform="translate(-13.69 342.63) rotate(-66)"/><ellipse id="ellipse2377" class="cls-5" cx="258.99" cy="183.33" rx="5.92" ry="6.83" transform="translate(-56.15 220.39) rotate(-42)"/><ellipse id="ellipse2379" class="cls-15" cx="259.96" cy="184.85" rx="5.92" ry="6.83" transform="translate(-44.51 89.75) rotate(-18.07)"/><ellipse id="ellipse2381" class="cls-7" cx="260.5" cy="187.99" rx="6.83" ry="5.92" transform="translate(46.31 427.41) rotate(-84)"/><ellipse id="ellipse2383" class="cls-13" cx="259.73" cy="190.36" rx="6.83" ry="5.92" transform="translate(-35 320.11) rotate(-60)"/><ellipse id="ellipse2385" class="cls-9" cx="258.05" cy="192.22" rx="6.83" ry="5.92" transform="translate(-63.7 188.39) rotate(-36)"/><ellipse id="ellipse2387" class="cls-10" cx="255.76" cy="193.24" rx="6.83" ry="5.92" transform="translate(-34.59 57.4) rotate(-12)"/><ellipse id="ellipse2389" class="cls-10" cx="253.27" cy="193.24" rx="5.92" ry="6.83" transform="translate(11.59 400.8) rotate(-78)"/><ellipse id="ellipse2391" class="cls-9" cx="250.98" cy="192.23" rx="5.92" ry="6.83" transform="translate(-52.06 282.28) rotate(-54)"/><ellipse id="ellipse2393" class="cls-12" cx="249.3" cy="190.36" rx="5.92" ry="6.83" transform="translate(-61.78 150.15) rotate(-30)"/><ellipse id="ellipse2395" class="cls-7" cx="248.53" cy="187.99" rx="5.92" ry="6.83" transform="translate(-18.29 27.01) rotate(-6)"/><ellipse id="ellipse2397" class="cls-6" cx="248.79" cy="185.5" rx="6.83" ry="5.92" transform="matrix(0.31, -0.95, 0.95, 0.31, -4.51, 364.8)"/><ellipse id="ellipse2399" class="cls-5" cx="250.04" cy="183.33" rx="6.83" ry="5.92" transform="translate(-53.51 246.48) rotate(-48)"/><ellipse id="ellipse2401" class="cls-4" cx="252.07" cy="181.87" rx="6.83" ry="5.92" transform="translate(-52.18 118.25) rotate(-24)"/><ellipse id="ellipse2403" class="cls-3" cx="254.51" cy="181.35" rx="6.83" ry="5.92"/></g><g id="g2439"><ellipse id="ellipse2407" class="cls-3" cx="283.5" cy="181.35" rx="6.83" ry="5.92"/><ellipse id="ellipse2409" class="cls-4" cx="285.95" cy="181.87" rx="5.92" ry="6.83" transform="translate(3.5 369.13) rotate(-66)"/><ellipse id="ellipse2411" class="cls-5" cx="287.97" cy="183.33" rx="5.92" ry="6.83" transform="translate(-48.71 239.78) rotate(-42)"/><ellipse id="ellipse2413" class="cls-6" cx="289.23" cy="185.5" rx="5.92" ry="6.83" transform="translate(-43.17 98.45) rotate(-18)"/><ellipse id="ellipse2415" class="cls-7" cx="289.48" cy="187.99" rx="6.83" ry="5.92" transform="translate(72.26 456.24) rotate(-84)"/><ellipse id="ellipse2417" class="cls-13" cx="288.72" cy="190.36" rx="6.83" ry="5.92" transform="translate(-20.5 345.22) rotate(-60)"/><ellipse id="ellipse2419" class="cls-14" cx="287.99" cy="191.39" rx="6.84" ry="5.93" transform="translate(-57.47 206.25) rotate(-36.07)"/><ellipse id="ellipse2421" class="cls-10" cx="284.75" cy="193.24" rx="6.83" ry="5.92" transform="translate(-33.95 63.43) rotate(-12)"/><ellipse id="ellipse2423" class="cls-10" cx="282.25" cy="193.24" rx="5.92" ry="6.83" transform="translate(34.55 429.14) rotate(-78)"/><ellipse id="ellipse2425" class="cls-9" cx="279.96" cy="192.22" rx="5.92" ry="6.83" transform="translate(-40.11 305.73) rotate(-54)"/><ellipse id="ellipse2427" class="cls-8" cx="280.14" cy="191.21" rx="5.93" ry="6.85" transform="translate(-58.02 165.04) rotate(-29.89)"/><ellipse id="ellipse2429" class="cls-7" cx="277.52" cy="187.99" rx="5.92" ry="6.83" transform="translate(-18.13 30.04) rotate(-6)"/><ellipse id="ellipse2431" class="cls-6" cx="277.77" cy="185.5" rx="6.83" ry="5.92" transform="translate(15.51 392.36) rotate(-72)"/><ellipse id="ellipse2433" class="cls-5" cx="279.03" cy="183.33" rx="6.83" ry="5.92" transform="translate(-43.92 268.02) rotate(-48)"/><ellipse id="ellipse2435" class="cls-4" cx="281.05" cy="181.86" rx="6.83" ry="5.92" transform="translate(-49.67 130.04) rotate(-24)"/><ellipse id="ellipse2437" class="cls-3" cx="283.5" cy="181.35" rx="6.83" ry="5.92"/></g><g id="g2473"><ellipse id="ellipse2441" class="cls-3" cx="92.06" cy="181.38" rx="6.83" ry="5.92"/><ellipse id="ellipse2443" class="cls-4" cx="94.51" cy="181.89" rx="5.92" ry="6.83" transform="translate(-110.09 194.25) rotate(-66)"/><ellipse id="ellipse2445" class="cls-5" cx="96.54" cy="183.37" rx="5.92" ry="6.83" transform="translate(-97.9 111.69) rotate(-42)"/><ellipse id="ellipse2447" class="cls-6" cx="97.79" cy="185.53" rx="5.92" ry="6.83" transform="translate(-52.54 39.3) rotate(-18)"/><ellipse id="ellipse2449" class="cls-7" cx="98.05" cy="188.03" rx="6.83" ry="5.92" transform="translate(-99.19 265.89) rotate(-84)"/><ellipse id="ellipse2451" class="cls-13" cx="97.28" cy="190.4" rx="6.83" ry="5.92" transform="translate(-116.25 179.45) rotate(-60)"/><ellipse id="ellipse2453" class="cls-9" cx="95.6" cy="192.26" rx="6.83" ry="5.92" transform="translate(-94.75 92.91) rotate(-36)"/><ellipse id="ellipse2455" class="cls-10" cx="93.31" cy="193.27" rx="6.83" ry="5.92" transform="translate(-38.14 23.62) rotate(-12)"/><ellipse id="ellipse2457" class="cls-10" cx="90.81" cy="193.28" rx="5.92" ry="6.83" transform="translate(-117.12 241.92) rotate(-78)"/><ellipse id="ellipse2459" class="cls-9" cx="88.53" cy="192.26" rx="5.92" ry="6.83" transform="translate(-119.04 150.87) rotate(-54)"/><ellipse id="ellipse2461" class="cls-12" cx="86.86" cy="190.41" rx="5.92" ry="6.83" transform="translate(-83.57 68.94) rotate(-30)"/><ellipse id="ellipse2463" class="cls-7" cx="86.08" cy="188.03" rx="5.92" ry="6.83" transform="translate(-19.18 10.03) rotate(-6)"/><ellipse id="ellipse2465" class="cls-6" cx="86.34" cy="185.54" rx="6.83" ry="5.92" transform="translate(-116.79 210.32) rotate(-72)"/><ellipse id="ellipse2467" class="cls-5" cx="87.6" cy="183.37" rx="6.83" ry="5.92" transform="translate(-107.28 125.77) rotate(-48)"/><ellipse id="ellipse2469" class="cls-4" cx="89.62" cy="181.89" rx="6.83" ry="5.92" transform="translate(-66.23 52.17) rotate(-24)"/><ellipse id="ellipse2471" class="cls-3" cx="92.06" cy="181.38" rx="6.83" ry="5.92"/></g><g id="g2507"><ellipse id="ellipse2475" class="cls-3" cx="121.06" cy="181.38" rx="6.83" ry="5.92"/><ellipse id="ellipse2477" class="cls-4" cx="123.5" cy="181.9" rx="5.92" ry="6.83" transform="translate(-92.9 220.74) rotate(-66)"/><ellipse id="ellipse2479" class="cls-5" cx="125.52" cy="183.37" rx="5.92" ry="6.83" transform="translate(-90.46 131.09) rotate(-42)"/><ellipse id="ellipse2481" class="cls-6" cx="126.78" cy="185.53" rx="5.92" ry="6.83" transform="translate(-51.13 48.26) rotate(-18)"/><ellipse id="ellipse2483" class="cls-7" cx="127.04" cy="188.02" rx="6.83" ry="5.92" transform="matrix(0.1, -0.99, 0.99, 0.1, -73.23, 294.71)"/><ellipse id="ellipse2485" class="cls-13" cx="126.27" cy="190.4" rx="6.83" ry="5.92" transform="translate(-101.75 204.55) rotate(-60)"/><ellipse id="ellipse2487" class="cls-9" cx="124.59" cy="192.25" rx="6.83" ry="5.92" transform="translate(-89.21 109.95) rotate(-36)"/><ellipse id="ellipse2489" class="cls-10" cx="122.3" cy="193.27" rx="6.83" ry="5.92" transform="translate(-37.51 29.65) rotate(-12)"/><ellipse id="ellipse2491" class="cls-10" cx="119.8" cy="193.28" rx="5.92" ry="6.83" transform="translate(-94.16 270.28) rotate(-78)"/><ellipse id="ellipse2493" class="cls-9" cx="117.52" cy="192.26" rx="5.92" ry="6.83" transform="translate(-107.1 174.33) rotate(-54)"/><ellipse id="ellipse2495" class="cls-12" cx="115.84" cy="190.41" rx="5.92" ry="6.83" transform="translate(-79.68 83.43) rotate(-30)"/><ellipse id="ellipse2499" class="cls-6" cx="115.33" cy="185.54" rx="6.83" ry="5.92" transform="translate(-96.76 237.89) rotate(-72)"/><ellipse id="ellipse2501" class="cls-5" cx="116.59" cy="183.37" rx="6.83" ry="5.92" transform="translate(-97.69 147.31) rotate(-48)"/><ellipse id="ellipse2503" class="cls-4" cx="118.61" cy="181.89" rx="6.83" ry="5.92" transform="translate(-63.73 63.97) rotate(-24)"/><ellipse id="ellipse2505" class="cls-3" cx="121.06" cy="181.38" rx="6.83" ry="5.92"/></g><g id="g2541"><ellipse id="ellipse2509" class="cls-3" cx="150.05" cy="181.38" rx="6.83" ry="5.92"/><ellipse id="ellipse2511" class="cls-4" cx="152.5" cy="181.9" rx="5.92" ry="6.83" transform="translate(-75.7 247.22) rotate(-66)"/><ellipse id="ellipse2513" class="cls-5" cx="154.51" cy="183.37" rx="5.92" ry="6.83" transform="translate(-83.01 150.49) rotate(-42)"/><ellipse id="ellipse2515" class="cls-6" cx="155.76" cy="185.53" rx="5.92" ry="6.83" transform="translate(-49.71 57.21) rotate(-18)"/><ellipse id="ellipse2517" class="cls-7" cx="156.03" cy="188.02" rx="6.83" ry="5.92" transform="translate(-47.27 323.55) rotate(-84)"/><ellipse id="ellipse2519" class="cls-13" cx="155.26" cy="190.4" rx="6.83" ry="5.92" transform="translate(-87.26 229.66) rotate(-60)"/><ellipse id="ellipse2521" class="cls-9" cx="153.58" cy="192.26" rx="6.83" ry="5.92" transform="translate(-83.68 126.99) rotate(-36)"/><ellipse id="ellipse2523" class="cls-10" cx="151.29" cy="193.27" rx="6.83" ry="5.92" transform="translate(-36.88 35.68) rotate(-12)"/><ellipse id="ellipse2525" class="cls-10" cx="148.8" cy="193.28" rx="5.92" ry="6.83" transform="translate(-71.19 298.64) rotate(-78)"/><ellipse id="ellipse2527" class="cls-9" cx="146.5" cy="192.26" rx="5.92" ry="6.83" transform="translate(-95.15 197.78) rotate(-54)"/><ellipse id="ellipse2529" class="cls-12" cx="144.83" cy="190.4" rx="5.92" ry="6.83" transform="translate(-75.79 97.92) rotate(-30)"/><ellipse id="ellipse2531" class="cls-7" cx="144.07" cy="188.02" rx="5.92" ry="6.83" transform="translate(-18.86 16.09) rotate(-6)"/><ellipse id="ellipse2533" class="cls-6" cx="144.32" cy="185.54" rx="6.83" ry="5.92" transform="translate(-76.73 265.46) rotate(-72)"/><ellipse id="ellipse2535" class="cls-5" cx="145.58" cy="183.37" rx="6.83" ry="5.92" transform="translate(-88.1 168.86) rotate(-48)"/><ellipse id="ellipse2537" class="cls-4" cx="147.59" cy="181.9" rx="6.83" ry="5.92" transform="translate(-61.22 75.76) rotate(-24)"/><ellipse id="ellipse2539" class="cls-3" cx="150.05" cy="181.38" rx="6.83" ry="5.92"/></g><g id="g2575"><ellipse id="ellipse2543" class="cls-3" cx="187.59" cy="220.04" rx="6.61" ry="5.6"/><ellipse id="ellipse2545" class="cls-4" cx="189.9" cy="220.53" rx="5.6" ry="6.61" transform="translate(-88.8 304.32) rotate(-66)"/><ellipse id="ellipse2547" class="cls-5" cx="191.82" cy="221.92" rx="5.6" ry="6.61" transform="translate(-99.22 185.36) rotate(-42)"/><ellipse id="ellipse2549" class="cls-16" cx="193.02" cy="223.61" rx="5.59" ry="6.61" transform="translate(-59.85 70.91) rotate(-18.07)"/><ellipse id="ellipse2551" class="cls-7" cx="193.25" cy="226.33" rx="6.61" ry="5.6" transform="translate(-52.04 394.86) rotate(-84)"/><ellipse id="ellipse2553" class="cls-13" cx="192.52" cy="228.57" rx="6.61" ry="5.6" transform="translate(-101.69 281.01) rotate(-60)"/><ellipse id="ellipse2555" class="cls-9" cx="190.93" cy="230.33" rx="6.61" ry="5.6" transform="translate(-98.92 156.22) rotate(-36)"/><ellipse id="ellipse2557" class="cls-10" cx="188.77" cy="231.3" rx="6.61" ry="5.6" transform="translate(-43.96 44.3) rotate(-12)"/><ellipse id="ellipse2559" class="cls-10" cx="186.4" cy="231.3" rx="5.6" ry="6.61" transform="translate(-78.59 365.54) rotate(-78)"/><ellipse id="ellipse2561" class="cls-9" cx="184.24" cy="230.33" rx="5.6" ry="6.61" transform="translate(-110.39 244) rotate(-54)"/><ellipse id="ellipse2563" class="cls-12" cx="182.66" cy="228.58" rx="5.6" ry="6.61" transform="translate(-89.82 121.95) rotate(-30)"/><ellipse id="ellipse2565" class="cls-7" cx="181.93" cy="226.32" rx="5.6" ry="6.61" transform="translate(-22.66 20.26) rotate(-6)"/><ellipse id="ellipse2567" class="cls-6" cx="182.17" cy="223.97" rx="6.61" ry="5.6" transform="translate(-87.13 328.02) rotate(-72)"/><ellipse id="ellipse2569" class="cls-5" cx="183.36" cy="221.92" rx="6.61" ry="5.6" transform="translate(-104.25 209.69) rotate(-48)"/><ellipse id="ellipse2571" class="cls-4" cx="185.27" cy="220.52" rx="6.61" ry="5.6" transform="translate(-73.68 94.42) rotate(-24)"/><ellipse id="ellipse2573" class="cls-3" cx="187.59" cy="220.04" rx="6.61" ry="5.6"/></g><g id="g2609"><ellipse id="ellipse2577" class="cls-3" cx="187.59" cy="249.31" rx="6.61" ry="5.6"/><ellipse id="ellipse2579" class="cls-4" cx="189.9" cy="249.79" rx="5.6" ry="6.61" transform="translate(-115.54 321.67) rotate(-66)"/><ellipse id="ellipse2581" class="cls-5" cx="191.82" cy="251.19" rx="5.6" ry="6.61" transform="translate(-118.81 192.87) rotate(-42)"/><ellipse id="ellipse2583" class="cls-16" cx="193.05" cy="252.84" rx="5.59" ry="6.61" transform="translate(-68.91 72.36) rotate(-18.07)"/><ellipse id="ellipse2585" class="cls-7" cx="193.25" cy="255.59" rx="6.61" ry="5.6" transform="translate(-81.15 421.06) rotate(-84)"/><ellipse id="ellipse2587" class="cls-13" cx="192.52" cy="257.85" rx="6.61" ry="5.6" transform="translate(-127.04 295.65) rotate(-60)"/><ellipse id="ellipse2589" class="cls-9" cx="190.93" cy="259.6" rx="6.61" ry="5.6" transform="translate(-116.12 161.81) rotate(-36)"/><ellipse id="ellipse2591" class="cls-10" cx="188.77" cy="260.56" rx="6.61" ry="5.6" transform="translate(-50.05 44.94) rotate(-12)"/><ellipse id="ellipse2593" class="cls-10" cx="186.41" cy="260.57" rx="5.6" ry="6.61" transform="translate(-107.22 388.73) rotate(-78)"/><ellipse id="ellipse2595" class="cls-9" cx="184.24" cy="259.6" rx="5.6" ry="6.61" transform="translate(-134.08 256.07) rotate(-54)"/><ellipse id="ellipse2597" class="cls-8" cx="184.15" cy="258.96" rx="5.61" ry="6.64" transform="translate(-104.55 126.22) rotate(-29.89)"/><ellipse id="ellipse2599" class="cls-7" cx="181.92" cy="255.59" rx="5.6" ry="6.61" transform="matrix(0.99, -0.1, 0.1, 0.99, -25.72, 20.42)"/><ellipse id="ellipse2601" class="cls-6" cx="182.18" cy="253.25" rx="6.61" ry="5.6" transform="translate(-114.97 348.25) rotate(-72)"/><ellipse id="ellipse2603" class="cls-5" cx="183.36" cy="251.19" rx="6.61" ry="5.6" transform="translate(-126 219.38) rotate(-48)"/><ellipse id="ellipse2607" class="cls-3" cx="187.59" cy="249.31" rx="6.61" ry="5.6"/></g><g id="g2643"><ellipse id="ellipse2611" class="cls-3" cx="187.59" cy="278.58" rx="6.61" ry="5.6"/><ellipse id="ellipse2613" class="cls-4" cx="189.9" cy="279.06" rx="5.6" ry="6.61" transform="translate(-142.27 339.04) rotate(-66)"/><ellipse id="ellipse2615" class="cls-5" cx="191.82" cy="280.46" rx="5.6" ry="6.61" transform="translate(-138.4 200.39) rotate(-42)"/><ellipse id="ellipse2617" class="cls-6" cx="193.01" cy="282.51" rx="5.6" ry="6.61" transform="translate(-77.85 73.47) rotate(-18)"/><ellipse id="ellipse2619" class="cls-7" cx="193.25" cy="284.86" rx="6.61" ry="5.6" transform="translate(-110.25 447.28) rotate(-84)"/><ellipse id="ellipse2621" class="cls-13" cx="192.52" cy="287.11" rx="6.61" ry="5.6" transform="translate(-152.38 310.28) rotate(-60)"/><ellipse id="ellipse2623" class="cls-9" cx="190.94" cy="288.87" rx="6.61" ry="5.6" transform="translate(-133.33 167.4) rotate(-36)"/><ellipse id="ellipse2625" class="cls-10" cx="188.78" cy="289.84" rx="6.61" ry="5.6" transform="translate(-56.14 45.58) rotate(-12)"/><ellipse id="ellipse2627" class="cls-10" cx="186.4" cy="289.84" rx="5.6" ry="6.61" transform="translate(-135.86 411.91) rotate(-78)"/><ellipse id="ellipse2629" class="cls-9" cx="184.24" cy="288.87" rx="5.6" ry="6.61" transform="translate(-157.75 268.13) rotate(-54)"/><ellipse id="ellipse2631" class="cls-12" cx="182.66" cy="287.12" rx="5.6" ry="6.61" transform="translate(-119.09 129.79) rotate(-30)"/><ellipse id="ellipse2633" class="cls-7" cx="181.93" cy="284.86" rx="5.6" ry="6.61" transform="translate(-28.78 20.58) rotate(-6)"/><ellipse id="ellipse2635" class="cls-6" cx="182.17" cy="282.51" rx="6.61" ry="5.6" transform="translate(-142.81 368.47) rotate(-72)"/><ellipse id="ellipse2637" class="cls-5" cx="183.36" cy="280.46" rx="6.61" ry="5.6" transform="translate(-147.75 229.06) rotate(-48)"/><ellipse id="ellipse2639" class="cls-4" cx="185.28" cy="279.07" rx="6.61" ry="5.6" transform="translate(-97.49 99.49) rotate(-24)"/><ellipse id="ellipse2641" class="cls-3" cx="187.59" cy="278.58" rx="6.61" ry="5.6"/></g><g id="g2677"><ellipse id="ellipse2645" class="cls-3" cx="187.59" cy="84.77" rx="6.61" ry="5.6"/><ellipse id="ellipse2647" class="cls-4" cx="189.9" cy="85.27" rx="5.6" ry="6.61" transform="translate(34.77 224.07) rotate(-66)"/><ellipse id="ellipse2649" class="cls-5" cx="191.82" cy="86.66" rx="5.6" ry="6.61" transform="translate(-8.72 150.61) rotate(-42)"/><ellipse id="ellipse2651" class="cls-6" cx="193" cy="88.71" rx="5.6" ry="6.61" transform="translate(-17.97 63.98) rotate(-18)"/><ellipse id="ellipse2653" class="cls-7" cx="193.25" cy="91.06" rx="6.61" ry="5.6" transform="translate(82.49 273.73) rotate(-84)"/><ellipse id="ellipse2655" class="cls-13" cx="192.51" cy="93.32" rx="6.61" ry="5.6" transform="translate(15.44 213.38) rotate(-60)"/><ellipse id="ellipse2657" class="cls-9" cx="190.94" cy="95.07" rx="6.61" ry="5.6" transform="translate(-19.42 130.39) rotate(-36)"/><ellipse id="ellipse2659" class="cls-10" cx="188.77" cy="96.03" rx="6.61" ry="5.6" transform="translate(-15.84 41.35) rotate(-12)"/><ellipse id="ellipse2661" class="cls-10" cx="186.41" cy="96.04" rx="5.6" ry="6.61" transform="translate(53.72 258.41) rotate(-78)"/><ellipse id="ellipse2663" class="cls-9" cx="184.24" cy="95.07" rx="5.6" ry="6.61" transform="matrix(0.59, -0.81, 0.81, 0.59, -0.97, 188.25)"/><ellipse id="ellipse2665" class="cls-12" cx="182.66" cy="93.32" rx="5.6" ry="6.61" transform="translate(-22.19 103.83) rotate(-30)"/><ellipse id="ellipse2667" class="cls-7" cx="181.93" cy="91.06" rx="5.6" ry="6.61" transform="translate(-8.52 19.52) rotate(-6)"/><ellipse id="ellipse2669" class="cls-6" cx="182.17" cy="88.71" rx="6.61" ry="5.6" transform="translate(41.51 234.55) rotate(-72)"/><ellipse id="ellipse2671" class="cls-5" cx="183.35" cy="86.65" rx="6.61" ry="5.6" transform="translate(-3.73 164.93) rotate(-48)"/><ellipse id="ellipse2673" class="cls-4" cx="185.28" cy="85.27" rx="6.61" ry="5.6" transform="translate(-18.66 82.73) rotate(-24)"/><ellipse id="ellipse2675" class="cls-3" cx="187.59" cy="84.77" rx="6.61" ry="5.6"/></g><g id="g2711"><ellipse id="ellipse2679" class="cls-3" cx="187.59" cy="114.04" rx="6.61" ry="5.6"/><ellipse id="ellipse2681" class="cls-4" cx="189.91" cy="114.54" rx="5.6" ry="6.61" transform="translate(8.03 241.44) rotate(-66)"/><ellipse id="ellipse2683" class="cls-5" cx="191.82" cy="115.93" rx="5.6" ry="6.61" transform="translate(-28.3 158.13) rotate(-42)"/><ellipse id="ellipse2685" class="cls-6" cx="193" cy="117.98" rx="5.6" ry="6.61" transform="translate(-27.01 65.41) rotate(-18)"/><ellipse id="ellipse2687" class="cls-7" cx="193.25" cy="120.33" rx="6.61" ry="5.6" transform="translate(53.38 299.95) rotate(-84)"/><ellipse id="ellipse2689" class="cls-13" cx="192.53" cy="122.58" rx="6.61" ry="5.6" transform="translate(-9.9 228.02) rotate(-60)"/><ellipse id="ellipse2691" class="cls-9" cx="190.93" cy="124.34" rx="6.61" ry="5.6" transform="translate(-36.62 135.97) rotate(-36)"/><ellipse id="ellipse2693" class="cls-10" cx="188.77" cy="125.3" rx="6.61" ry="5.6" transform="translate(-21.93 41.99) rotate(-12)"/><ellipse id="ellipse2695" class="cls-11" cx="186.9" cy="125.22" rx="5.61" ry="6.63" transform="translate(25.3 281.73) rotate(-77.91)"/><ellipse id="ellipse2697" class="cls-9" cx="184.24" cy="124.34" rx="5.6" ry="6.61" transform="translate(-24.65 200.31) rotate(-54)"/><ellipse id="ellipse2699" class="cls-12" cx="182.66" cy="122.58" rx="5.6" ry="6.61" transform="translate(-36.82 107.75) rotate(-30)"/><ellipse id="ellipse2701" class="cls-7" cx="181.93" cy="120.33" rx="5.6" ry="6.61" transform="translate(-11.58 19.68) rotate(-6)"/><ellipse id="ellipse2703" class="cls-6" cx="182.18" cy="117.97" rx="6.61" ry="5.6" transform="translate(13.68 254.78) rotate(-72)"/><ellipse id="ellipse2705" class="cls-5" cx="183.36" cy="115.93" rx="6.61" ry="5.6" transform="translate(-25.48 174.62) rotate(-48)"/><ellipse id="ellipse2707" class="cls-4" cx="185.27" cy="114.53" rx="6.61" ry="5.6" transform="translate(-30.57 85.26) rotate(-24)"/><ellipse id="ellipse2709" class="cls-3" cx="187.59" cy="114.04" rx="6.61" ry="5.6"/></g><g id="g2745"><ellipse id="ellipse2713" class="cls-3" cx="187.59" cy="143.31" rx="6.61" ry="5.6"/><ellipse id="ellipse2715" class="cls-4" cx="189.9" cy="143.8" rx="5.6" ry="6.61" transform="translate(-18.71 258.8) rotate(-66)"/><ellipse id="ellipse2717" class="cls-5" cx="191.81" cy="145.19" rx="5.6" ry="6.61" transform="translate(-47.88 165.64) rotate(-42)"/><ellipse id="ellipse2719" class="cls-6" cx="193" cy="147.25" rx="5.6" ry="6.61" transform="translate(-36.06 66.85) rotate(-18)"/><ellipse id="ellipse2721" class="cls-7" cx="193.25" cy="149.6" rx="6.61" ry="5.6" transform="translate(24.27 326.15) rotate(-84)"/><ellipse id="ellipse2723" class="cls-13" cx="192.53" cy="151.85" rx="6.61" ry="5.6" transform="translate(-35.25 242.66) rotate(-60)"/><ellipse id="ellipse2725" class="cls-9" cx="190.94" cy="153.61" rx="6.61" ry="5.6" transform="translate(-53.82 141.57) rotate(-36)"/><ellipse id="ellipse2727" class="cls-10" cx="188.77" cy="154.57" rx="6.61" ry="5.6" transform="translate(-28.01 42.63) rotate(-12)"/><ellipse id="ellipse2729" class="cls-10" cx="186.4" cy="154.57" rx="5.6" ry="6.61" transform="translate(-3.54 304.76) rotate(-78)"/><ellipse id="ellipse2731" class="cls-9" cx="184.25" cy="153.61" rx="5.6" ry="6.61" transform="translate(-48.32 212.38) rotate(-54)"/><ellipse id="ellipse2733" class="cls-12" cx="182.66" cy="151.85" rx="5.6" ry="6.61" transform="translate(-51.45 111.67) rotate(-30)"/><ellipse id="ellipse2735" class="cls-7" cx="181.92" cy="149.6" rx="5.6" ry="6.61" transform="translate(-14.64 19.84) rotate(-6)"/><ellipse id="ellipse2737" class="cls-6" cx="182.17" cy="147.25" rx="6.61" ry="5.6" transform="translate(-14.16 275) rotate(-72)"/><ellipse id="ellipse2739" class="cls-5" cx="183.36" cy="145.19" rx="6.61" ry="5.6" transform="translate(-47.23 184.3) rotate(-48)"/><ellipse id="ellipse2741" class="cls-4" cx="185.27" cy="143.81" rx="6.61" ry="5.6" transform="translate(-42.47 87.79) rotate(-24)"/><ellipse id="ellipse2743" class="cls-3" cx="187.59" cy="143.31" rx="6.61" ry="5.6"/></g></svg>