<svg id="Layer_1" data-name="Layer 1" xmlns="http://www.w3.org/2000/svg" viewBox="0 0 512 512"><defs><style>.cls-1{fill:#ffbfdc;}.cls-10,.cls-2{fill:#ffd2fc;}.cls-2{opacity:0.74;}.cls-2,.cls-3,.cls-6{isolation:isolate;}.cls-3{fill:#ff1578;opacity:0.67;}.cls-4{fill:#ec368d;}.cls-5{fill:#150001;}.cls-6{fill:#fff;stroke:#f5ef99;stroke-miterlimit:37.8;stroke-width:0.39px;opacity:0.3;}.cls-7{fill:#e980fc;}.cls-8{fill:#df5f95;}.cls-9{fill:#ffaaf1;}.cls-11{fill:#ff6aa9;}.cls-12{fill:#ffc3ef;}.cls-13{fill:#b96ac9;}.cls-14{fill:#ff8ae6;}.cls-15{fill:#ff8ab1;}.cls-16{fill:#ff5ffc;}.cls-17{fill:#ff8acb;}.cls-18{fill:#ff6ae7;}.cls-19{fill:#ec36c9;}.cls-20{fill:#ff3fa6;}.cls-21{fill:#88008a;}.cls-22{fill:#ff6ac6;}.cls-23{fill:#db1381;}.cls-24{fill:#e90055;}</style></defs><path class="cls-1" d="M494.33,273c-17.95-55.72-5.07-118.22-28.69-165.2S243,40.52,189.73,128.63c0,0-6.13,68.59-48.26,147.77-25,46.9,34.2,75.48,93.37,101.72l90.57-83.39c3.46.3,41.79-26,41.79-26L254.73,386.93c33.43,14.92,63.74,29.66,74.88,47.27C362.3,485.86,512.27,328.67,494.33,273Z"/><path id="path315" class="cls-2" d="M182.56,194.44S200.79,100.74,288.8,114s135.55,61.12,51.59,109-128.47,40.76-157.83-28.52Z"/><path id="path317" class="cls-3" d="M161.89,365.85c56.68-48.94,119.06-84.34,180.25-58.76S414,282.2,420.6,233.82s152.31,81.57,45.23,127.88-134.33,23.5-137.65-5.53S161.89,365.85,161.89,365.85Z"/><g id="legs"><path id="path323" class="cls-4" d="M259.13,304.57s4.32,29,2.14,35.52-5.81,19.22-5.81,19.22c1.79-1.74,3.48-4,5.5-5.5,1-.73,1.22-1.4,2.86-2.36.78,0,1.7-.16,2.21.35a30.88,30.88,0,0,1,3.41,4.24,12.59,12.59,0,0,1,2.23,5.65v.06a7.61,7.61,0,0,1-1,4.69s4.35,1.53,3.87-8.38c.36.51.7,1,1,1.57.59.87.52,2.6.81,3.61,0-.1.59-1,.62-1.09s.11-.36.15-.54c.09-.36.17-.72.24-1.07.16-.74.28-1.47.39-2.21a13,13,0,0,0,.2-2c0-1.09-.41-1,.76-.19a6.2,6.2,0,0,1,1.57,3.93,15.3,15.3,0,0,0,.2-5.53A41.16,41.16,0,0,0,276.07,342a52.92,52.92,0,0,1-6.27-27.12,59.26,59.26,0,0,1,1.45-11.71S259.59,305,259.13,304.57Z"/><path id="path325" class="cls-4" d="M286.25,300.22s2.08,19.7,2.08,20.91-5.28,10.3-5.66,12.25c0,0,7.4-2.82,8.65-1.57s7.49,4.55,3.14,14.14c0,0,7.43-1.94,7.43-4.36a15.42,15.42,0,0,1-.36,2.79S307,341,305.68,338a4.48,4.48,0,0,1,1.35,2.49,7.05,7.05,0,0,0,0-9.42c-4.12-5.09-4.17-2.58-7.15-6.93s-3-26.66-3-26.66-9.73,2.78-10.64,2.78Z"/></g><path id="path328" class="cls-4" d="M489,119.69a157.12,157.12,0,0,0-35.86,36.24c-26.85,38.35-47.35,82.9-87,110.17-18.57,12.79-39.37,22-60.81,28.84-22.39,7.1-46.33,11.92-69.89,9.3a326.37,326.37,0,0,1-34-5.74L19.74,396.23,30.94,387,7,397.88,180.42,261.75l21.7-23.46s99.37-98.19,129.88-100,41.54-20.36,41.54-20.36a32.59,32.59,0,0,1,5.78-4.82h0c.27-.07,4.79-1.21,11.27-2.37,0,0,47.13,14,65.28,8.44h0C476.44,123.67,489,119.69,489,119.69Z"/><circle id="circle330" class="cls-5" cx="417.62" cy="132.07" r="7.9"/><ellipse id="ellipse332" class="cls-6" cx="420.38" cy="132.47" rx="2.64" ry="2.38"/><ellipse id="ellipse334" class="cls-6" cx="420.67" cy="127.41" rx="0.98" ry="0.71"/><path id="path336" class="cls-7" d="M346,190.59a96.61,96.61,0,0,1-17.2,9.51c-12.24,5-20.09,3.68-25.13.18-8.05-5.6-8.87-16.77-8.87-16.77,7.18,1.42,19.2,2.93,29.64.35.24.29,7.1,8.16,19.71,4.11a15.32,15.32,0,0,0,1.85,2.62Z"/><path id="path338" class="cls-8" d="M293.22,215.44c-4.47,4.12-8.76,5.53-12.66,5.38a16.27,16.27,0,0,1-6-1.49c-7.71-3.47-12.82-11.79-12.82-11.79,3-.68,6.31-2.47,9.81-6a32.39,32.39,0,0,0,9.83,2.49A34.59,34.59,0,0,0,293.22,215.44Z"/><path id="path340" class="cls-9" d="M274.54,219.33a76.42,76.42,0,0,1-19.64,10.23c-6.36,2.06-11.63,2.37-16,1.65h0a23.42,23.42,0,0,1-17.2-12.54c4.59-1.17,10.33-5.1,17.33-14a24.8,24.8,0,0,0,8.59-1.71c.22.25,5.93,6.45,14.06,4.59,0,0,5.11,8.32,12.82,11.79Z"/><path id="path342" class="cls-10" d="M271.53,201.49c-3.5,3.58-6.82,5.36-9.81,6-8.13,1.86-13.84-4.34-14.06-4.59a48.2,48.2,0,0,0,13.73-8.46,31.94,31.94,0,0,0,10.14,7Z"/><path id="path344" class="cls-11" d="M286.8,233c-27.94,9.32-31.9-3.46-31.9-3.46,5.68-1.83,12.17-5.06,19.64-10.23a16.34,16.34,0,0,0,6,1.47A15.85,15.85,0,0,0,286.8,233Z"/><path id="path346" class="cls-12" d="M363.59,144.39c-39.16,14.52-53.78-3.75-54.08-4.13,1-.23,2-.45,3-.66,11.66-2.4,25.26-5.68,36.93-1.76a66.19,66.19,0,0,1,14.13,6.55Z"/><path id="path348" class="cls-13" d="M255.87,257.41a259.39,259.39,0,0,1-36.43,4.42,37.36,37.36,0,0,1-18-4.14h0a28.39,28.39,0,0,1-7.4-5.37c6.83.77,15.41-.71,24.52-8.29a13.74,13.74,0,0,0,8.28,4.59c0,.25-.29,9.13,29,8.79Z"/><path id="path350" class="cls-14" d="M158.41,271.65c4-6,8.19-12.23,13.48-17.16.33-.31,8.52,2.84,9.31,3a47.42,47.42,0,0,0,19.09.57,5.25,5.25,0,0,1,1.53-.08,5.61,5.61,0,0,1,1.44.51,37.12,37.12,0,0,0,16.18,3.29"/><path id="path352" class="cls-15" d="M201.49,257.69c-12.88,4.26-29.59-3.2-29.59-3.2a65.9,65.9,0,0,0,7.15-8.24,30.81,30.81,0,0,0,15,6.06h0A28.21,28.21,0,0,0,201.49,257.69Z"/><path id="path354" class="cls-13" d="M228.56,226.8c-25.57,19.7-36.79,2-36.79,2,4.11-5.53,9-11.87,15-19.07,0,0,4.53,11.54,14.93,8.88A23.05,23.05,0,0,0,228.56,226.8Z"/><path id="path356" class="cls-10" d="M239.07,204.66c-7,8.9-12.74,12.83-17.33,14-10.41,2.66-14.93-8.88-14.93-8.88,4.13-4.93,8.8-10.28,14.12-16.05,0,0,5.76,11,18.14,10.93Z"/><path id="path358" class="cls-13" d="M322.44,233.19c-4,2.25-8,4.33-11.93,6.22a230.67,230.67,0,0,1-21.78,9l-2.08.74h-.06c-22.76,6.87-35,.47-41.29-6.51a28.2,28.2,0,0,1-6.36-11.4,34,34,0,0,0,16-1.64s4,12.78,31.9,3.45h0c5.54,4.14,16,6.32,35.64.17Z"/><path id="path360" class="cls-10" d="M286.59,249.14a222.23,222.23,0,0,1-30.7,8.27h0c-29.32.34-29-8.52-29-8.79A13.77,13.77,0,0,1,218.6,244c-9.11,7.58-17.69,9.06-24.51,8.29h0A30.83,30.83,0,0,1,179,246.25c3.49-4.58,7.49-10.34,12.74-17.4,0,0,11.24,17.66,36.8-2A23,23,0,0,0,239,231.21h0a28.35,28.35,0,0,0,6.36,11.42c6.32,7,18.52,13.37,41.28,6.51Z"/><path id="path362" class="cls-16" d="M344.2,218.87a182.15,182.15,0,0,1-21.75,14.32h0c-19.67,6.15-30.11,4-35.64-.18h0a15.81,15.81,0,0,1-6.25-12.21c3.91.15,8.2-1.26,12.67-5.38,6.77,3.91,16.47,6.15,29.17,1.11C326.37,220.65,333.05,223.11,344.2,218.87Z"/><path id="path364" class="cls-17" d="M363.62,200.74a132.2,132.2,0,0,1-19.41,18.13c-11.16,4.24-17.84,1.78-21.82-2.32-12.69,5.06-22.39,2.8-29.16-1.11A34.71,34.71,0,0,1,281.36,204c6.16.59,13.53-.32,22.34-3.7,5,3.5,12.89,4.82,25.13-.18.26.37,13.13,17.2,34.79.64Z"/><path id="path366" class="cls-18" d="M273.64,181c-7.94,3.4-14.16,4.19-19,3.64-11.24-1.28-14.88-9.87-14.88-9.87q5.11-4.46,10.62-8.42h0l0,0,0,.05.13.13a.52.52,0,0,1,.1.11l.25.25.13.12.67.64.32.3.68.62.31.28c.8.71,1.76,1.53,2.84,2.4l.36.28.85.66.34.25.38.28.41.3.43.31c1.51,1.08,3.2,2.19,5,3.24l.87.47c.55.31,1.11.6,1.68.89.28.15.57.3.87.43l.56.27.65.3.84.37c.26.12.53.22.79.33s.41.17.62.24l.6.24.6.21.6.22.72.23Z"/><path id="path368" class="cls-10" d="M303.69,200.28c-8.8,3.38-16.19,4.29-22.33,3.7a32.39,32.39,0,0,1-9.83-2.49,32.06,32.06,0,0,1-10.14-7,33,33,0,0,1-6.74-9.81c4.83.55,11-.24,19-3.64l.09,0,.95.27.66.17.72.17c.24.06.35.09.53.12l.79.16.64.12c.25,0,.48.09.75.12s.8.11,1.2.15l.4,0,.51.05.39,0c.53,0,1.05,0,1.58.06h.64c.71,0,1.42,0,2.13-.1s1.42-.15,2.1-.27l.72-.13s2.47.72,6.39,1.49c0,0,.83,11.17,8.86,16.77Z"/><path id="path370" class="cls-13" d="M261.39,194.48a48,48,0,0,1-13.73,8.46,24.76,24.76,0,0,1-8.59,1.72c-12.38.11-18.14-10.93-18.14-10.93q4.83-5.23,10.39-10.94,2.49-2.55,5.08-4.95,1.66-1.54,3.37-3s3.64,8.59,14.88,9.87A33.13,33.13,0,0,0,261.39,194.48Z"/><path id="path372" class="cls-19" d="M309.16,167.14c-6.55,9.2-13.73,13.52-20.72,14.88l-.73.13q-1.05.18-2.1.27c-.71.06-1.42.09-2.13.1h-.63c-.53,0-1.06,0-1.58-.06l-.4,0-.5-.05-.4,0c-.4,0-.81-.09-1.21-.15-.25,0-.47-.08-.74-.12l-.64-.12-.79-.16a5.23,5.23,0,0,1-.54-.12l-.71-.17-.67-.17-.94-.27-.09,0-.51-.16-.72-.23-.6-.21-.61-.22-.59-.23-.62-.25c-.21-.08-.53-.21-.79-.33l-.84-.36-.65-.3-.56-.27-.88-.44c-.56-.28-1.12-.58-1.67-.88l-.87-.48c-1.82-1-3.51-2.16-5-3.24l-.43-.3-.41-.31-.38-.28-.34-.25-.85-.66-.36-.27c-1.1-.88-2.07-1.7-2.84-2.41l-.31-.28c-.25-.21-.47-.43-.68-.61l-.32-.31c-.26-.24-.48-.47-.67-.63A.8.8,0,0,0,251,167l-.25-.25-.1-.11-.13-.12,0-.06,0,0h0a152.49,152.49,0,0,1,13.26-8.53s17.11,14.81,45.48,9.25Z"/><path id="path374" class="cls-4" d="M334.69,157.35a85,85,0,0,1-25.53,9.78c-28.37,5.56-45.52-9.27-45.52-9.27q6-3.42,12.23-6.3c2.3-1.06,4.62-2.07,7-3h0c.38.3,20.19,15.09,46.84,5.45a26.36,26.36,0,0,0,5,3.36Z"/><path id="path376" class="cls-20" d="M379.05,169.3c-.16,6.44-2.51,12.74-5.83,18.3-14.68,13.63-23.57,7.19-27.18,3a15.32,15.32,0,0,1-1.85-2.62c-12.6,4.05-19.47-3.82-19.71-4.11-10.42,2.58-22.46,1-29.64-.35-3.91-.77-6.38-1.49-6.38-1.49,7-1.36,14.16-5.68,20.72-14.88a85.13,85.13,0,0,0,25.53-9.78c.94.51,2,1,3.21,1.54,0,0-9.62,13.42,14.5,14.16s26.63-3.76,26.63-3.76Z"/><path id="path378" class="cls-21" d="M373.2,187.6a94.35,94.35,0,0,1-9.58,13.14c-21.66,16.58-34.53-.27-34.8-.64a96.61,96.61,0,0,0,17.2-9.51c3.61,4.2,12.51,10.64,27.18-3Z"/><path id="path380" class="cls-22" d="M379.05,169.3s-2.5,4.5-26.63,3.76-14.5-14.16-14.5-14.16c7.81,3.31,20.94,5.82,38.35-1.73a23.8,23.8,0,0,1,2.78,10.6Z"/><path id="path382" class="cls-10" d="M376.24,157.17c-17.39,7.55-30.53,5-38.35,1.73-1.2-.51-2.27-1-3.21-1.54a26.68,26.68,0,0,1-5-3.36,51.66,51.66,0,0,1-46.84-5.45,170.36,170.36,0,0,1,26.66-8.29c.3.38,14.92,18.65,54.09,4.13C368.85,147.7,373.46,151.91,376.24,157.17Z"/><path id="path387" d="M452.6,132.47s33.85-12.31,36.39-12.79C489,119.69,474.93,126.48,452.6,132.47Z"/><path id="path389" class="cls-23" d="M401.22,204.56s-66,80.16-167.19,84.5c0,0,101.55,3.26,167.19-84.5Z"/><path id="path391" class="cls-24" d="M432,110.91c-11.21-4.39-29.58-2.31-41.4-.22-6.49,1.15-11,2.29-11.28,2.37,8.21-5.58,25-12.86,49.58-3.63,1,.51,2.08,1,3.1,1.48Z"/><path id="path385" class="cls-23" d="M395.78,191.14s-45.69,65.28-103.36,72.91c0,0,65.28-8.36,103.36-72.91Z"/><path id="path393" class="cls-23" d="M435.86,182.54s-111.79,128.61-195,122.16C240.85,304.7,360.64,323.41,435.86,182.54Z"/><path id="path395" class="cls-23" d="M174.56,289.78,92.23,344.91S172.14,293.57,174.56,289.78Z"/><path id="path397" class="cls-23" d="M382.49,136.09l26.1-1.94s-7.73,2.9-9.18,4.35,10.8.32,10.8.32l-5,3.87s10.48.16,15.16-1.29,17.39-5.14,17.39-5.14l-9.82,5,14-.95-14,6h9a51.84,51.84,0,0,1-27.73,6c-15.79-1.14-18.69-6.77-25-6.77,0,0,7.86-1.57,9-2,0,0-2.62-2.3-7.85-2.3s-8.43-4.52-8.43-4.52Z"/><path id="path399" class="cls-23" d="M455.89,119.13a26.45,26.45,0,0,1-3.05.71c-1.14.19-2.29.33-3.44.42s-2.52.14-3.79.16-2.71,0-4.06-.07-2.85-.15-4.26-.27-3-.27-4.42-.44-3-.38-4.51-.6-3-.47-4.54-.7-3-.52-4.49-.8-2.92-.56-4.38-.86-2.82-.59-4.22-.9-2.66-.59-4-.9l-3.69-.89-3.31-.83c-1-.25-1.95-.47-2.92-.75l-2.42-.66c-.95-.26-1.89-.5-2.84-.74a5.05,5.05,0,0,1-.56-.12c-.25-.1,0-.23.12-.27a4.27,4.27,0,0,1,.71-.15l1.25-.2c.86-.15,1.74-.28,2.6-.41q2.77-.4,5.57-.73t5.86-.54c2-.14,4-.23,6-.26s3.93,0,5.9.1a55.22,55.22,0,0,1,5.61.57,39.38,39.38,0,0,1,5.15,1.12c.76.23,1.52.48,2.26.78s1.48.68,2.22,1a113.75,113.75,0,0,0,21.65,7.23Z"/><polygon id="polygon401" class="cls-23" points="7 397.86 169.87 270.19 30.94 386.98 7 397.86"/><polygon id="polygon403" class="cls-23" points="129.83 333.31 201.39 298.49 19.74 396.23 129.83 333.31"/></svg>