<?xml version="1.0" encoding="UTF-8" standalone="no"?>
<svg
   xmlns:dc="http://purl.org/dc/elements/1.1/"
   xmlns:cc="http://creativecommons.org/ns#"
   xmlns:rdf="http://www.w3.org/1999/02/22-rdf-syntax-ns#"
   xmlns:svg="http://www.w3.org/2000/svg"
   xmlns="http://www.w3.org/2000/svg"
   xmlns:sodipodi="http://sodipodi.sourceforge.net/DTD/sodipodi-0.dtd"
   xmlns:inkscape="http://www.inkscape.org/namespaces/inkscape"
   width="900"
   height="900"
   viewBox="0 0 238.12499 238.12501"
   version="1.1"
   id="svg8"
   inkscape:version="1.0.2 (1.0.2+r75+1)"
   sodipodi:docname="wasp2.svg">
  <defs
     id="defs2" />
  <sodipodi:namedview
     id="base"
     pagecolor="#ffe6e6"
     bordercolor="#666666"
     borderopacity="1.0"
     inkscape:pageopacity="0"
     inkscape:pageshadow="2"
     inkscape:zoom="0.7"
     inkscape:cx="421.8472"
     inkscape:cy="404.3225"
     inkscape:document-units="px"
     inkscape:current-layer="layer2"
     inkscape:document-rotation="0"
     showgrid="false"
     units="px"
     inkscape:showpageshadow="false"
     showborder="true"
     inkscape:pagecheckerboard="false"
     inkscape:window-width="1920"
     inkscape:window-height="1021"
     inkscape:window-x="0"
     inkscape:window-y="27"
     inkscape:window-maximized="1"
     inkscape:object-paths="false"
     inkscape:snap-smooth-nodes="false"
     inkscape:snap-midpoints="false"
     inkscape:snap-center="false"
     inkscape:snap-text-baseline="false" />
  <metadata
     id="metadata5">
    <rdf:RDF>
      <cc:Work
         rdf:about="">
        <dc:format>image/svg+xml</dc:format>
        <dc:type
           rdf:resource="http://purl.org/dc/dcmitype/StillImage" />
        <dc:title></dc:title>
      </cc:Work>
    </rdf:RDF>
  </metadata>
  <g
     inkscape:groupmode="layer"
     id="layer2"
     inkscape:label="background"
     style="display:inline">
    <rect
       style="fill:#ada2e2;fill-opacity:1;stroke:#2a40a5;stroke-width:6.66591;stroke-linejoin:round;stroke-miterlimit:4;stroke-dasharray:none;stroke-opacity:1;paint-order:stroke fill markers"
       id="rect1089"
       width="238.125"
       height="238.125"
       x="-2.0594636e-13"
       y="-2.1316282e-13" />
  </g>
  <g
     inkscape:label="Layer 1"
     inkscape:groupmode="layer"
     id="layer1">
    <rect
       style="fill:none;fill-opacity:1;stroke:#4d5ddb;stroke-width:1.34673;stroke-miterlimit:4;stroke-dasharray:none;stroke-opacity:1"
       id="rect918"
       width="238.125"
       height="238.125"
       x="-2.0594637e-13"
       y="-2.1316282e-13" />
    <g
       aria-label="wasp"
       id="text922"
       style="font-style:normal;font-variant:normal;font-weight:normal;font-stretch:normal;font-size:53.4072px;line-height:1.25;font-family:'URW Gothic';-inkscape-font-specification:'URW Gothic, Normal';font-variant-ligatures:normal;font-variant-caps:normal;font-variant-numeric:normal;font-variant-east-asian:normal;fill:#4d5ddb;fill-opacity:1;stroke:#2a40a5;stroke-width:5.54196;stroke-linejoin:round;stroke-miterlimit:4;stroke-dasharray:none;stroke-opacity:1;paint-order:stroke fill markers"
       transform="translate(-6.2685013e-5,18.918301)">
      <path
         d="m 62.103895,116.44062 h 4.272576 l 6.30205,-19.386813 6.355456,19.386813 h 4.219169 L 94.575472,87.226882 H 90.730154 L 81.223672,111.68738 74.334144,90.805164 H 71.076305 L 64.186776,111.68738 54.893923,87.226882 H 50.94179 Z"
         style="font-style:normal;font-variant:normal;font-weight:normal;font-stretch:normal;font-size:53.4072px;font-family:'URW Gothic';-inkscape-font-specification:'URW Gothic, Normal';font-variant-ligatures:normal;font-variant-caps:normal;font-variant-numeric:normal;font-variant-east-asian:normal;fill:#4d5ddb;fill-opacity:1;stroke:#2a40a5;stroke-width:5.54196;stroke-linejoin:round;stroke-miterlimit:4;stroke-dasharray:none;stroke-opacity:1;paint-order:stroke fill markers"
         id="path924" />
      <path
         d="m 127.10034,87.226882 h -3.95213 v 5.180498 c -2.9374,-4.058947 -6.46227,-5.874791 -11.53596,-5.874791 -8.75878,0 -15.381271,6.622492 -15.381271,15.381271 0,8.75878 6.675901,15.22105 15.701721,15.22105 4.96687,0 8.06448,-1.60221 11.21551,-5.82138 v 5.12709 h 3.95213 z m -15.38127,2.937396 c 6.46227,0 11.42914,5.020277 11.42914,11.535952 0,6.6759 -4.91346,11.80299 -11.21551,11.80299 -6.6225,0 -11.69618,-5.18049 -11.69618,-11.85639 0,-6.355461 5.12709,-11.482552 11.48255,-11.482552 z"
         style="font-style:normal;font-variant:normal;font-weight:normal;font-stretch:normal;font-size:53.4072px;font-family:'URW Gothic';-inkscape-font-specification:'URW Gothic, Normal';font-variant-ligatures:normal;font-variant-caps:normal;font-variant-numeric:normal;font-variant-east-asian:normal;fill:#4d5ddb;fill-opacity:1;stroke:#2a40a5;stroke-width:5.54196;stroke-linejoin:round;stroke-miterlimit:4;stroke-dasharray:none;stroke-opacity:1;paint-order:stroke fill markers"
         id="path926" />
      <path
         d="m 132.44094,107.84206 c 0.0534,5.66116 3.7385,9.29285 9.39966,9.29285 5.28732,0 8.91901,-3.7385 8.91901,-9.07922 0,-3.57828 -1.65563,-6.03501 -5.07369,-7.47701 -4.4862,-1.86925 -4.69983,-1.922657 -5.50094,-2.349915 -1.81584,-0.907922 -2.67036,-2.136288 -2.67036,-3.845318 0,-2.349917 1.86925,-4.219169 4.21917,-4.219169 2.56354,0 4.05895,1.495402 4.27257,4.272576 h 4.00554 c -0.16022,-4.699834 -3.52487,-7.904265 -8.2247,-7.904265 -4.75324,0 -8.27812,3.471467 -8.27812,8.224708 0,2.136288 0.7477,3.898726 2.1897,5.233906 1.22836,1.121547 1.28177,1.174957 5.39412,2.830577 4.53961,1.86926 5.66117,2.9374 5.66117,5.60776 0,2.9374 -2.02948,5.07368 -4.91347,5.07368 -3.31124,0 -5.28731,-2.02947 -5.50094,-5.66116 z"
         style="font-style:normal;font-variant:normal;font-weight:normal;font-stretch:normal;font-size:53.4072px;font-family:'URW Gothic';-inkscape-font-specification:'URW Gothic, Normal';font-variant-ligatures:normal;font-variant-caps:normal;font-variant-numeric:normal;font-variant-east-asian:normal;fill:#4d5ddb;fill-opacity:1;stroke:#2a40a5;stroke-width:5.54196;stroke-linejoin:round;stroke-miterlimit:4;stroke-dasharray:none;stroke-opacity:1;paint-order:stroke fill markers"
         id="path928" />
      <path
         d="M 156.36726,87.226882 V 126.6948 h 3.95213 v -15.27446 c 2.56354,3.73851 6.51568,5.71457 11.37573,5.71457 8.75878,0 15.48809,-6.6759 15.48809,-15.22105 0,-8.758779 -6.6759,-15.381271 -15.38127,-15.381271 -5.02028,0 -8.97241,1.976066 -11.48255,5.71457 v -5.020277 z m 15.27445,2.937396 c 6.6225,0 11.53596,5.020277 11.53596,11.749582 0,6.56909 -4.96687,11.58936 -11.48255,11.58936 -6.6759,0 -11.64277,-5.02027 -11.64277,-11.80299 0,-6.462268 5.07369,-11.535952 11.58936,-11.535952 z"
         style="font-style:normal;font-variant:normal;font-weight:normal;font-stretch:normal;font-size:53.4072px;font-family:'URW Gothic';-inkscape-font-specification:'URW Gothic, Normal';font-variant-ligatures:normal;font-variant-caps:normal;font-variant-numeric:normal;font-variant-east-asian:normal;fill:#4d5ddb;fill-opacity:1;stroke:#2a40a5;stroke-width:5.54196;stroke-linejoin:round;stroke-miterlimit:4;stroke-dasharray:none;stroke-opacity:1;paint-order:stroke fill markers"
         id="path930" />
    </g>
    <rect
       style="fill:#2a40a5;fill-opacity:1;stroke:#4d5ddb;stroke-width:1.92273;stroke-linejoin:round;stroke-miterlimit:4;stroke-dasharray:none;stroke-opacity:1;paint-order:stroke fill markers"
       id="rect933"
       width="24.782829"
       height="24.782829"
       x="19.931179"
       y="197.92729" />
    <rect
       style="fill:#2a40a5;fill-opacity:0.89999998;stroke:#4d5ddb;stroke-width:1.92273;stroke-linejoin:round;stroke-miterlimit:4;stroke-dasharray:none;stroke-opacity:1;paint-order:stroke fill markers"
       id="rect935"
       width="24.782829"
       height="24.782829"
       x="44.714008"
       y="197.92729" />
    <rect
       style="fill:#2a40a5;fill-opacity:0.80000001;stroke:#4d5ddb;stroke-width:1.92273;stroke-linejoin:round;stroke-miterlimit:4;stroke-dasharray:none;stroke-opacity:1;paint-order:stroke fill markers"
       id="rect937"
       width="24.782829"
       height="24.782829"
       x="69.496834"
       y="197.92729" />
    <rect
       style="fill:#2a40a5;fill-opacity:0.69999999;stroke:#4d5ddb;stroke-width:1.92273;stroke-linejoin:round;stroke-miterlimit:4;stroke-dasharray:none;stroke-opacity:1;paint-order:stroke fill markers"
       id="rect939"
       width="24.782829"
       height="24.782829"
       x="94.279663"
       y="197.92729" />
    <rect
       style="fill:#2a40a5;fill-opacity:0.60000002;stroke:#4d5ddb;stroke-width:1.92273;stroke-linejoin:round;stroke-miterlimit:4;stroke-dasharray:none;stroke-opacity:1;paint-order:stroke fill markers"
       id="rect941"
       width="24.782829"
       height="24.782829"
       x="119.06249"
       y="197.92729" />
    <rect
       style="fill:#2a40a5;fill-opacity:0.5;stroke:#4d5ddb;stroke-width:1.92273;stroke-linejoin:round;stroke-miterlimit:4;stroke-dasharray:none;stroke-opacity:1;paint-order:stroke fill markers"
       id="rect943"
       width="24.782829"
       height="24.782829"
       x="143.84532"
       y="197.92729" />
    <rect
       style="fill:#2a40a5;fill-opacity:0.40000001;stroke:#4d5ddb;stroke-width:1.92273;stroke-linejoin:round;stroke-miterlimit:4;stroke-dasharray:none;stroke-opacity:1;paint-order:stroke fill markers"
       id="rect945"
       width="24.782829"
       height="24.782829"
       x="168.62816"
       y="197.92729" />
    <rect
       style="fill:#2a40a5;fill-opacity:0.30000001;stroke:#4d5ddb;stroke-width:1.92273;stroke-linejoin:round;stroke-miterlimit:4;stroke-dasharray:none;stroke-opacity:1;paint-order:stroke fill markers"
       id="rect947"
       width="24.782829"
       height="24.782829"
       x="193.411"
       y="197.92729" />
    <path
       style="fill:#4d5ddb;fill-opacity:1;stroke:#2a40a5;stroke-width:1.92273;stroke-linecap:butt;stroke-linejoin:miter;stroke-miterlimit:4;stroke-dasharray:none;stroke-opacity:1"
       d="m 76.041322,79.753058 c 0,0 2.734845,-0.90234 6.048025,-0.94606 3.31319,-0.0437 9.79094,-3.97302 11.665239,-7.387459 1.8743,-3.414451 7.484844,-12.31953 7.642344,-13.53143 4.02653,4.2366 7.45243,3.10434 7.45158,0.556139 1.58762,-2.11883 1.47977,-6.07378 1.47977,-6.07378 0,0 0.85294,-3.2717 3.02056,-0.0503 2.16761,3.22139 2.18039,3.732641 4.43061,4.268631 2.2502,0.536 3.65186,3.165039 5.33135,1.559309 1.67948,-1.60573 2.03134,-5.321129 2.8095,-4.27735 0.77816,1.043771 11.11628,13.70697 12.04865,13.57383 0.93239,-0.13313 7.84722,10.79917 8.60125,11.20069 0.754,0.4015 0.69027,-0.10529 0.69027,-0.10529 0,0 3.15131,3.23845 3.36711,3.22213 0.21581,-0.0162 0.34069,-0.421729 0.34069,-0.421729 l 3.2372,2.25936 c 0,0 0.37249,-0.091 0.29093,-0.34866 -0.0816,-0.25771 2.80063,1.06369 2.80063,1.06369 0,0 -0.0881,-0.42835 0.19291,-0.55577 0.28102,-0.1275 2.08005,-0.15742 3.42578,0.85923 1.34573,1.01666 1.89912,-0.2053 1.6267,-0.785651 -0.27242,-0.58036 -0.89642,-1.4743 -2.92689,-1.51326 -2.03043,-0.0391 -5.82571,0.291921 -8.85763,-2.55813 -3.03188,-2.85004 -9.51639,-12.02902 -9.51639,-12.02902 0,0 9.10803,4.47564 12.60879,5.19922 3.50073,0.72358 14.62574,2.45468 15.84047,3.78635 1.21476,1.3317 0.17771,-5.32689 0.0533,-5.83871 -0.12431,-0.5118 -0.28949,-8.07292 -4.53647,-14.21769 -4.247,-6.14478 -7.62395,-9.26686 -7.62395,-9.26686 0,0 3.4136,-0.32004 12.89222,1.87689 3.34465,0.20261 7.69891,-1.73794 7.69891,-1.73794 0,0 -23.24237,-8.59511 -25.85714,-9.11565 6.93882,0.1946 7.53846,0.43577 7.53846,0.43577 0,0 -4.13214,-2.46106 -5.78758,-2.54971 7.74541,1.81019 13.34029,1.91651 22.58056,7.05125 3.30702,-1.17203 4.14499,-3.20132 4.14499,-3.20132 0,0 -6.71755,-4.49362 -15.2037,-5.175297 -11.0272,-2.363806 -28.39352,-4.743156 -28.39352,-4.743156 0,0 -18.45834,-1.437543 -21.50285,-1.675991 -4.91761,-1.933713 -4.96004,-1.708471 -6.08553,-1.734702 -4.03969,-1.649825 -16.053519,-2.784548 -18.558324,0.392621 -0.520973,-2.070174 -2.761341,-3.660011 -5.249728,-3.621238 -2.488374,0.03876 -8.47255,3.959647 -8.830082,4.24361 -0.357539,0.283961 -1.343219,-3.241005 -3.021351,-3.383133 -1.678135,-0.142127 -16.929389,2.415825 -18.167912,8.616357 0.311941,2.573329 0.197115,2.708279 1.33772,2.183679 1.140604,-0.524599 7.743532,-8.511813 14.361053,-8.717449 2.22383,0.988292 4.320998,4.384163 4.320998,4.384163 0,0 -0.370685,1.466577 -0.578237,1.466577 -0.207549,0 -0.954511,-0.769586 -2.371288,0.230497 -1.416776,1.000097 -21.938817,10.055692 -22.430573,20.172112 0.580924,2.92055 1.459232,1.73009 1.459232,1.73009 0,0 7.865338,-10.78937 14.071012,-14.76526 6.205672,-3.97589 7.53067,-5.375235 8.043712,-5.297867 0.513044,0.07734 -1.471239,6.817447 -1.759962,7.894407 -0.288725,1.07695 -0.553795,0.9877 -0.250403,2.48358 0.303394,1.49587 0.774001,1.86687 0.774001,1.86687 0,0 -2.897297,1.63904 -3.08239,2.8612 -0.185092,1.22218 0.675685,5.41499 0.675685,5.41499 0,0 -5.287385,0.28545 -5.535944,2.45372 0.822868,1.1508 1.15119,1.78797 1.742563,0.91373 0.591362,-0.87423 1.703263,-0.94344 3.002851,-1.64999 1.299651,-0.70644 2.483421,-0.89539 2.483421,-0.89539 0,0 1.040115,1.15943 2.390904,-1.39218 1.350649,-2.55183 2.008581,-2.75774 2.008581,-2.75774 0,0 2.041464,1.544 2.13341,1.35168 0.09194,-0.19235 0.05663,3.00308 0.695743,3.35035 0.639127,0.34727 1.472045,-0.37453 1.472045,-0.37453 0,0 -0.803801,7.93125 -0.472775,9.0558 0.331037,1.12453 -0.353476,2.94627 -1.415188,2.8488 -1.06172,-0.0975 -3.877336,-1.61667 -4.927476,-0.22729 -1.050141,1.38937 -1.090266,1.01661 -0.394096,1.85957 0.696181,0.84296 0.286035,-0.0508 0.979962,-0.29214 0.693932,-0.24139 3.140814,-0.60465 3.049127,-0.30123 -0.09169,0.30342 -0.01046,1.22814 -0.666344,1.32723 -0.655918,0.0992 1.255386,0.39973 1.777609,-0.20674 0.522224,-0.60648 0.903559,0.0631 1.322267,-0.61005 0.418716,-0.67315 2.331831,-1.73816 2.453059,-4.50038 0.121234,-2.76223 -0.38424,-2.66246 0.229416,-4.1383 0.613665,-1.47582 1.703325,-1.40834 1.608572,-3.61249 -0.09475,-2.2041 -0.339335,-7.99523 0.05533,-8.42216 2.728441,2.85384 4.64012,3.83357 5.256515,5.75816 3.220774,0.58318 4.100861,1.14511 5.873823,-0.39908 1.772967,-1.54417 2.148427,-0.53581 1.819767,-1.69255 -0.32864,-1.15673 -0.855726,-1.93811 -0.21509,-1.77922 0.64065,0.1589 0.81601,0.11831 1.57403,0.67532 0.75802,0.55693 0.7648,0.92776 2.261215,1.25413 1.4964,0.32639 2.37443,0.74729 3.24519,0.39411 0.87077,-0.35317 1.6344,-0.0973 1.39752,0.82655 -0.23688,0.92375 0.75742,0.91947 0.52053,1.86948 -0.23688,0.94997 0.14275,1.5573 -0.74942,0.85522 -0.8922,-0.70208 -0.85834,-1.03715 -1.55306,-1.54707 -0.69472,-0.50993 -0.019,-0.58464 -1.05638,-1.19483 -1.03739,-0.6102 -1.489,-1.55907 -2.00952,-0.42448 -0.52055,1.13463 -5.788753,9.64582 -6.50023,11.64858 -0.71149,2.00278 -5.436167,8.34685 -7.985881,9.48388 -2.549712,1.13703 -5.128195,1.89624 -7.792781,2.22668 -2.664578,0.33046 -3.652199,1.14377 -2.389539,3.03772 z"
       id="path93" />
    <path
       style="fill:none;stroke:#695ae4;stroke-width:3.83646;stroke-linecap:butt;stroke-linejoin:miter;stroke-miterlimit:4;stroke-dasharray:none;stroke-opacity:1"
       d="m 92.919463,19.449768 c 0,0 -11.863689,-4.689275 -13.768932,-0.651481 -9.971709,-2.361353 -23.321285,-0.136294 -27.162432,6.262034 -3.841146,6.398327 -2.676241,15.475488 -0.803063,15.221504 -3.863004,5.407501 -9.832551,12.994243 -4.118512,18.710571 5.714042,5.716328 11.447878,-4.027165 11.447878,-4.027165 0,0 0.747649,10.633808 4.22394,9.997451 3.476289,-0.636355 6.806163,-4.977911 7.328175,-2.705026 0.52201,2.272884 -3.764899,12.262015 -1.78168,12.395651 1.983216,0.133633 -0.90224,11.899855 4.648261,12.715799 5.5505,0.815943 18.856708,-0.208698 23.076834,-5.637366 4.220128,-5.428668 4.273278,-13.446753 6.892818,-15.05037 2.61954,-1.603617 5.15949,3.172888 7.14414,1.863979 1.98466,-1.30891 2.78478,-2.624803 3.05205,-4.889913 0.26727,-2.265111 3.72019,-1.112787 5.45,0.461084 1.72982,1.573869 2.0678,3.457766 3.46039,3.965935 1.39258,0.508169 5.13485,1.532599 5.64544,-0.560909 0.5106,-2.093508 1.77205,-1.109274 3.37401,1.380996 1.60195,2.490269 23.20545,22.577342 28.44694,22.445551 5.2415,-0.131792 7.27811,1.328059 8.4537,-1.598388 1.17561,-2.92645 1.9757,-4.094263 0.90834,-6.088523 -1.06737,-1.994259 -1.24267,-3.345029 -0.26853,-3.213097 0.97414,0.131929 3.89745,2.265925 3.89745,2.265925 0,0 3.08498,-1.482795 3.60483,-4.629509 0.51984,-3.146714 0.51984,-3.114847 0.25257,-7.12389 -0.26727,-4.009043 0.003,-7.610282 -1.60016,-10.550247 -1.60362,-2.939963 -3.65323,-4.208198 -3.42275,-5.071798 0.23049,-0.863602 11.627,0.370293 14.87986,-2.698226 3.25286,-3.068518 4.51312,-4.682347 3.11922,-5.483209 -1.3939,-0.800862 -2.99761,-1.567238 -2.99761,-1.567238 0,0 7.44492,-1.955258 7.04237,-3.972422 -0.40256,-2.017164 -7.68862,-5.282055 -7.68862,-5.282055 0,0 -8.47027,-7.028093 -19.54309,-9.565432 -11.07282,-2.53734 -34.8768,-5.630785 -40.60008,-5.898054 -5.72329,-0.267269 -9.53259,-4.774038 -17.10644,-4.487421 -7.57386,0.286617 -15.487317,3.065259 -15.487317,3.065259 z"
       id="path971" />
    <g
       aria-label="the wasp is almost here.
what are you going to do now?"
       id="text989"
       style="font-style:normal;font-weight:normal;font-size:5.65897px;line-height:1.25;font-family:sans-serif;fill:#4d5ddb;fill-opacity:1;stroke:#2a40a5;stroke-width:0.243272;stroke-miterlimit:4;stroke-dasharray:none;stroke-opacity:1"
       transform="translate(0,8.1356905)">
      <path
         d="m 76.444765,152.8462 v 0.87869 h 1.047241 v 0.39514 h -1.047241 v 1.68 q 0,0.37856 0.102238,0.48632 0.105,0.10776 0.422764,0.10776 h 0.522239 v 0.42553 h -0.522239 q -0.588555,0 -0.812371,-0.21829 -0.223817,-0.22105 -0.223817,-0.80132 v -1.68 h -0.373028 v -0.39514 h 0.373028 v -0.87869 z"
         style="fill:#4d5ddb;fill-opacity:1;stroke:#2a40a5;stroke-width:0.243272;stroke-miterlimit:4;stroke-dasharray:none;stroke-opacity:1"
         id="path1226" />
      <path
         d="m 80.733203,154.95174 v 1.8679 H 80.22478 v -1.85132 q 0,-0.43935 -0.171316,-0.65764 -0.171317,-0.21829 -0.51395,-0.21829 -0.411712,0 -0.649344,0.2625 -0.237633,0.26251 -0.237633,0.71567 v 1.74908 h -0.511186 v -4.29949 h 0.511186 v 1.68553 q 0.182369,-0.27908 0.428291,-0.41724 0.248686,-0.13815 0.571976,-0.13815 0.533292,0 0.806846,0.33158 0.273553,0.32881 0.273553,0.96987 z"
         style="fill:#4d5ddb;fill-opacity:1;stroke:#2a40a5;stroke-width:0.243272;stroke-miterlimit:4;stroke-dasharray:none;stroke-opacity:1"
         id="path1228" />
      <path
         d="m 84.394402,155.14516 v 0.24869 h -2.337641 q 0.03316,0.525 0.315002,0.80131 0.284606,0.27356 0.790266,0.27356 0.292896,0 0.56645,-0.0718 0.276317,-0.0719 0.547107,-0.21553 v 0.48079 q -0.273554,0.11605 -0.560923,0.17684 -0.28737,0.0608 -0.583029,0.0608 -0.740529,0 -1.174347,-0.43105 -0.431054,-0.43106 -0.431054,-1.16606 0,-0.75987 0.408949,-1.20474 0.411712,-0.44763 1.108031,-0.44763 0.624476,0 0.986451,0.40342 0.364738,0.40066 0.364738,1.09145 z m -0.508423,-0.14921 q -0.0055,-0.41724 -0.234869,-0.66592 -0.22658,-0.24869 -0.602371,-0.24869 -0.425528,0 -0.682503,0.2404 -0.254211,0.24039 -0.292895,0.67697 z"
         style="fill:#4d5ddb;fill-opacity:1;stroke:#2a40a5;stroke-width:0.243272;stroke-miterlimit:4;stroke-dasharray:none;stroke-opacity:1"
         id="path1230" />
      <path
         d="m 86.732043,153.72489 h 0.508423 l 0.635529,2.41501 0.632766,-2.41501 h 0.599607 l 0.635529,2.41501 0.632766,-2.41501 h 0.508423 l -0.809609,3.09475 H 89.47587 l -0.665924,-2.53659 -0.668687,2.53659 h -0.599607 z"
         style="fill:#4d5ddb;fill-opacity:1;stroke:#2a40a5;stroke-width:0.243272;stroke-miterlimit:4;stroke-dasharray:none;stroke-opacity:1"
         id="path1232" />
      <path
         d="m 93.062463,155.26398 q -0.616186,0 -0.853819,0.14092 -0.237632,0.14092 -0.237632,0.48079 0,0.27079 0.176842,0.43105 0.179606,0.15751 0.486318,0.15751 0.422765,0 0.676977,-0.29843 0.256974,-0.30118 0.256974,-0.79855 v -0.11329 z m 1.014083,-0.21 v 1.76566 h -0.508423 v -0.46974 q -0.174079,0.28185 -0.433817,0.41724 -0.259738,0.13263 -0.635529,0.13263 -0.475265,0 -0.757108,-0.26526 -0.27908,-0.26803 -0.27908,-0.71566 0,-0.52224 0.348159,-0.78751 0.350922,-0.26526 1.044478,-0.26526 h 0.712897 v -0.0497 q 0,-0.35092 -0.232106,-0.54158 -0.229343,-0.19342 -0.646581,-0.19342 -0.265265,0 -0.516713,0.0635 -0.251448,0.0636 -0.483555,0.19066 v -0.46974 q 0.27908,-0.10776 0.541582,-0.16026 0.262501,-0.0553 0.511186,-0.0553 0.67145,0 1.00303,0.34816 0.33158,0.34815 0.33158,1.05553 z"
         style="fill:#4d5ddb;fill-opacity:1;stroke:#2a40a5;stroke-width:0.243272;stroke-miterlimit:4;stroke-dasharray:none;stroke-opacity:1"
         id="path1234" />
      <path
         d="m 97.09669,153.81608 v 0.48079 q -0.215527,-0.11053 -0.447633,-0.16579 -0.232106,-0.0553 -0.480792,-0.0553 -0.378554,0 -0.569212,0.11606 -0.187896,0.11605 -0.187896,0.34816 0,0.17684 0.135395,0.27908 0.135396,0.0995 0.544345,0.19066 l 0.174079,0.0387 q 0.541582,0.11605 0.768161,0.32882 0.229343,0.21 0.229343,0.58855 0,0.43106 -0.342633,0.6825 -0.339869,0.25145 -0.936714,0.25145 -0.248685,0 -0.519476,-0.0497 -0.268027,-0.047 -0.566449,-0.14369 v -0.525 q 0.281843,0.14645 0.555397,0.22105 0.273553,0.0719 0.541581,0.0719 0.359212,0 0.552634,-0.12158 0.193421,-0.12435 0.193421,-0.34816 0,-0.20724 -0.140921,-0.31777 -0.138159,-0.11052 -0.61066,-0.21276 l -0.176843,-0.0414 q -0.472502,-0.0995 -0.682503,-0.30395 -0.210001,-0.20724 -0.210001,-0.56645 0,-0.43658 0.309475,-0.67421 0.309475,-0.23763 0.878688,-0.23763 0.281843,0 0.530528,0.0414 0.248685,0.0414 0.458686,0.12435 z"
         style="fill:#4d5ddb;fill-opacity:1;stroke:#2a40a5;stroke-width:0.243272;stroke-miterlimit:4;stroke-dasharray:none;stroke-opacity:1"
         id="path1236" />
      <path
         d="m 98.563933,156.35543 v 1.64132 h -0.511186 v -4.27186 h 0.511186 v 0.46974 q 0.160264,-0.27632 0.403423,-0.40895 0.245922,-0.13539 0.585791,-0.13539 0.563683,0 0.914613,0.44763 0.35368,0.44763 0.35368,1.17711 0,0.72948 -0.35368,1.17711 -0.35093,0.44763 -0.914613,0.44763 -0.339869,0 -0.585791,-0.13263 -0.243159,-0.13539 -0.403423,-0.41171 z m 1.729747,-1.0804 q 0,-0.56092 -0.23211,-0.87869 -0.229342,-0.32053 -0.632765,-0.32053 -0.403423,0 -0.635529,0.32053 -0.229343,0.31777 -0.229343,0.87869 0,0.56092 0.229343,0.88145 0.232106,0.31777 0.635529,0.31777 0.403423,0 0.632765,-0.31777 0.23211,-0.32053 0.23211,-0.88145 z"
         style="fill:#4d5ddb;fill-opacity:1;stroke:#2a40a5;stroke-width:0.243272;stroke-miterlimit:4;stroke-dasharray:none;stroke-opacity:1"
         id="path1238" />
      <path
         d="m 103.46303,153.72489 h 0.50842 v 3.09475 h -0.50842 z m 0,-1.20474 h 0.50842 v 0.64382 h -0.50842 z"
         style="fill:#4d5ddb;fill-opacity:1;stroke:#2a40a5;stroke-width:0.243272;stroke-miterlimit:4;stroke-dasharray:none;stroke-opacity:1"
         id="path1240" />
      <path
         d="m 107.00818,153.81608 v 0.48079 q -0.21553,-0.11053 -0.44764,-0.16579 -0.2321,-0.0553 -0.48079,-0.0553 -0.37855,0 -0.56921,0.11606 -0.1879,0.11605 -0.1879,0.34816 0,0.17684 0.1354,0.27908 0.13539,0.0995 0.54434,0.19066 l 0.17408,0.0387 q 0.54158,0.11605 0.76816,0.32882 0.22935,0.21 0.22935,0.58855 0,0.43106 -0.34264,0.6825 -0.33987,0.25145 -0.93671,0.25145 -0.24869,0 -0.51948,-0.0497 -0.26802,-0.047 -0.56645,-0.14369 v -0.525 q 0.28185,0.14645 0.5554,0.22105 0.27355,0.0719 0.54158,0.0719 0.35921,0 0.55264,-0.12158 0.19342,-0.12435 0.19342,-0.34816 0,-0.20724 -0.14092,-0.31777 -0.13816,-0.11052 -0.61066,-0.21276 l -0.17685,-0.0414 q -0.4725,-0.0995 -0.6825,-0.30395 -0.21,-0.20724 -0.21,-0.56645 0,-0.43658 0.30947,-0.67421 0.30948,-0.23763 0.87869,-0.23763 0.28184,0 0.53053,0.0414 0.24869,0.0414 0.45869,0.12435 z"
         style="fill:#4d5ddb;fill-opacity:1;stroke:#2a40a5;stroke-width:0.243272;stroke-miterlimit:4;stroke-dasharray:none;stroke-opacity:1"
         id="path1242" />
      <path
         d="m 111.18885,155.26398 q -0.61618,0 -0.85382,0.14092 -0.23763,0.14092 -0.23763,0.48079 0,0.27079 0.17684,0.43105 0.17961,0.15751 0.48632,0.15751 0.42277,0 0.67698,-0.29843 0.25697,-0.30118 0.25697,-0.79855 v -0.11329 z m 1.01408,-0.21 v 1.76566 h -0.50842 v -0.46974 q -0.17408,0.28185 -0.43382,0.41724 -0.25973,0.13263 -0.63552,0.13263 -0.47527,0 -0.75711,-0.26526 -0.27908,-0.26803 -0.27908,-0.71566 0,-0.52224 0.34816,-0.78751 0.35092,-0.26526 1.04447,-0.26526 h 0.7129 v -0.0497 q 0,-0.35092 -0.2321,-0.54158 -0.22935,-0.19342 -0.64659,-0.19342 -0.26526,0 -0.51671,0.0635 -0.25145,0.0636 -0.48355,0.19066 v -0.46974 q 0.27908,-0.10776 0.54158,-0.16026 0.2625,-0.0553 0.51118,-0.0553 0.67145,0 1.00303,0.34816 0.33158,0.34815 0.33158,1.05553 z"
         style="fill:#4d5ddb;fill-opacity:1;stroke:#2a40a5;stroke-width:0.243272;stroke-miterlimit:4;stroke-dasharray:none;stroke-opacity:1"
         id="path1244" />
      <path
         d="m 113.25018,152.52015 h 0.50842 v 4.29949 h -0.50842 z"
         style="fill:#4d5ddb;fill-opacity:1;stroke:#2a40a5;stroke-width:0.243272;stroke-miterlimit:4;stroke-dasharray:none;stroke-opacity:1"
         id="path1246" />
      <path
         d="m 117.2319,154.31897 q 0.19066,-0.34263 0.45593,-0.50566 0.26526,-0.16302 0.62447,-0.16302 0.48356,0 0.74606,0.33987 0.2625,0.3371 0.2625,0.96158 v 1.8679 h -0.51119 v -1.85132 q 0,-0.44487 -0.1575,-0.6604 -0.1575,-0.21553 -0.48079,-0.21553 -0.39513,0 -0.62448,0.2625 -0.22934,0.26251 -0.22934,0.71567 v 1.74908 h -0.51119 v -1.85132 q 0,-0.44764 -0.1575,-0.6604 -0.1575,-0.21553 -0.48631,-0.21553 -0.38961,0 -0.61895,0.26527 -0.22935,0.2625 -0.22935,0.7129 v 1.74908 h -0.51118 v -3.09475 h 0.51118 v 0.48079 q 0.17408,-0.2846 0.41724,-0.42 0.24316,-0.13539 0.5775,-0.13539 0.33711,0 0.57198,0.17131 0.23763,0.17132 0.35092,0.49737 z"
         style="fill:#4d5ddb;fill-opacity:1;stroke:#2a40a5;stroke-width:0.243272;stroke-miterlimit:4;stroke-dasharray:none;stroke-opacity:1"
         id="path1248" />
      <path
         d="m 121.53415,154.08134 q -0.40894,0 -0.64658,0.32053 -0.23763,0.31776 -0.23763,0.87316 0,0.5554 0.23487,0.87592 0.23763,0.31777 0.64934,0.31777 0.40619,0 0.64382,-0.32053 0.23763,-0.32053 0.23763,-0.87316 0,-0.54987 -0.23763,-0.8704 -0.23763,-0.32329 -0.64382,-0.32329 z m 0,-0.43105 q 0.66316,0 1.04172,0.43105 0.37855,0.43106 0.37855,1.19369 0,0.75987 -0.37855,1.19369 -0.37856,0.43105 -1.04172,0.43105 -0.66592,0 -1.04447,-0.43105 -0.37579,-0.43382 -0.37579,-1.19369 0,-0.76263 0.37579,-1.19369 0.37855,-0.43105 1.04447,-0.43105 z"
         style="fill:#4d5ddb;fill-opacity:1;stroke:#2a40a5;stroke-width:0.243272;stroke-miterlimit:4;stroke-dasharray:none;stroke-opacity:1"
         id="path1250" />
      <path
         d="m 125.77009,153.81608 v 0.48079 q -0.21552,-0.11053 -0.44763,-0.16579 -0.2321,-0.0553 -0.48079,-0.0553 -0.37855,0 -0.56921,0.11606 -0.1879,0.11605 -0.1879,0.34816 0,0.17684 0.1354,0.27908 0.13539,0.0995 0.54434,0.19066 l 0.17408,0.0387 q 0.54158,0.11605 0.76816,0.32882 0.22935,0.21 0.22935,0.58855 0,0.43106 -0.34264,0.6825 -0.33987,0.25145 -0.93671,0.25145 -0.24869,0 -0.51948,-0.0497 -0.26803,-0.047 -0.56645,-0.14369 v -0.525 q 0.28185,0.14645 0.5554,0.22105 0.27355,0.0719 0.54158,0.0719 0.35921,0 0.55263,-0.12158 0.19343,-0.12435 0.19343,-0.34816 0,-0.20724 -0.14093,-0.31777 -0.13815,-0.11052 -0.61066,-0.21276 l -0.17684,-0.0414 q -0.4725,-0.0995 -0.6825,-0.30395 -0.21,-0.20724 -0.21,-0.56645 0,-0.43658 0.30947,-0.67421 0.30948,-0.23763 0.87869,-0.23763 0.28184,0 0.53053,0.0414 0.24868,0.0414 0.45868,0.12435 z"
         style="fill:#4d5ddb;fill-opacity:1;stroke:#2a40a5;stroke-width:0.243272;stroke-miterlimit:4;stroke-dasharray:none;stroke-opacity:1"
         id="path1252" />
      <path
         d="m 127.24839,152.8462 v 0.87869 h 1.04724 v 0.39514 h -1.04724 v 1.68 q 0,0.37856 0.10224,0.48632 0.105,0.10776 0.42276,0.10776 h 0.52224 v 0.42553 h -0.52224 q -0.58855,0 -0.81237,-0.21829 -0.22382,-0.22105 -0.22382,-0.80132 v -1.68 h -0.37303 v -0.39514 h 0.37303 v -0.87869 z"
         style="fill:#4d5ddb;fill-opacity:1;stroke:#2a40a5;stroke-width:0.243272;stroke-miterlimit:4;stroke-dasharray:none;stroke-opacity:1"
         id="path1254" />
      <path
         d="m 133.33565,154.95174 v 1.8679 h -0.50842 v -1.85132 q 0,-0.43935 -0.17132,-0.65764 -0.17132,-0.21829 -0.51395,-0.21829 -0.41171,0 -0.64934,0.2625 -0.23764,0.26251 -0.23764,0.71567 v 1.74908 h -0.51118 v -4.29949 h 0.51118 v 1.68553 q 0.18237,-0.27908 0.42829,-0.41724 0.24869,-0.13815 0.57198,-0.13815 0.53329,0 0.80685,0.33158 0.27355,0.32881 0.27355,0.96987 z"
         style="fill:#4d5ddb;fill-opacity:1;stroke:#2a40a5;stroke-width:0.243272;stroke-miterlimit:4;stroke-dasharray:none;stroke-opacity:1"
         id="path1256" />
      <path
         d="m 136.99685,155.14516 v 0.24869 h -2.33764 q 0.0332,0.525 0.315,0.80131 0.2846,0.27356 0.79026,0.27356 0.2929,0 0.56645,-0.0718 0.27632,-0.0719 0.54711,-0.21553 v 0.48079 q -0.27355,0.11605 -0.56092,0.17684 -0.28737,0.0608 -0.58303,0.0608 -0.74053,0 -1.17435,-0.43105 -0.43105,-0.43106 -0.43105,-1.16606 0,-0.75987 0.40895,-1.20474 0.41171,-0.44763 1.10803,-0.44763 0.62447,0 0.98645,0.40342 0.36474,0.40066 0.36474,1.09145 z m -0.50843,-0.14921 q -0.006,-0.41724 -0.23486,-0.66592 -0.22658,-0.24869 -0.60238,-0.24869 -0.42552,0 -0.6825,0.2404 -0.25421,0.24039 -0.29289,0.67697 z"
         style="fill:#4d5ddb;fill-opacity:1;stroke:#2a40a5;stroke-width:0.243272;stroke-miterlimit:4;stroke-dasharray:none;stroke-opacity:1"
         id="path1258" />
      <path
         d="m 139.62462,154.20016 q -0.0857,-0.0497 -0.18789,-0.0719 -0.0995,-0.0249 -0.22106,-0.0249 -0.43105,0 -0.66316,0.28184 -0.22934,0.27908 -0.22934,0.80408 v 1.63027 h -0.51119 v -3.09475 h 0.51119 v 0.48079 q 0.16026,-0.28184 0.41724,-0.41724 0.25697,-0.13815 0.62447,-0.13815 0.0525,0 0.11606,0.008 0.0635,0.006 0.14092,0.0193 z"
         style="fill:#4d5ddb;fill-opacity:1;stroke:#2a40a5;stroke-width:0.243272;stroke-miterlimit:4;stroke-dasharray:none;stroke-opacity:1"
         id="path1260" />
      <path
         d="m 142.68069,155.14516 v 0.24869 h -2.33764 q 0.0332,0.525 0.315,0.80131 0.28461,0.27356 0.79027,0.27356 0.29289,0 0.56645,-0.0718 0.27631,-0.0719 0.5471,-0.21553 v 0.48079 q -0.27355,0.11605 -0.56092,0.17684 -0.28737,0.0608 -0.58303,0.0608 -0.74053,0 -1.17435,-0.43105 -0.43105,-0.43106 -0.43105,-1.16606 0,-0.75987 0.40895,-1.20474 0.41171,-0.44763 1.10803,-0.44763 0.62448,0 0.98645,0.40342 0.36474,0.40066 0.36474,1.09145 z m -0.50842,-0.14921 q -0.006,-0.41724 -0.23487,-0.66592 -0.22658,-0.24869 -0.60237,-0.24869 -0.42553,0 -0.68251,0.2404 -0.25421,0.24039 -0.29289,0.67697 z"
         style="fill:#4d5ddb;fill-opacity:1;stroke:#2a40a5;stroke-width:0.243272;stroke-miterlimit:4;stroke-dasharray:none;stroke-opacity:1"
         id="path1262" />
      <path
         d="m 143.58701,156.1178 h 0.58303 v 0.70184 h -0.58303 z"
         style="fill:#4d5ddb;fill-opacity:1;stroke:#2a40a5;stroke-width:0.243272;stroke-miterlimit:4;stroke-dasharray:none;stroke-opacity:1"
         id="path1264" />
      <path
         d="m 75.646209,160.7986 h 0.508424 l 0.635528,2.41501 0.632766,-2.41501 h 0.599608 l 0.635529,2.41501 0.632765,-2.41501 h 0.508423 l -0.809608,3.09475 h -0.599608 l -0.665924,-2.53659 -0.668686,2.53659 h -0.599608 z"
         style="fill:#4d5ddb;fill-opacity:1;stroke:#2a40a5;stroke-width:0.243272;stroke-miterlimit:4;stroke-dasharray:none;stroke-opacity:1"
         id="path1266" />
      <path
         d="m 83.142687,162.02545 v 1.8679 h -0.508423 v -1.85132 q 0,-0.43934 -0.171317,-0.65763 -0.171316,-0.21829 -0.513949,-0.21829 -0.411713,0 -0.649345,0.2625 -0.237633,0.2625 -0.237633,0.71566 v 1.74908 h -0.511186 v -4.29949 h 0.511186 v 1.68554 q 0.18237,-0.27908 0.428292,-0.41724 0.248685,-0.13816 0.571976,-0.13816 0.533291,0 0.806845,0.33158 0.273554,0.32882 0.273554,0.96987 z"
         style="fill:#4d5ddb;fill-opacity:1;stroke:#2a40a5;stroke-width:0.243272;stroke-miterlimit:4;stroke-dasharray:none;stroke-opacity:1"
         id="path1268" />
      <path
         d="m 85.563222,162.33769 q -0.616186,0 -0.853819,0.14092 -0.237632,0.14092 -0.237632,0.48079 0,0.27079 0.176843,0.43106 0.179606,0.1575 0.486317,0.1575 0.422765,0 0.676977,-0.29842 0.256974,-0.30119 0.256974,-0.79856 v -0.11329 z m 1.014083,-0.21 v 1.76566 h -0.508423 v -0.46974 q -0.174079,0.28185 -0.433817,0.41724 -0.259738,0.13264 -0.635529,0.13264 -0.475265,0 -0.757108,-0.26527 -0.27908,-0.26803 -0.27908,-0.71566 0,-0.52224 0.348159,-0.7875 0.350922,-0.26527 1.044478,-0.26527 h 0.712897 v -0.0497 q 0,-0.35093 -0.232106,-0.54159 -0.229343,-0.19342 -0.646581,-0.19342 -0.265265,0 -0.516713,0.0636 -0.251448,0.0635 -0.483554,0.19065 v -0.46973 q 0.27908,-0.10777 0.541581,-0.16027 0.262501,-0.0553 0.511186,-0.0553 0.67145,0 1.00303,0.34816 0.33158,0.34816 0.33158,1.05553 z"
         style="fill:#4d5ddb;fill-opacity:1;stroke:#2a40a5;stroke-width:0.243272;stroke-miterlimit:4;stroke-dasharray:none;stroke-opacity:1"
         id="path1270" />
      <path
         d="m 88.127444,159.91992 v 0.87868 h 1.047241 v 0.39514 h -1.047241 v 1.68 q 0,0.37856 0.102237,0.48632 0.105,0.10777 0.422765,0.10777 h 0.522239 v 0.42552 h -0.522239 q -0.588555,0 -0.812372,-0.21829 -0.223817,-0.22105 -0.223817,-0.80132 v -1.68 h -0.373028 v -0.39514 h 0.373028 v -0.87868 z"
         style="fill:#4d5ddb;fill-opacity:1;stroke:#2a40a5;stroke-width:0.243272;stroke-miterlimit:4;stroke-dasharray:none;stroke-opacity:1"
         id="path1272" />
      <path
         d="m 93.048647,162.33769 q -0.616186,0 -0.853819,0.14092 -0.237632,0.14092 -0.237632,0.48079 0,0.27079 0.176843,0.43106 0.179606,0.1575 0.486317,0.1575 0.422765,0 0.676977,-0.29842 0.256974,-0.30119 0.256974,-0.79856 v -0.11329 z m 1.014083,-0.21 v 1.76566 h -0.508423 v -0.46974 q -0.174079,0.28185 -0.433817,0.41724 -0.259738,0.13264 -0.635529,0.13264 -0.475265,0 -0.757108,-0.26527 -0.27908,-0.26803 -0.27908,-0.71566 0,-0.52224 0.348159,-0.7875 0.350922,-0.26527 1.044478,-0.26527 h 0.712897 v -0.0497 q 0,-0.35093 -0.232106,-0.54159 -0.229343,-0.19342 -0.646581,-0.19342 -0.265265,0 -0.516713,0.0636 -0.251448,0.0635 -0.483554,0.19065 v -0.46973 q 0.27908,-0.10777 0.541581,-0.16027 0.262501,-0.0553 0.511186,-0.0553 0.67145,0 1.00303,0.34816 0.33158,0.34816 0.33158,1.05553 z"
         style="fill:#4d5ddb;fill-opacity:1;stroke:#2a40a5;stroke-width:0.243272;stroke-miterlimit:4;stroke-dasharray:none;stroke-opacity:1"
         id="path1274" />
      <path
         d="m 96.903267,161.27387 q -0.08566,-0.0497 -0.187895,-0.0718 -0.09947,-0.0249 -0.221054,-0.0249 -0.431054,0 -0.66316,0.28184 -0.229343,0.27908 -0.229343,0.80408 v 1.63027 h -0.511186 v -3.09475 h 0.511186 v 0.4808 q 0.160264,-0.28185 0.417238,-0.41724 0.256975,-0.13816 0.624477,-0.13816 0.0525,0 0.116053,0.008 0.06355,0.006 0.140921,0.0193 z"
         style="fill:#4d5ddb;fill-opacity:1;stroke:#2a40a5;stroke-width:0.243272;stroke-miterlimit:4;stroke-dasharray:none;stroke-opacity:1"
         id="path1276" />
      <path
         d="m 99.959332,162.21887 v 0.24869 h -2.337641 q 0.03316,0.525 0.315002,0.80132 0.284606,0.27355 0.790266,0.27355 0.292896,0 0.56645,-0.0718 0.276317,-0.0718 0.547107,-0.21553 v 0.48079 q -0.273554,0.11606 -0.560923,0.17685 -0.28737,0.0608 -0.583029,0.0608 -0.740529,0 -1.174347,-0.43106 -0.431054,-0.43105 -0.431054,-1.16606 0,-0.75987 0.408949,-1.20474 0.411712,-0.44763 1.108031,-0.44763 0.624476,0 0.986451,0.40342 0.364738,0.40066 0.364738,1.09145 z m -0.508423,-0.14921 q -0.0055,-0.41724 -0.234869,-0.66592 -0.22658,-0.24869 -0.602371,-0.24869 -0.425528,0 -0.682503,0.2404 -0.254211,0.24039 -0.292896,0.67698 z"
         style="fill:#4d5ddb;fill-opacity:1;stroke:#2a40a5;stroke-width:0.243272;stroke-miterlimit:4;stroke-dasharray:none;stroke-opacity:1"
         id="path1278" />
      <path
         d="m 103.88027,164.18072 q -0.21553,0.55264 -0.42,0.72119 -0.20448,0.16855 -0.54711,0.16855 h -0.40619 v -0.42552 h 0.29843 q 0.21,0 0.32605,-0.0995 0.11605,-0.0995 0.25698,-0.46974 l 0.0912,-0.2321 -1.25172,-3.04502 h 0.53882 l 0.96711,2.42054 0.96711,-2.42054 h 0.53882 z"
         style="fill:#4d5ddb;fill-opacity:1;stroke:#2a40a5;stroke-width:0.243272;stroke-miterlimit:4;stroke-dasharray:none;stroke-opacity:1"
         id="path1280" />
      <path
         d="m 107.14081,161.15505 q -0.40895,0 -0.64658,0.32053 -0.23763,0.31777 -0.23763,0.87316 0,0.5554 0.23486,0.87593 0.23764,0.31776 0.64935,0.31776 0.40619,0 0.64382,-0.32053 0.23763,-0.32052 0.23763,-0.87316 0,-0.54987 -0.23763,-0.8704 -0.23763,-0.32329 -0.64382,-0.32329 z m 0,-0.43105 q 0.66316,0 1.04171,0.43105 0.37856,0.43106 0.37856,1.19369 0,0.75987 -0.37856,1.19369 -0.37855,0.43106 -1.04171,0.43106 -0.66592,0 -1.04448,-0.43106 -0.37579,-0.43382 -0.37579,-1.19369 0,-0.76263 0.37579,-1.19369 0.37856,-0.43105 1.04448,-0.43105 z"
         style="fill:#4d5ddb;fill-opacity:1;stroke:#2a40a5;stroke-width:0.243272;stroke-miterlimit:4;stroke-dasharray:none;stroke-opacity:1"
         id="path1282" />
      <path
         d="m 109.35134,162.67203 v -1.87343 h 0.50843 v 1.85409 q 0,0.43934 0.17131,0.6604 0.17132,0.21829 0.51395,0.21829 0.41171,0 0.64935,-0.2625 0.24039,-0.2625 0.24039,-0.71566 v -1.75462 h 0.50843 v 3.09475 h -0.50843 v -0.47526 q -0.18513,0.28184 -0.43105,0.42 -0.24316,0.1354 -0.56645,0.1354 -0.53329,0 -0.80961,-0.33158 -0.27632,-0.33159 -0.27632,-0.96988 z m 1.27935,-1.94803 z"
         style="fill:#4d5ddb;fill-opacity:1;stroke:#2a40a5;stroke-width:0.243272;stroke-miterlimit:4;stroke-dasharray:none;stroke-opacity:1"
         id="path1284" />
      <path
         d="m 116.82572,162.31006 q 0,-0.55264 -0.22935,-0.85658 -0.22658,-0.30395 -0.63829,-0.30395 -0.40895,0 -0.63829,0.30395 -0.22658,0.30394 -0.22658,0.85658 0,0.54987 0.22658,0.85382 0.22934,0.30395 0.63829,0.30395 0.41171,0 0.63829,-0.30395 0.22935,-0.30395 0.22935,-0.85382 z m 0.50842,1.19921 q 0,0.79027 -0.35092,1.17435 -0.35092,0.38684 -1.07488,0.38684 -0.26802,0 -0.50565,-0.0414 -0.23764,-0.0387 -0.46145,-0.12158 v -0.49461 q 0.22381,0.12158 0.4421,0.17961 0.21829,0.058 0.44487,0.058 0.50014,0 0.74882,-0.2625 0.24869,-0.25974 0.24869,-0.7875 v -0.25145 q -0.1575,0.27355 -0.40343,0.40895 -0.24592,0.13539 -0.58855,0.13539 -0.56921,0 -0.91737,-0.43381 -0.34816,-0.43382 -0.34816,-1.14948 0,-0.71843 0.34816,-1.15224 0.34816,-0.43382 0.91737,-0.43382 0.34263,0 0.58855,0.13539 0.24593,0.1354 0.40343,0.40895 v -0.46974 h 0.50842 z"
         style="fill:#4d5ddb;fill-opacity:1;stroke:#2a40a5;stroke-width:0.243272;stroke-miterlimit:4;stroke-dasharray:none;stroke-opacity:1"
         id="path1286" />
      <path
         d="m 119.58059,161.15505 q -0.40894,0 -0.64658,0.32053 -0.23763,0.31777 -0.23763,0.87316 0,0.5554 0.23487,0.87593 0.23763,0.31776 0.64934,0.31776 0.40619,0 0.64382,-0.32053 0.23764,-0.32052 0.23764,-0.87316 0,-0.54987 -0.23764,-0.8704 -0.23763,-0.32329 -0.64382,-0.32329 z m 0,-0.43105 q 0.66316,0 1.04172,0.43105 0.37855,0.43106 0.37855,1.19369 0,0.75987 -0.37855,1.19369 -0.37856,0.43106 -1.04172,0.43106 -0.66592,0 -1.04447,-0.43106 -0.37579,-0.43382 -0.37579,-1.19369 0,-0.76263 0.37579,-1.19369 0.37855,-0.43105 1.04447,-0.43105 z"
         style="fill:#4d5ddb;fill-opacity:1;stroke:#2a40a5;stroke-width:0.243272;stroke-miterlimit:4;stroke-dasharray:none;stroke-opacity:1"
         id="path1288" />
      <path
         d="m 121.84363,160.7986 h 0.50842 v 3.09475 h -0.50842 z m 0,-1.20474 h 0.50842 v 0.64382 h -0.50842 z"
         style="fill:#4d5ddb;fill-opacity:1;stroke:#2a40a5;stroke-width:0.243272;stroke-miterlimit:4;stroke-dasharray:none;stroke-opacity:1"
         id="path1290" />
      <path
         d="m 125.98839,162.02545 v 1.8679 h -0.50843 v -1.85132 q 0,-0.43934 -0.17131,-0.65763 -0.17132,-0.21829 -0.51395,-0.21829 -0.41172,0 -0.64935,0.2625 -0.23763,0.2625 -0.23763,0.71566 v 1.74908 h -0.51119 v -3.09475 h 0.51119 v 0.4808 q 0.18237,-0.27908 0.42829,-0.41724 0.24869,-0.13816 0.57198,-0.13816 0.53329,0 0.80684,0.33158 0.27356,0.32882 0.27356,0.96987 z"
         style="fill:#4d5ddb;fill-opacity:1;stroke:#2a40a5;stroke-width:0.243272;stroke-miterlimit:4;stroke-dasharray:none;stroke-opacity:1"
         id="path1292" />
      <path
         d="m 129.03892,162.31006 q 0,-0.55264 -0.22934,-0.85658 -0.22658,-0.30395 -0.63829,-0.30395 -0.40895,0 -0.6383,0.30395 -0.22658,0.30394 -0.22658,0.85658 0,0.54987 0.22658,0.85382 0.22935,0.30395 0.6383,0.30395 0.41171,0 0.63829,-0.30395 0.22934,-0.30395 0.22934,-0.85382 z m 0.50842,1.19921 q 0,0.79027 -0.35092,1.17435 -0.35092,0.38684 -1.07487,0.38684 -0.26803,0 -0.50566,-0.0414 -0.23763,-0.0387 -0.46145,-0.12158 v -0.49461 q 0.22382,0.12158 0.44211,0.17961 0.21829,0.058 0.44487,0.058 0.50013,0 0.74882,-0.2625 0.24868,-0.25974 0.24868,-0.7875 v -0.25145 q -0.1575,0.27355 -0.40342,0.40895 -0.24592,0.13539 -0.58856,0.13539 -0.56921,0 -0.91737,-0.43381 -0.34816,-0.43382 -0.34816,-1.14948 0,-0.71843 0.34816,-1.15224 0.34816,-0.43382 0.91737,-0.43382 0.34264,0 0.58856,0.13539 0.24592,0.1354 0.40342,0.40895 v -0.46974 h 0.50842 z"
         style="fill:#4d5ddb;fill-opacity:1;stroke:#2a40a5;stroke-width:0.243272;stroke-miterlimit:4;stroke-dasharray:none;stroke-opacity:1"
         id="path1294" />
      <path
         d="m 132.89631,159.91992 v 0.87868 h 1.04724 v 0.39514 h -1.04724 v 1.68 q 0,0.37856 0.10223,0.48632 0.105,0.10777 0.42277,0.10777 h 0.52224 v 0.42552 h -0.52224 q -0.58856,0 -0.81237,-0.21829 -0.22382,-0.22105 -0.22382,-0.80132 v -1.68 h -0.37303 v -0.39514 h 0.37303 v -0.87868 z"
         style="fill:#4d5ddb;fill-opacity:1;stroke:#2a40a5;stroke-width:0.243272;stroke-miterlimit:4;stroke-dasharray:none;stroke-opacity:1"
         id="path1296" />
      <path
         d="m 135.81145,161.15505 q -0.40895,0 -0.64658,0.32053 -0.23764,0.31777 -0.23764,0.87316 0,0.5554 0.23487,0.87593 0.23764,0.31776 0.64935,0.31776 0.40618,0 0.64382,-0.32053 0.23763,-0.32052 0.23763,-0.87316 0,-0.54987 -0.23763,-0.8704 -0.23764,-0.32329 -0.64382,-0.32329 z m 0,-0.43105 q 0.66316,0 1.04171,0.43105 0.37856,0.43106 0.37856,1.19369 0,0.75987 -0.37856,1.19369 -0.37855,0.43106 -1.04171,0.43106 -0.66593,0 -1.04448,-0.43106 -0.37579,-0.43382 -0.37579,-1.19369 0,-0.76263 0.37579,-1.19369 0.37855,-0.43105 1.04448,-0.43105 z"
         style="fill:#4d5ddb;fill-opacity:1;stroke:#2a40a5;stroke-width:0.243272;stroke-miterlimit:4;stroke-dasharray:none;stroke-opacity:1"
         id="path1298" />
      <path
         d="m 141.90976,161.26834 v -1.67448 h 0.50843 v 4.29949 h -0.50843 v -0.46421 q -0.16026,0.27632 -0.40618,0.41171 -0.24316,0.13264 -0.5858,0.13264 -0.56092,0 -0.9146,-0.44764 -0.35093,-0.44763 -0.35093,-1.17711 0,-0.72947 0.35093,-1.17711 0.35368,-0.44763 0.9146,-0.44763 0.34264,0 0.5858,0.13539 0.24592,0.13264 0.40618,0.40895 z m -1.7325,1.0804 q 0,0.56093 0.22934,0.88145 0.2321,0.31777 0.63553,0.31777 0.40342,0 0.63553,-0.31777 0.2321,-0.32052 0.2321,-0.88145 0,-0.56092 -0.2321,-0.87869 -0.23211,-0.32052 -0.63553,-0.32052 -0.40343,0 -0.63553,0.32052 -0.22934,0.31777 -0.22934,0.87869 z"
         style="fill:#4d5ddb;fill-opacity:1;stroke:#2a40a5;stroke-width:0.243272;stroke-miterlimit:4;stroke-dasharray:none;stroke-opacity:1"
         id="path1300" />
      <path
         d="m 144.66464,161.15505 q -0.40895,0 -0.64658,0.32053 -0.23763,0.31777 -0.23763,0.87316 0,0.5554 0.23487,0.87593 0.23763,0.31776 0.64934,0.31776 0.40619,0 0.64382,-0.32053 0.23763,-0.32052 0.23763,-0.87316 0,-0.54987 -0.23763,-0.8704 -0.23763,-0.32329 -0.64382,-0.32329 z m 0,-0.43105 q 0.66316,0 1.04172,0.43105 0.37855,0.43106 0.37855,1.19369 0,0.75987 -0.37855,1.19369 -0.37856,0.43106 -1.04172,0.43106 -0.66592,0 -1.04447,-0.43106 -0.3758,-0.43382 -0.3758,-1.19369 0,-0.76263 0.3758,-1.19369 0.37855,-0.43105 1.04447,-0.43105 z"
         style="fill:#4d5ddb;fill-opacity:1;stroke:#2a40a5;stroke-width:0.243272;stroke-miterlimit:4;stroke-dasharray:none;stroke-opacity:1"
         id="path1302" />
      <path
         d="m 151.29901,162.02545 v 1.8679 h -0.50842 v -1.85132 q 0,-0.43934 -0.17132,-0.65763 -0.17132,-0.21829 -0.51395,-0.21829 -0.41171,0 -0.64935,0.2625 -0.23763,0.2625 -0.23763,0.71566 v 1.74908 h -0.51118 v -3.09475 h 0.51118 v 0.4808 q 0.18237,-0.27908 0.42829,-0.41724 0.24869,-0.13816 0.57198,-0.13816 0.53329,0 0.80684,0.33158 0.27356,0.32882 0.27356,0.96987 z"
         style="fill:#4d5ddb;fill-opacity:1;stroke:#2a40a5;stroke-width:0.243272;stroke-miterlimit:4;stroke-dasharray:none;stroke-opacity:1"
         id="path1304" />
      <path
         d="m 153.51231,161.15505 q -0.40895,0 -0.64658,0.32053 -0.23764,0.31777 -0.23764,0.87316 0,0.5554 0.23487,0.87593 0.23764,0.31776 0.64935,0.31776 0.40618,0 0.64382,-0.32053 0.23763,-0.32052 0.23763,-0.87316 0,-0.54987 -0.23763,-0.8704 -0.23764,-0.32329 -0.64382,-0.32329 z m 0,-0.43105 q 0.66316,0 1.04171,0.43105 0.37856,0.43106 0.37856,1.19369 0,0.75987 -0.37856,1.19369 -0.37855,0.43106 -1.04171,0.43106 -0.66593,0 -1.04448,-0.43106 -0.37579,-0.43382 -0.37579,-1.19369 0,-0.76263 0.37579,-1.19369 0.37855,-0.43105 1.04448,-0.43105 z"
         style="fill:#4d5ddb;fill-opacity:1;stroke:#2a40a5;stroke-width:0.243272;stroke-miterlimit:4;stroke-dasharray:none;stroke-opacity:1"
         id="path1306" />
      <path
         d="m 155.47968,160.7986 h 0.50843 l 0.63552,2.41501 0.63277,-2.41501 h 0.59961 l 0.63553,2.41501 0.63276,-2.41501 h 0.50843 l -0.80961,3.09475 h -0.59961 l -0.66592,-2.53659 -0.66869,2.53659 h -0.59961 z"
         style="fill:#4d5ddb;fill-opacity:1;stroke:#2a40a5;stroke-width:0.243272;stroke-miterlimit:4;stroke-dasharray:none;stroke-opacity:1"
         id="path1308" />
      <path
         d="m 160.95076,163.19151 h 0.56092 v 0.70184 h -0.56092 z m 0.54434,-0.40619 h -0.52776 v -0.42553 q 0,-0.27908 0.0774,-0.45868 0.0774,-0.17961 0.32605,-0.41724 l 0.24869,-0.24592 q 0.1575,-0.14645 0.22658,-0.27632 0.0718,-0.12987 0.0718,-0.26526 0,-0.24592 -0.18237,-0.3979 -0.17961,-0.15197 -0.47803,-0.15197 -0.21829,0 -0.46697,0.0967 -0.24593,0.0967 -0.51395,0.28184 v -0.51948 q 0.25974,-0.1575 0.525,-0.23486 0.26803,-0.0774 0.55263,-0.0774 0.50843,0 0.81514,0.26802 0.30947,0.26803 0.30947,0.70738 0,0.21 -0.0995,0.40065 -0.0995,0.1879 -0.34816,0.42553 l -0.24316,0.23764 q -0.12987,0.12986 -0.18513,0.20447 -0.0525,0.0718 -0.0746,0.14092 -0.0166,0.058 -0.0249,0.14092 -0.008,0.0829 -0.008,0.22658 z"
         style="fill:#4d5ddb;fill-opacity:1;stroke:#2a40a5;stroke-width:0.243272;stroke-miterlimit:4;stroke-dasharray:none;stroke-opacity:1"
         id="path1310" />
    </g>
  </g>
</svg>
