<svg id="Layer_1" data-name="Layer 1" xmlns="http://www.w3.org/2000/svg" viewBox="0 0 512 512"><defs><style>.cls-1{fill:#efd1d1;stroke-width:25.19px;}.cls-1,.cls-10,.cls-11,.cls-13,.cls-2,.cls-3,.cls-4,.cls-5,.cls-6,.cls-7,.cls-8,.cls-9{stroke:#a31c1c;}.cls-1,.cls-10,.cls-2,.cls-3,.cls-4,.cls-5,.cls-6,.cls-7,.cls-8,.cls-9{stroke-linejoin:round;}.cls-11,.cls-2{fill:#dc1515;}.cls-2{stroke-width:12px;}.cls-10,.cls-13,.cls-3,.cls-4,.cls-5,.cls-6,.cls-7,.cls-8,.cls-9{fill:#a31c1c;}.cls-10,.cls-11,.cls-3,.cls-4,.cls-5,.cls-6,.cls-7,.cls-8,.cls-9{stroke-width:3px;}.cls-4{fill-opacity:0.9;}.cls-5{fill-opacity:0.8;}.cls-6{fill-opacity:0.7;}.cls-7{fill-opacity:0.6;}.cls-8{fill-opacity:0.5;}.cls-9{fill-opacity:0.4;}.cls-10{fill-opacity:0.3;}.cls-11,.cls-12,.cls-13{stroke-miterlimit:15.12;}.cls-12{fill:none;stroke:#d22929;stroke-width:9px;}.cls-13{stroke-width:0.5px;}</style></defs><g id="layer2"><rect id="rect1089" class="cls-1" x="6" y="5.32" width="500.66" height="500.66"/></g><g id="text922"><path id="path924" class="cls-2" d="M136.57,289.91h9l13.25-40.76,13.36,40.76H181l23.81-61.42h-8.09l-20,51.43L162.29,236h-6.85L141,279.92l-19.54-51.43h-8.3Z"/><path id="path926" class="cls-2" d="M273.23,228.49h-8.31v10.89c-6.18-8.53-13.59-12.35-24.26-12.35-18.41,0-32.33,13.92-32.33,32.34s14,32,33,32c10.44,0,17-3.37,23.58-12.24v10.78h8.31Zm-32.34,6.17c13.59,0,24,10.56,24,24.26,0,14-10.33,24.81-23.58,24.81-13.93,0-24.59-10.89-24.59-24.92A24.11,24.11,0,0,1,240.89,234.66Z"/><path id="path928" class="cls-2" d="M284.46,271.83c.11,11.9,7.86,19.54,19.76,19.54,11.12,0,18.75-7.86,18.75-19.09,0-7.52-3.48-12.69-10.67-15.72-9.43-3.93-9.88-4-11.56-4.94-3.82-1.91-5.62-4.49-5.62-8.09a8.82,8.82,0,0,1,8.88-8.87c5.39,0,8.53,3.15,9,9h8.42C321.06,233.77,314,227,304.11,227s-17.41,7.3-17.41,17.29a14.39,14.39,0,0,0,4.61,11c2.58,2.36,2.69,2.47,11.34,6,9.54,3.93,11.9,6.17,11.9,11.79,0,6.17-4.27,10.66-10.33,10.66-7,0-11.12-4.26-11.57-11.9Z"/><path id="path930" class="cls-2" d="M334.76,228.49v83h8.31V279.35c5.39,7.86,13.7,12,23.92,12,18.41,0,32.56-14,32.56-32,0-18.42-14-32.34-32.34-32.34-10.55,0-18.86,4.15-24.14,12V228.49Zm32.12,6.17c13.92,0,24.25,10.56,24.25,24.71,0,13.81-10.44,24.36-24.14,24.36-14,0-24.48-10.55-24.48-24.81A24,24,0,0,1,366.88,234.66Z"/></g><g id="g981"><rect id="rect933" class="cls-3" x="47.91" y="421.46" width="52.11" height="52.11"/><rect id="rect935" class="cls-4" x="100.01" y="421.46" width="52.11" height="52.11"/><rect id="rect937" class="cls-5" x="152.12" y="421.46" width="52.11" height="52.11"/><rect id="rect939" class="cls-6" x="204.22" y="421.46" width="52.11" height="52.11"/><rect id="rect941" class="cls-7" x="256.33" y="421.46" width="52.11" height="52.11"/><rect id="rect943" class="cls-8" x="308.44" y="421.46" width="52.11" height="52.11"/><rect id="rect945" class="cls-9" x="360.54" y="421.46" width="52.11" height="52.11"/><rect id="rect947" class="cls-10" x="412.65" y="421.46" width="52.11" height="52.11"/></g><path id="path93" class="cls-11" d="M165.88,173a47.1,47.1,0,0,1,12.71-2c7-.09,20.59-8.35,24.53-15.53s15.74-25.9,16.07-28.45c8.46,8.9,15.67,6.52,15.66,1.17,3.34-4.46,3.12-12.77,3.12-12.77s1.79-6.88,6.35-.11,4.58,7.85,9.31,9,7.68,6.65,11.21,3.27,4.27-11.18,5.91-9,23.37,28.82,25.33,28.54,16.5,22.7,18.08,23.55,1.46-.22,1.46-.22,6.62,6.81,7.07,6.77.72-.88.72-.88l6.81,4.75s.78-.2.61-.74,5.89,2.24,5.89,2.24-.19-.9.4-1.17a9.87,9.87,0,0,1,7.21,1.81c2.83,2.13,4-.43,3.42-1.65s-1.89-3.1-6.16-3.19S329.34,179,323,173s-20-25.3-20-25.3,19.15,9.41,26.51,10.94,30.75,5.16,33.31,8,.37-11.2.11-12.28-.61-17-9.54-29.89-16-19.49-16-19.49,7.18-.67,27.11,4c7,.43,16.18-3.65,16.18-3.65s-48.86-18.08-54.36-19.17c14.59.41,15.85.92,15.85.92s-8.69-5.18-12.17-5.36c16.28,3.8,28.05,4,47.48,14.82,6.95-2.46,8.71-6.73,8.71-6.73s-14.12-9.45-32-10.88c-23.18-5-59.69-10-59.69-10l-45.21-3.53c-10.34-4.06-10.43-3.59-12.8-3.64-8.49-3.47-33.75-5.86-39,.82-1.09-4.35-5.8-7.69-11-7.61s-17.82,8.32-18.57,8.92S165,57,161.48,56.74s-35.6,5.08-38.2,18.11c.66,5.41.41,5.7,2.81,4.59s16.28-17.89,30.2-18.32c4.67,2.07,9.08,9.21,9.08,9.21s-.78,3.09-1.21,3.09-2-1.62-5,.48S113,95,112,116.31c1.22,6.14,3.07,3.64,3.07,3.64s16.53-22.68,29.58-31,15.84-11.3,16.91-11.14-3.09,14.33-3.7,16.6-1.16,2.07-.52,5.22,1.62,3.92,1.62,3.92-6.09,3.45-6.48,6,1.42,11.38,1.42,11.38-11.11.6-11.63,5.16c1.73,2.42,2.42,3.76,3.66,1.92s3.58-2,6.31-3.47a18.3,18.3,0,0,1,5.22-1.88s2.19,2.44,5-2.93,4.22-5.79,4.22-5.79,4.3,3.24,4.49,2.84.12,6.31,1.46,7,3.1-.78,3.1-.78-1.69,16.67-1,19-.74,6.19-3,6-8.15-3.39-10.36-.47-2.29,2.13-.83,3.91.6-.11,2.06-.62,6.6-1.27,6.41-.63,0,2.58-1.4,2.79,2.64.84,3.74-.44,1.9.14,2.78-1.28,4.9-3.65,5.15-9.46-.8-5.6.49-8.7,3.58-3,3.38-7.6-.71-16.81.11-17.7c5.74,6,9.76,8.06,11.06,12.1,6.77,1.23,8.62,2.41,12.35-.84s4.51-1.12,3.82-3.55-1.8-4.08-.45-3.75a6.52,6.52,0,0,1,3.31,1.42c1.59,1.18,1.61,2,4.75,2.64s5,1.57,6.83.83,3.43-.2,2.94,1.74,1.59,1.93,1.09,3.93.3,3.27-1.58,1.8-1.8-2.18-3.26-3.26,0-1.23-2.22-2.51-3.13-3.28-4.23-.89S205.57,137.78,204.08,142s-11.43,17.55-16.79,19.94a57.35,57.35,0,0,1-16.39,4.68c-5.6.7-7.68,2.41-5,6.39Z"/><path id="path971" class="cls-12" d="M201.36,46.21s-24.94-9.86-29-1.37c-21-5-49-.29-57.1,13.17s-5.63,32.53-1.69,32c-8.13,11.37-20.68,27.32-8.66,39.34S129,120.88,129,120.88s1.57,22.36,8.88,21,14.31-10.46,15.41-5.69-7.92,25.78-3.75,26.07-1.9,25,9.77,26.73,39.65-.44,48.52-11.85,9-28.27,14.49-31.65,10.85,6.68,15,3.92,5.86-5.51,6.42-10.28,7.82-2.34,11.46,1,4.35,7.27,7.27,8.34,10.8,3.22,11.87-1.18,3.73-2.33,7.1,2.9,48.79,47.47,59.81,47.2,15.3,2.79,17.77-3.36,4.16-8.61,1.91-12.81-2.61-7-.56-6.75,8.19,4.76,8.19,4.76,6.49-3.11,7.58-9.73,1.09-6.55.53-15,0-16-3.36-22.18-7.68-8.85-7.2-10.66,24.45.78,31.29-5.68,9.49-9.84,6.55-11.52-6.3-3.3-6.3-3.3,15.65-4.11,14.81-8.35-16.17-11.11-16.17-11.11S378.53,66.94,355.25,61.6s-73.32-11.84-85.36-12.4-20-10-36-9.43-32.57,6.44-32.57,6.44Z"/><g id="text989"><path id="path1226" class="cls-13" d="M166.73,343.78v1.85h2.2v.83h-2.2V350a1.63,1.63,0,0,0,.21,1,1.22,1.22,0,0,0,.89.23h1.1v.9h-1.1a2.47,2.47,0,0,1-1.71-.46,2.37,2.37,0,0,1-.47-1.69v-3.53h-.78v-.83h.78v-1.85Z"/><path id="path1228" class="cls-13" d="M175.74,348.21v3.93h-1.07v-3.9a2.23,2.23,0,0,0-.36-1.38,1.31,1.31,0,0,0-1.08-.46,1.75,1.75,0,0,0-1.36.55,2.14,2.14,0,0,0-.5,1.51v3.68h-1.08v-9h1.08v3.54a2.6,2.6,0,0,1,.9-.88,2.48,2.48,0,0,1,1.2-.29,2.07,2.07,0,0,1,1.7.7A3.14,3.14,0,0,1,175.74,348.21Z"/><path id="path1230" class="cls-13" d="M183.44,348.62v.52h-4.92a2.47,2.47,0,0,0,.67,1.68,2.27,2.27,0,0,0,1.66.58,4.68,4.68,0,0,0,1.19-.15,4.85,4.85,0,0,0,1.15-.46v1a7,7,0,0,1-1.18.37,6.26,6.26,0,0,1-1.23.12,3.34,3.34,0,0,1-2.46-.9,3.3,3.3,0,0,1-.91-2.45,3.63,3.63,0,0,1,.86-2.54,3,3,0,0,1,2.33-.94,2.65,2.65,0,0,1,2.07.85,3.3,3.3,0,0,1,.77,2.3Zm-1.07-.32a2.05,2.05,0,0,0-.49-1.4,1.63,1.63,0,0,0-1.27-.52,2,2,0,0,0-1.43.5,2.13,2.13,0,0,0-.62,1.43Z"/><path id="path1232" class="cls-13" d="M188.35,345.63h1.07l1.34,5.08,1.33-5.08h1.26l1.34,5.08,1.33-5.08h1.07l-1.71,6.51h-1.26l-1.4-5.34-1.4,5.34h-1.26Z"/><path id="path1234" class="cls-13" d="M201.66,348.87a3.78,3.78,0,0,0-1.79.29,1.09,1.09,0,0,0-.5,1,1.17,1.17,0,0,0,.37.91,1.49,1.49,0,0,0,1,.33,1.78,1.78,0,0,0,1.43-.63,2.49,2.49,0,0,0,.54-1.68v-.23Zm2.14-.45v3.72h-1.07v-1a2.46,2.46,0,0,1-.91.88,3,3,0,0,1-1.34.27,2.21,2.21,0,0,1-1.59-.55,2,2,0,0,1-.59-1.51,1.93,1.93,0,0,1,.73-1.65,3.57,3.57,0,0,1,2.2-.56h1.5v-.11a1.38,1.38,0,0,0-.49-1.13,2,2,0,0,0-1.36-.41,4.45,4.45,0,0,0-1.09.13,4.62,4.62,0,0,0-1,.4v-1a5.87,5.87,0,0,1,1.14-.34,4.94,4.94,0,0,1,1.07-.12,2.83,2.83,0,0,1,2.11.73,3.14,3.14,0,0,1,.7,2.22Z"/><path id="path1236" class="cls-13" d="M210.15,345.82v1a4.16,4.16,0,0,0-2-.46,2.33,2.33,0,0,0-1.19.24.8.8,0,0,0-.4.73.7.7,0,0,0,.29.59,3.45,3.45,0,0,0,1.14.4l.37.08a3.47,3.47,0,0,1,1.61.69,1.61,1.61,0,0,1,.48,1.24,1.7,1.7,0,0,1-.72,1.44,3.25,3.25,0,0,1-2,.52,6.05,6.05,0,0,1-1.09-.1,10.92,10.92,0,0,1-1.19-.3v-1.11a6.22,6.22,0,0,0,1.17.47,4.46,4.46,0,0,0,1.14.15,2.19,2.19,0,0,0,1.16-.26.81.81,0,0,0,.41-.73.81.81,0,0,0-.3-.67,3.57,3.57,0,0,0-1.28-.44l-.38-.09a2.85,2.85,0,0,1-1.43-.64,1.62,1.62,0,0,1-.44-1.19,1.71,1.71,0,0,1,.65-1.42,3,3,0,0,1,1.85-.5,6.57,6.57,0,0,1,1.11.09,5.5,5.5,0,0,1,1,.26Z"/><path id="path1238" class="cls-13" d="M213.23,351.16v3.45h-1.07v-9h1.07v1a2.2,2.2,0,0,1,.85-.86,2.49,2.49,0,0,1,1.23-.29,2.34,2.34,0,0,1,1.92.94,3.88,3.88,0,0,1,.75,2.48,3.83,3.83,0,0,1-.75,2.47,2.31,2.31,0,0,1-1.92.94,2.6,2.6,0,0,1-1.23-.27A2.29,2.29,0,0,1,213.23,351.16Zm3.64-2.27a3.06,3.06,0,0,0-.49-1.85,1.55,1.55,0,0,0-1.33-.67,1.56,1.56,0,0,0-1.34.67,3.81,3.81,0,0,0,0,3.7,1.56,1.56,0,0,0,1.34.67,1.55,1.55,0,0,0,1.33-.67A3.08,3.08,0,0,0,216.87,348.89Z"/><path id="path1240" class="cls-13" d="M223.53,345.63h1.07v6.51h-1.07Zm0-2.53h1.07v1.35h-1.07Z"/><path id="path1242" class="cls-13" d="M231,345.82v1a4.16,4.16,0,0,0-2-.46,2.33,2.33,0,0,0-1.19.24.8.8,0,0,0-.4.73.7.7,0,0,0,.29.59,3.45,3.45,0,0,0,1.14.4l.37.08a3.47,3.47,0,0,1,1.61.69,1.61,1.61,0,0,1,.48,1.24,1.7,1.7,0,0,1-.72,1.44,3.25,3.25,0,0,1-2,.52,6.05,6.05,0,0,1-1.09-.1,10.92,10.92,0,0,1-1.19-.3v-1.11a6,6,0,0,0,1.17.47,4.46,4.46,0,0,0,1.14.15,2.19,2.19,0,0,0,1.16-.26.81.81,0,0,0,.41-.73.81.81,0,0,0-.3-.67,3.57,3.57,0,0,0-1.28-.44l-.38-.09a2.85,2.85,0,0,1-1.43-.64,1.58,1.58,0,0,1-.44-1.19,1.68,1.68,0,0,1,.65-1.42,3,3,0,0,1,1.85-.5,6.57,6.57,0,0,1,1.11.09,5.5,5.5,0,0,1,1,.26Z"/><path id="path1244" class="cls-13" d="M239.77,348.87a3.78,3.78,0,0,0-1.79.29,1.09,1.09,0,0,0-.5,1,1.17,1.17,0,0,0,.37.91,1.49,1.49,0,0,0,1,.33,1.78,1.78,0,0,0,1.43-.63,2.49,2.49,0,0,0,.54-1.68v-.23Zm2.14-.45v3.72h-1.07v-1a2.46,2.46,0,0,1-.91.88,3,3,0,0,1-1.34.27,2.21,2.21,0,0,1-1.59-.55,2,2,0,0,1-.59-1.51,2,2,0,0,1,.73-1.65,3.59,3.59,0,0,1,2.2-.56h1.5v-.11a1.35,1.35,0,0,0-.49-1.13,2,2,0,0,0-1.36-.41,4.45,4.45,0,0,0-1.09.13,4.62,4.62,0,0,0-1,.4v-1a5.87,5.87,0,0,1,1.14-.34,4.94,4.94,0,0,1,1.07-.12,2.81,2.81,0,0,1,2.11.73,3.14,3.14,0,0,1,.7,2.22Z"/><path id="path1246" class="cls-13" d="M244.11,343.1h1.07v9h-1.07Z"/><path id="path1248" class="cls-13" d="M252.48,346.88a2.78,2.78,0,0,1,1-1.06,2.44,2.44,0,0,1,1.31-.35,1.86,1.86,0,0,1,1.57.72,3.2,3.2,0,0,1,.55,2v3.93H255.8v-3.9a2.34,2.34,0,0,0-.33-1.38,1.16,1.16,0,0,0-1-.46,1.68,1.68,0,0,0-1.32.55,2.22,2.22,0,0,0-.48,1.51v3.68h-1.07v-3.9a2.24,2.24,0,0,0-.34-1.38,1.16,1.16,0,0,0-1-.46,1.64,1.64,0,0,0-1.3.56,2.21,2.21,0,0,0-.48,1.5v3.68h-1.08v-6.51h1.08v1a2.39,2.39,0,0,1,.88-.88,2.43,2.43,0,0,1,1.21-.29,2,2,0,0,1,1.2.36,2.06,2.06,0,0,1,.74,1.05Z"/><path id="path1250" class="cls-13" d="M261.53,346.38a1.59,1.59,0,0,0-1.36.67,3,3,0,0,0-.5,1.84,3,3,0,0,0,.49,1.84,1.71,1.71,0,0,0,2.72,0,3.6,3.6,0,0,0,0-3.66,1.59,1.59,0,0,0-1.35-.68Zm0-.91a2.75,2.75,0,0,1,2.19.91,4.38,4.38,0,0,1,0,5,3.13,3.13,0,0,1-4.39,0,4.38,4.38,0,0,1,0-5A2.75,2.75,0,0,1,261.53,345.47Z"/><path id="path1252" class="cls-13" d="M270.43,345.82v1a4.42,4.42,0,0,0-.94-.35,4.74,4.74,0,0,0-1-.11,2.4,2.4,0,0,0-1.2.24.81.81,0,0,0-.39.73.69.69,0,0,0,.28.59,3.44,3.44,0,0,0,1.15.4l.36.08a3.52,3.52,0,0,1,1.62.69,1.61,1.61,0,0,1,.48,1.24,1.7,1.7,0,0,1-.72,1.44,3.27,3.27,0,0,1-2,.52,6,6,0,0,1-1.09-.1,10.37,10.37,0,0,1-1.19-.3v-1.11a5.73,5.73,0,0,0,1.17.47,4.45,4.45,0,0,0,1.13.15,2.23,2.23,0,0,0,1.17-.26.81.81,0,0,0,.4-.73.83.83,0,0,0-.29-.67,3.73,3.73,0,0,0-1.29-.44l-.37-.09a2.85,2.85,0,0,1-1.43-.64,1.58,1.58,0,0,1-.45-1.19,1.71,1.71,0,0,1,.65-1.42,3,3,0,0,1,1.85-.5,6.6,6.6,0,0,1,1.12.09,5.16,5.16,0,0,1,1,.26Z"/><path id="path1254" class="cls-13" d="M273.54,343.78v1.85h2.2v.83h-2.2V350a1.55,1.55,0,0,0,.22,1,1.19,1.19,0,0,0,.88.23h1.1v.9h-1.1a2.45,2.45,0,0,1-1.7-.46,2.32,2.32,0,0,1-.47-1.69v-3.53h-.79v-.83h.79v-1.85Z"/><path id="path1256" class="cls-13" d="M286.34,348.21v3.93h-1.07v-3.9a2.23,2.23,0,0,0-.36-1.38,1.31,1.31,0,0,0-1.08-.46,1.79,1.79,0,0,0-1.37.55,2.18,2.18,0,0,0-.5,1.51v3.68h-1.07v-9H282v3.54a2.78,2.78,0,0,1,.9-.88,2.49,2.49,0,0,1,1.21-.29,2.05,2.05,0,0,1,1.69.7,3.08,3.08,0,0,1,.58,2Z"/><path id="path1258" class="cls-13" d="M294,348.62v.52h-4.92a2.51,2.51,0,0,0,.66,1.68,2.29,2.29,0,0,0,1.67.58,4.73,4.73,0,0,0,1.19-.15,5,5,0,0,0,1.15-.46v1a7.32,7.32,0,0,1-1.18.37,6.33,6.33,0,0,1-1.23.12A3.11,3.11,0,0,1,288,349a3.59,3.59,0,0,1,.86-2.54,3,3,0,0,1,2.33-.94,2.67,2.67,0,0,1,2.07.85,3.3,3.3,0,0,1,.77,2.3ZM293,348.3a2.06,2.06,0,0,0-.5-1.4,1.61,1.61,0,0,0-1.26-.52,2.05,2.05,0,0,0-1.44.5,2.17,2.17,0,0,0-.61,1.43Z"/><path id="path1260" class="cls-13" d="M299.56,346.63a1.32,1.32,0,0,0-.39-.15,1.74,1.74,0,0,0-.47-.05,1.68,1.68,0,0,0-1.39.59,2.6,2.6,0,0,0-.49,1.69v3.43h-1.07v-6.51h1.07v1a2.25,2.25,0,0,1,.88-.88,2.8,2.8,0,0,1,1.32-.29l.24,0,.3,0Z"/><path id="path1262" class="cls-13" d="M306,348.62v.52h-4.92a2.51,2.51,0,0,0,.66,1.68,2.29,2.29,0,0,0,1.67.58,4.73,4.73,0,0,0,1.19-.15,5,5,0,0,0,1.15-.46v1a7.32,7.32,0,0,1-1.18.37,6.33,6.33,0,0,1-1.23.12A3.11,3.11,0,0,1,300,349a3.59,3.59,0,0,1,.86-2.54,3,3,0,0,1,2.33-.94,2.67,2.67,0,0,1,2.07.85,3.3,3.3,0,0,1,.77,2.3Zm-1.07-.32a2.06,2.06,0,0,0-.5-1.4,1.61,1.61,0,0,0-1.26-.52,2.05,2.05,0,0,0-1.44.5,2.17,2.17,0,0,0-.61,1.43Z"/><path id="path1264" class="cls-13" d="M307.89,350.66h1.23v1.48h-1.23Z"/><path id="path1266" class="cls-13" d="M165.05,360.5h1.07l1.33,5.08,1.33-5.08H170l1.34,5.08,1.33-5.08h1.07l-1.7,6.51h-1.26l-1.4-5.33L168,367h-1.26Z"/><path id="path1268" class="cls-13" d="M180.81,363.08V367h-1.07v-3.89a2.24,2.24,0,0,0-.36-1.39,1.31,1.31,0,0,0-1.08-.46,1.76,1.76,0,0,0-1.37.56,2.16,2.16,0,0,0-.5,1.5V367h-1.07v-9h1.07v3.54a2.65,2.65,0,0,1,.9-.87,2.38,2.38,0,0,1,1.21-.29,2.07,2.07,0,0,1,1.69.69,3.08,3.08,0,0,1,.58,2Z"/><path id="path1270" class="cls-13" d="M185.9,363.74a3.93,3.93,0,0,0-1.8.29,1.1,1.1,0,0,0-.5,1,1.18,1.18,0,0,0,.37.9,1.53,1.53,0,0,0,1,.33,1.8,1.8,0,0,0,1.42-.62A2.53,2.53,0,0,0,187,364v-.24Zm2.13-.44V367H187v-1a2.32,2.32,0,0,1-.91.88,3,3,0,0,1-1.34.28,2.25,2.25,0,0,1-1.59-.56,2,2,0,0,1-.59-1.51,1.94,1.94,0,0,1,.74-1.65,3.61,3.61,0,0,1,2.19-.56H187v-.1a1.37,1.37,0,0,0-.49-1.14,2,2,0,0,0-1.36-.41,4.32,4.32,0,0,0-1.08.14,3.74,3.74,0,0,0-1,.4v-1a6.66,6.66,0,0,1,1.14-.34,5,5,0,0,1,1.07-.11,2.77,2.77,0,0,1,2.11.73,3.08,3.08,0,0,1,.7,2.22Z"/><path id="path1272" class="cls-13" d="M191.29,358.65v1.85h2.2v.83h-2.2v3.53a1.65,1.65,0,0,0,.21,1,1.29,1.29,0,0,0,.89.22h1.1v.9h-1.1a2.45,2.45,0,0,1-1.71-.46,2.37,2.37,0,0,1-.47-1.69v-3.53h-.78v-.83h.78v-1.85Z"/><path id="path1274" class="cls-13" d="M201.64,363.74a3.93,3.93,0,0,0-1.8.29,1.1,1.1,0,0,0-.5,1,1.15,1.15,0,0,0,.37.9,1.49,1.49,0,0,0,1,.33,1.8,1.8,0,0,0,1.43-.62,2.53,2.53,0,0,0,.54-1.68v-.24Zm2.13-.44V367H202.7v-1a2.39,2.39,0,0,1-.91.88,3,3,0,0,1-1.34.28,2.22,2.22,0,0,1-1.59-.56,2,2,0,0,1-.59-1.51,2,2,0,0,1,.73-1.65,3.66,3.66,0,0,1,2.2-.56h1.5v-.1a1.37,1.37,0,0,0-.49-1.14,2,2,0,0,0-1.36-.41,4.46,4.46,0,0,0-1.09.14,3.8,3.8,0,0,0-1,.4v-1a6.66,6.66,0,0,1,1.14-.34,4.92,4.92,0,0,1,1.07-.11,2.77,2.77,0,0,1,2.11.73,3.13,3.13,0,0,1,.7,2.22Z"/><path id="path1276" class="cls-13" d="M209.74,361.5a1.28,1.28,0,0,0-.4-.15,2.16,2.16,0,0,0-.46-.05,1.71,1.71,0,0,0-1.39.59,2.56,2.56,0,0,0-.49,1.69V367h-1.07V360.5H207v1a2.23,2.23,0,0,1,.88-.87,2.67,2.67,0,0,1,1.31-.29h.25l.29,0Z"/><path id="path1278" class="cls-13" d="M216.16,363.49V364h-4.91a2.54,2.54,0,0,0,.66,1.69,2.31,2.31,0,0,0,1.66.57,4.68,4.68,0,0,0,1.19-.15,5.35,5.35,0,0,0,1.16-.45v1a7.32,7.32,0,0,1-1.18.37,6.42,6.42,0,0,1-1.23.13,3.14,3.14,0,0,1-3.38-3.36,3.59,3.59,0,0,1,.86-2.53,3,3,0,0,1,2.33-.94,2.67,2.67,0,0,1,2.08.84,3.29,3.29,0,0,1,.76,2.3Zm-1.06-.32a2.06,2.06,0,0,0-.5-1.4,1.66,1.66,0,0,0-1.26-.52,2,2,0,0,0-1.44.51,2.13,2.13,0,0,0-.62,1.42Z"/><path id="path1280" class="cls-13" d="M224.41,367.61a3.94,3.94,0,0,1-.88,1.52,1.74,1.74,0,0,1-1.15.35h-.86v-.89h.63a1,1,0,0,0,.68-.21,2.48,2.48,0,0,0,.54-1l.2-.49-2.64-6.4h1.14l2,5.09,2-5.09h1.14Z"/><path id="path1282" class="cls-13" d="M231.26,361.25a1.62,1.62,0,0,0-1.36.68,3,3,0,0,0-.5,1.83,3,3,0,0,0,.5,1.84,1.72,1.72,0,0,0,2.72,0,3.62,3.62,0,0,0,0-3.67A1.62,1.62,0,0,0,231.26,361.25Zm0-.9a2.77,2.77,0,0,1,2.19.9,4.34,4.34,0,0,1,0,5,3.09,3.09,0,0,1-4.38,0,4.38,4.38,0,0,1,0-5A2.77,2.77,0,0,1,231.26,360.35Z"/><path id="path1284" class="cls-13" d="M235.91,364.44V360.5H237v3.9a2.24,2.24,0,0,0,.36,1.39,1.31,1.31,0,0,0,1.08.46,1.79,1.79,0,0,0,1.37-.55,2.18,2.18,0,0,0,.5-1.51V360.5h1.07V367h-1.07v-1a2.69,2.69,0,0,1-.9.88,2.45,2.45,0,0,1-1.2.29,2.11,2.11,0,0,1-1.7-.7,3.14,3.14,0,0,1-.58-2Z"/><path id="path1286" class="cls-13" d="M251.63,363.68a2.88,2.88,0,0,0-.49-1.8,1.55,1.55,0,0,0-1.34-.64,1.58,1.58,0,0,0-1.34.64,2.94,2.94,0,0,0-.48,1.8,2.91,2.91,0,0,0,.48,1.79,1.58,1.58,0,0,0,1.34.64,1.55,1.55,0,0,0,1.34-.64A2.85,2.85,0,0,0,251.63,363.68Zm1.07,2.52a3.57,3.57,0,0,1-.74,2.47,2.91,2.91,0,0,1-2.26.81,7.27,7.27,0,0,1-1.07-.08,5.56,5.56,0,0,1-1-.26v-1a4.45,4.45,0,0,0,.93.38,3.73,3.73,0,0,0,.94.12,2.06,2.06,0,0,0,1.57-.55,2.33,2.33,0,0,0,.53-1.66v-.53a2.2,2.2,0,0,1-.85.86,2.55,2.55,0,0,1-1.24.29,2.38,2.38,0,0,1-1.93-.91,4.38,4.38,0,0,1,0-4.84,2.35,2.35,0,0,1,1.93-.91,2.55,2.55,0,0,1,1.24.28,2.27,2.27,0,0,1,.85.86v-1h1.07Z"/><path id="path1288" class="cls-13" d="M257.42,361.25a1.61,1.61,0,0,0-1.36.68,3,3,0,0,0-.5,1.83,3,3,0,0,0,.49,1.84,1.62,1.62,0,0,0,1.37.67,1.58,1.58,0,0,0,1.35-.67,3.62,3.62,0,0,0,0-3.67,1.59,1.59,0,0,0-1.35-.68Zm0-.9a2.77,2.77,0,0,1,2.19.9,4.38,4.38,0,0,1,0,5,3.1,3.1,0,0,1-4.39,0,4.38,4.38,0,0,1,0-5A2.79,2.79,0,0,1,257.42,360.35Z"/><path id="path1290" class="cls-13" d="M262.18,360.5h1.07V367h-1.07Zm0-2.53h1.07v1.35h-1.07Z"/><path id="path1292" class="cls-13" d="M270.89,363.08V367h-1.07v-3.89a2.24,2.24,0,0,0-.36-1.39,1.31,1.31,0,0,0-1.08-.46,1.73,1.73,0,0,0-1.36.56,2.11,2.11,0,0,0-.5,1.5V367h-1.08V360.5h1.08v1a2.48,2.48,0,0,1,.9-.87,2.37,2.37,0,0,1,1.2-.29,2.1,2.1,0,0,1,1.7.69A3.14,3.14,0,0,1,270.89,363.08Z"/><path id="path1294" class="cls-13" d="M277.3,363.68a2.94,2.94,0,0,0-.48-1.8,1.72,1.72,0,0,0-2.68,0,2.94,2.94,0,0,0-.48,1.8,2.91,2.91,0,0,0,.48,1.79,1.72,1.72,0,0,0,2.68,0A2.91,2.91,0,0,0,277.3,363.68Zm1.07,2.52a3.57,3.57,0,0,1-.73,2.47,2.93,2.93,0,0,1-2.26.81,7.27,7.27,0,0,1-1.07-.08,5.56,5.56,0,0,1-1-.26v-1a4.45,4.45,0,0,0,.93.38,3.73,3.73,0,0,0,.94.12,2.06,2.06,0,0,0,1.57-.55,2.33,2.33,0,0,0,.52-1.66v-.53a2.17,2.17,0,0,1-.84.86,2.55,2.55,0,0,1-1.24.29,2.38,2.38,0,0,1-1.93-.91,4.38,4.38,0,0,1,0-4.84,2.35,2.35,0,0,1,1.93-.91,2.55,2.55,0,0,1,1.24.28,2.24,2.24,0,0,1,.84.86v-1h1.07Z"/><path id="path1296" class="cls-13" d="M285.41,358.65v1.85h2.21v.83h-2.21v3.53a1.63,1.63,0,0,0,.22,1,1.28,1.28,0,0,0,.89.22h1.1v.9h-1.1a2.42,2.42,0,0,1-1.71-.46,2.37,2.37,0,0,1-.47-1.69v-3.53h-.78v-.83h.78v-1.85Z"/><path id="path1298" class="cls-13" d="M291.54,361.25a1.62,1.62,0,0,0-1.36.68,3,3,0,0,0-.5,1.83,3,3,0,0,0,.5,1.84,1.72,1.72,0,0,0,2.72,0,3.62,3.62,0,0,0,0-3.67A1.62,1.62,0,0,0,291.54,361.25Zm0-.9a2.77,2.77,0,0,1,2.19.9,4.34,4.34,0,0,1,0,5,3.09,3.09,0,0,1-4.38,0,4.38,4.38,0,0,1,0-5A2.77,2.77,0,0,1,291.54,360.35Z"/><path id="path1300" class="cls-13" d="M304.37,361.49V358h1.06v9h-1.06v-1a2.25,2.25,0,0,1-.86.87,2.6,2.6,0,0,1-1.23.28,2.34,2.34,0,0,1-1.92-.94,3.93,3.93,0,0,1-.74-2.48,3.89,3.89,0,0,1,.74-2.47,2.31,2.31,0,0,1,1.92-.94,2.49,2.49,0,0,1,1.23.28A2.22,2.22,0,0,1,304.37,361.49Zm-3.65,2.27a3,3,0,0,0,.49,1.85,1.55,1.55,0,0,0,1.33.67,1.56,1.56,0,0,0,1.34-.67,3.74,3.74,0,0,0,0-3.7,1.56,1.56,0,0,0-1.34-.67,1.55,1.55,0,0,0-1.33.67A3.06,3.06,0,0,0,300.72,363.76Z"/><path id="path1302" class="cls-13" d="M310.16,361.25a1.59,1.59,0,0,0-1.36.68,3,3,0,0,0-.5,1.83,3,3,0,0,0,.49,1.84,1.62,1.62,0,0,0,1.37.67,1.58,1.58,0,0,0,1.35-.67,3.62,3.62,0,0,0,0-3.67A1.59,1.59,0,0,0,310.16,361.25Zm0-.9a2.77,2.77,0,0,1,2.19.9,4.38,4.38,0,0,1,0,5,3.1,3.1,0,0,1-4.39,0,4.38,4.38,0,0,1,0-5A2.78,2.78,0,0,1,310.16,360.35Z"/><path id="path1304" class="cls-13" d="M324.11,363.08V367H323v-3.89a2.24,2.24,0,0,0-.36-1.39,1.31,1.31,0,0,0-1.08-.46,1.75,1.75,0,0,0-1.37.56,2.16,2.16,0,0,0-.5,1.5V367h-1.07V360.5h1.07v1a2.65,2.65,0,0,1,.9-.87,2.38,2.38,0,0,1,1.21-.29,2.07,2.07,0,0,1,1.69.69,3.14,3.14,0,0,1,.58,2Z"/><path id="path1306" class="cls-13" d="M328.76,361.25a1.61,1.61,0,0,0-1.36.68,3,3,0,0,0-.5,1.83,3.11,3.11,0,0,0,.49,1.84,1.62,1.62,0,0,0,1.37.67,1.58,1.58,0,0,0,1.35-.67,3.62,3.62,0,0,0,0-3.67A1.59,1.59,0,0,0,328.76,361.25Zm0-.9a2.77,2.77,0,0,1,2.19.9,4.34,4.34,0,0,1,0,5,3.1,3.1,0,0,1-4.39,0,4.38,4.38,0,0,1,0-5A2.79,2.79,0,0,1,328.76,360.35Z"/><path id="path1308" class="cls-13" d="M332.9,360.5H334l1.33,5.08,1.33-5.08h1.26l1.34,5.08,1.33-5.08h1.07l-1.7,6.51h-1.26l-1.4-5.33L335.86,367H334.6Z"/><path id="path1310" class="cls-13" d="M344.4,365.53h1.18V367H344.4Zm1.14-.85h-1.11v-.9a2.39,2.39,0,0,1,.17-1,3,3,0,0,1,.68-.88l.53-.51a2.33,2.33,0,0,0,.47-.59,1.11,1.11,0,0,0,.15-.55,1,1,0,0,0-.38-.84,1.53,1.53,0,0,0-1-.32,2.85,2.85,0,0,0-1,.2,6,6,0,0,0-1.08.6v-1.1a4.71,4.71,0,0,1,1.11-.49,4.06,4.06,0,0,1,1.16-.16,2.53,2.53,0,0,1,1.71.56,1.86,1.86,0,0,1,.65,1.49,1.8,1.8,0,0,1-.21.84,3.93,3.93,0,0,1-.73.9l-.51.5a4.06,4.06,0,0,0-.39.43,1,1,0,0,0-.16.29,1.86,1.86,0,0,0-.05.3c0,.11,0,.27,0,.47Z"/></g></svg>