<svg id="Layer_1" data-name="Layer 1" xmlns="http://www.w3.org/2000/svg" viewBox="0 0 512 512">
    <defs>
        <style>
            .cls-1 {
                fill: #ffbfdc;
            }

            .cls-12,
            .cls-2 {
                fill: #ffd2fc;
            }

            .cls-2 {
                opacity: 0.74;
            }

            .cls-2,
            .cls-3,
            .cls-4,
            .cls-8 {
                isolation: isolate;
            }

            .cls-3 {
                fill: #ff1578;
                opacity: 0.67;
            }

            .cls-4 {
                fill: #d3e6fa;
            }

            .cls-4,
            .cls-8 {
                opacity: 0.3;
            }

            .cls-5,
            .cls-8 {
                fill: #fff;
            }

            .cls-6 {
                fill: #ec368d;
            }

            .cls-7 {
                fill: #150001;
            }

            .cls-8 {
                stroke: #f5ef99;
                stroke-miterlimit: 37.8;
                stroke-width: 0.39px;
            }

            .cls-9 {
                fill: #e980fc;
            }

            .cls-10 {
                fill: #df5f95;
            }

            .cls-11 {
                fill: #ffaaf1;
            }

            .cls-13 {
                fill: #ff6aa9;
            }

            .cls-14 {
                fill: #ffc3ef;
            }

            .cls-15 {
                fill: #b96ac9;
            }

            .cls-16 {
                fill: #ff8ae6;
            }

            .cls-17 {
                fill: #ff8ab1;
            }

            .cls-18 {
                fill: #ff5ffc;
            }

            .cls-19 {
                fill: #ff8acb;
            }

            .cls-20 {
                fill: #ff6ae7;
            }

            .cls-21 {
                fill: #ec36c9;
            }

            .cls-22 {
                fill: #ff3fa6;
            }

            .cls-23 {
                fill: #88008a;
            }

            .cls-24 {
                fill: #ff6ac6;
            }

            .cls-25 {
                fill: #db1381;
            }

            .cls-26 {
                fill: #e90055;
            }
        </style>
    </defs>
    <path class="cls-1"
        d="M494.11,278.06c-23.34-72.51-6.59-153.83-37.32-215S167-24.39,97.77,90.27c0,0-8,89.24-62.79,192.27-32.47,61,44.5,98.22,121.48,132.36L274.32,306.4c4.49.39,54.38-33.83,54.38-33.83L182.35,426.37c43.5,19.41,82.93,38.59,97.43,61.5C322.32,555.09,517.46,350.56,494.11,278.06Z" />
    <path id="path315" class="cls-2"
        d="M88.44,175.9S112.16,54,226.68,71.19,403.06,150.72,293.81,213,126.64,266,88.44,175.9Z" />
    <path id="path317" class="cls-3"
        d="M61.54,398.93c73.75-63.67,154.92-109.73,234.54-76.45s93.47-32.39,102.1-95.34S596.37,333.27,457,393.54s-174.78,30.58-179.11-7.2S61.54,398.93,61.54,398.93Z" />
    <path class="cls-4"
        d="M290.78,290.63,156.48,414.28c9.9,4.38,19.78,8.73,29.5,13.06L352.74,252.08S295.9,291.08,290.78,290.63Z" />
    <path class="cls-5"
        d="M290.78,290.63,156.48,414.28c9.9,4.38,19.78,8.73,29.5,13.06L352.74,252.08S295.9,291.08,290.78,290.63Z" />
    <g id="legs">
        <path id="path323" class="cls-6"
            d="M187.7,319.21s5.63,37.69,2.79,46.2-8.62,22.18-8.62,22.18a70,70,0,0,1,7.46-6.28c1.33-.94,3.15-2.46,4.93-2.36,1,.05,1.76,1,2.42,1.71a39.23,39.23,0,0,1,4.44,5.51,16.51,16.51,0,0,1,2.91,7.36v.08a9.9,9.9,0,0,1-1.28,6.09s5.66,2,5-10.9c.47.67.91,1.34,1.33,2a12.85,12.85,0,0,1,1.71,3.7,3.39,3.39,0,0,0,.15-.41c.07-.23.14-.48.2-.72.12-.46.22-.93.31-1.39.2-.95.36-1.91.51-2.87a18.5,18.5,0,0,0,.26-2.57c0-1.43,0-2.06,1.54-1a3.78,3.78,0,0,1,1.53,3.39,8.73,8.73,0,0,0,.22-4.76,53.71,53.71,0,0,0-5.79-16.33,68.91,68.91,0,0,1-8.17-35.28,77.49,77.49,0,0,1,1.9-15.24S188.3,319.8,187.7,319.21Z" />
        <path id="path325" class="cls-6"
            d="M223.36,313.54s2.71,25.64,2.71,27.21-6.41,11.07-6.9,13.61c0,0,9.55-2.2,11.17-.57s12.12,8.44,6.45,20.91c0,0,6.92-4.19,6.92-7.33,0,0,3.78,1.88,3.26,4.82,0,0,3.35-5.54,1.67-9.54,0,0,4.93,3.69,4.93,5.24,0,0,6.3-6.4.94-13s-9.53-4.61-13.42-10.27-3.88-34.69-3.88-34.69-12.66,3.62-13.85,3.62Z" />
    </g>
    <path id="path328" class="cls-6"
        d="M487.16,78.64c-18,13.26-33.84,28.82-46.66,47.15-34.93,49.9-61.61,107.86-113.22,143.36-24.16,16.63-51.23,28.66-79.13,37.52-29.13,9.24-60.29,15.51-90.94,12.1A424.5,424.5,0,0,1,113,311.3L-123.42,438.47l14.57-12L-140,440.61,85.66,263.49,113.89,233s129.3-127.76,169-130.16,54-26.49,54-26.49A42.64,42.64,0,0,1,344.46,70h0c.36-.09,6.23-1.58,14.67-3.08,0,0,61.33,18.16,84.94,11h0C470.84,83.81,487.16,78.64,487.16,78.64Z" />
    <circle id="circle330" class="cls-7" cx="394.31" cy="94.74" r="10.28" />
    <ellipse id="ellipse332" class="cls-8" cx="397.9" cy="95.26" rx="3.43" ry="3.1" />
    <ellipse id="ellipse334" class="cls-8" cx="398.27" cy="88.68" rx="1.28" ry="0.93" />
    <path id="path336" class="cls-9"
        d="M301.14,170.89a125.71,125.71,0,0,1-22.38,12.37c-15.93,6.51-26.15,4.8-32.7.24-10.47-7.28-11.55-21.82-11.55-21.82,9.34,1.84,25,3.81,38.57.45.32.38,9.24,10.62,25.64,5.34a20.52,20.52,0,0,0,2.42,3.42Z" />
    <path id="path338" class="cls-10"
        d="M232.43,203.22c-5.82,5.36-11.4,7.2-16.48,7a21.17,21.17,0,0,1-7.82-1.93c-10-4.52-16.69-15.35-16.69-15.35,3.89-.89,8.22-3.21,12.76-7.87A42.25,42.25,0,0,0,217,188.32,45.3,45.3,0,0,0,232.43,203.22Z" />
    <path id="path340" class="cls-11"
        d="M208.13,208.29c-9.73,6.72-18.2,10.92-25.56,13.31-8.27,2.67-15.14,3.08-20.77,2.14h0a30.4,30.4,0,0,1-22.37-16.32c6-1.52,13.43-6.63,22.54-18.22A32.35,32.35,0,0,0,173.14,187c.3.32,7.72,8.39,18.3,6,0,0,6.66,10.83,16.69,15.35Z" />
    <path id="path342" class="cls-12"
        d="M204.2,185.07c-4.54,4.66-8.87,7-12.76,7.87-10.58,2.42-18-5.65-18.3-6,5.32-2,11.27-5.48,17.87-11a41.76,41.76,0,0,0,13.19,9.12Z" />
    <path id="path344" class="cls-13"
        d="M224.07,226.09c-36.35,12.13-41.5-4.49-41.5-4.49,7.39-2.39,15.83-6.59,25.56-13.31a21,21,0,0,0,7.83,1.9A20.6,20.6,0,0,0,224.07,226.09Z" />
    <path id="path346" class="cls-14"
        d="M324,110.77c-51,18.9-70-4.88-70.37-5.37,1.31-.3,2.61-.58,3.93-.86,15.17-3.13,32.87-7.39,48.05-2.29A86.51,86.51,0,0,1,324,110.77Z" />
    <path id="path348" class="cls-15"
        d="M183.83,257.84a337,337,0,0,1-47.4,5.74A48.47,48.47,0,0,1,113,258.19h0a36.63,36.63,0,0,1-9.62-7c8.87,1,20-.92,31.9-10.79a17.81,17.81,0,0,0,10.77,6c0,.34-.38,11.89,37.76,11.45Z" />
    <path id="path350" class="cls-16"
        d="M57,276.37c5.24-7.76,10.66-15.92,17.54-22.34.44-.4,11.09,3.7,12.12,4a61.76,61.76,0,0,0,24.85.75,6.58,6.58,0,0,1,2-.11,7,7,0,0,1,1.88.67,48.44,48.44,0,0,0,21.05,4.27" />
    <path id="path352" class="cls-17"
        d="M113.07,258.19c-16.75,5.55-38.5-4.16-38.5-4.16a85.49,85.49,0,0,0,9.31-10.72,40,40,0,0,0,19.57,7.89h0A36.77,36.77,0,0,0,113.07,258.19Z" />
    <path id="path354" class="cls-15"
        d="M148.3,218c-33.27,25.63-47.88,2.66-47.88,2.66,5.35-7.19,11.71-15.44,19.57-24.81,0,0,5.89,15,19.44,11.55A29.82,29.82,0,0,0,148.3,218Z" />
    <path id="path356" class="cls-12"
        d="M162,189.2c-9.11,11.58-16.57,16.69-22.54,18.21C125.87,210.87,120,195.86,120,195.86c5.38-6.42,11.45-13.37,18.38-20.89,0,0,7.49,14.37,23.6,14.23Z" />
    <path id="path358" class="cls-15"
        d="M270.45,226.32c-5.19,2.93-10.39,5.63-15.52,8.1a304,304,0,0,1-28.34,11.67l-2.7,1h-.09c-29.61,8.93-45.49.61-53.72-8.47a36.72,36.72,0,0,1-8.28-14.83c5.63.91,12.5.53,20.77-2.15,0,0,5.15,16.64,41.5,4.5h0c7.21,5.38,20.78,8.22,46.38.22Z" />
    <path id="path360" class="cls-12"
        d="M223.8,247.07a288.66,288.66,0,0,1-40,10.77h0c-38.14.44-37.76-11.09-37.74-11.45a17.84,17.84,0,0,1-10.77-6c-11.85,9.86-23,11.8-31.9,10.79h0a40.05,40.05,0,0,1-19.57-7.9c4.54-6,9.73-13.45,16.57-22.64,0,0,14.62,23,47.88-2.66a29.88,29.88,0,0,0,13.5,5.73h0a36.81,36.81,0,0,0,8.27,14.86c8.22,9.09,24.1,17.41,53.71,8.47Z" />
    <path id="path362" class="cls-18"
        d="M298.77,207.69a238.3,238.3,0,0,1-28.31,18.63h0c-25.6,8-39.17,5.15-46.37-.23h0a20.58,20.58,0,0,1-8.13-15.9c5.08.21,10.66-1.64,16.48-7,8.81,5.1,21.44,8,38,1.45C275.56,210,284.25,213.2,298.77,207.69Z" />
    <path id="path364" class="cls-19"
        d="M324,184.1a171,171,0,0,1-25.26,23.59c-14.51,5.51-23.2,2.31-28.38-3-16.52,6.58-29.14,3.64-37.95-1.45A45.14,45.14,0,0,1,217,188.31c8,.76,17.61-.41,29.07-4.81,6.55,4.56,16.77,6.27,32.69-.24.35.48,17.09,22.38,45.27.84Z" />
    <path id="path366" class="cls-20"
        d="M207,158.44c-10.34,4.42-18.44,5.45-24.72,4.74-14.62-1.68-19.36-12.85-19.36-12.85q6.66-5.81,13.83-11h0l0,0,.07.08.17.16.13.14.32.32.18.17.86.83.42.39.89.8c.13.12.26.25.4.36,1,.93,2.29,2,3.7,3.13l.46.37,1.11.85.44.33.49.36c.19.14.36.28.54.4l.56.4c2,1.4,4.16,2.85,6.53,4.21l1.14.62c.71.39,1.43.78,2.17,1.15.38.19.75.39,1.14.57l.73.35.85.39,1.09.48q.51.22,1,.42l.82.32.77.31.78.28.79.28c.31.09.61.21.93.3Z" />
    <path id="path368" class="cls-12"
        d="M246.06,183.5c-11.46,4.4-21.07,5.57-29.07,4.81a42.23,42.23,0,0,1-12.79-3.24A41.6,41.6,0,0,1,191,176a43.12,43.12,0,0,1-8.78-12.76c6.28.72,14.38-.31,24.72-4.74l.11,0,1.24.34.86.23.93.22c.31.08.46.12.69.16s.69.15,1,.21l.83.15,1,.16c.53.08,1,.14,1.57.19l.52.06.66.06.51,0c.69,0,1.37.06,2.06.08h.82c.93,0,1.85-.06,2.78-.14s1.85-.19,2.73-.35c.32,0,.62-.1.95-.16,0,0,3.21.94,8.3,1.93,0,0,1.09,14.54,11.54,21.83Z" />
    <path id="path370" class="cls-15"
        d="M191,176c-6.61,5.55-12.56,9-17.87,11A32.42,32.42,0,0,1,162,189.2c-16.11.14-23.6-14.23-23.6-14.23q6.27-6.81,13.52-14.24,3.23-3.3,6.6-6.44c1.45-1.33,2.91-2.65,4.4-3.94,0,0,4.73,11.16,19.35,12.84A43.12,43.12,0,0,0,191,176Z" />
    <path id="path372" class="cls-21"
        d="M253.17,140.37c-8.53,12-17.87,17.6-27,19.37-.32.06-.62.12-.94.16-.92.16-1.83.28-2.74.35s-1.85.13-2.77.14h-.83c-.69,0-1.37,0-2.05-.08l-.52,0-.66-.06-.51-.06c-.53-.05-1.05-.11-1.57-.19l-1-.16-.83-.15c-.34-.06-.69-.13-1-.21s-.47-.1-.7-.16l-.93-.22-.86-.22-1.23-.35-.12,0-.66-.21-.94-.3-.78-.28-.79-.28-.77-.3-.81-.32-1-.43-1.09-.48-.85-.38c-.29-.13-.49-.23-.73-.36s-.76-.37-1.14-.56c-.74-.37-1.47-.76-2.18-1.15l-1.14-.62c-2.36-1.37-4.55-2.81-6.53-4.22-.18-.12-.37-.26-.55-.4l-.54-.39-.5-.36-.43-.34-1.11-.85c-.16-.12-.32-.24-.46-.36-1.45-1.14-2.7-2.21-3.7-3.13l-.41-.36c-.32-.28-.61-.56-.88-.8l-.42-.4c-.34-.31-.62-.61-.87-.82a1.37,1.37,0,0,0-.17-.17l-.32-.33-.13-.13-.17-.17-.07-.07,0,0h0A199.88,199.88,0,0,1,194,128.34s22.27,19.27,59.18,12Z" />
    <path id="path374" class="cls-6"
        d="M286.39,127.64a110.77,110.77,0,0,1-33.22,12.72c-36.91,7.24-59.23-12.07-59.23-12.07q7.77-4.44,15.91-8.19,4.5-2.07,9.08-3.92h0c.5.38,26.27,19.63,60.95,7.09a35.29,35.29,0,0,0,6.51,4.37Z" />
    <path id="path376" class="cls-22"
        d="M344.11,143.19c-.21,8.38-3.26,16.57-7.59,23.8-19.1,17.75-30.67,9.37-35.36,3.9a19.89,19.89,0,0,1-2.41-3.42c-16.39,5.28-25.33-5-25.65-5.34-13.55,3.36-29.22,1.37-38.56-.45-5.09-1-8.31-1.94-8.31-1.94,9.12-1.77,18.44-7.39,27-19.37a110.4,110.4,0,0,0,33.22-12.72c1.24.66,2.62,1.34,4.18,2,0,0-12.52,17.47,18.87,18.43s34.65-4.89,34.65-4.89Z" />
    <path id="path378" class="cls-23"
        d="M336.5,167A123.1,123.1,0,0,1,324,184.1c-28.18,21.56-44.92-.36-45.27-.84a125.71,125.71,0,0,0,22.38-12.37c4.69,5.47,16.28,13.85,35.36-3.9Z" />
    <path id="path380" class="cls-24"
        d="M344.11,143.19s-3.24,5.86-34.65,4.89-18.87-18.43-18.87-18.43c10.16,4.31,27.26,7.58,49.91-2.24a30.86,30.86,0,0,1,3.61,13.78Z" />
    <path id="path382" class="cls-12"
        d="M340.46,127.41c-22.64,9.82-39.73,6.53-49.91,2.24-1.55-.66-2.95-1.34-4.17-2a34.4,34.4,0,0,1-6.5-4.37c-34.68,12.54-60.45-6.71-60.95-7.09a221.39,221.39,0,0,1,34.68-10.79c.39.49,19.42,24.27,70.38,5.37C330.85,115.09,336.84,120.56,340.46,127.41Z" />
    <path id="path387" d="M439.82,95.26s44-16,47.34-16.63C487.16,78.64,468.87,87.47,439.82,95.26Z" />
    <path id="path389" class="cls-25" d="M373,189.06S287.08,293.37,155.41,299c0,0,132.14,4.24,217.55-110Z" />
    <path id="path391" class="cls-26"
        d="M413,67.21c-14.58-5.72-38.49-3-53.87-.28-8.44,1.49-14.31,3-14.67,3.08C355.16,62.75,377,53.27,409,65.28c1.36.67,2.7,1.31,4,1.93Z" />
    <path id="path385" class="cls-25" d="M365.88,171.6s-59.45,84.94-134.49,94.88c0,0,84.94-10.88,134.49-94.88Z" />
    <path id="path393" class="cls-25"
        d="M418,160.41s-145.45,167.35-253.74,159C164.29,319.37,320.16,343.71,418,160.41Z" />
    <path id="path395" class="cls-25" d="M78,300-29.1,371.69S74.88,304.89,78,300Z" />
    <path id="path397" class="cls-25"
        d="M348.58,100l34-2.53s-10.07,3.77-12,5.66,14.06.42,14.06.42l-6.5,5s13.63.21,19.71-1.67,22.64-6.7,22.64-6.7l-12.78,6.5L426,105.46l-18.24,7.75h11.74A67.49,67.49,0,0,1,383.4,121c-20.55-1.48-24.33-8.81-32.51-8.81,0,0,10.23-2,11.74-2.62,0,0-3.41-3-10.22-3s-11-5.87-11-5.87Z" />
    <path id="path399" class="cls-25"
        d="M444.09,77.9a31.58,31.58,0,0,1-4,.92c-1.48.25-3,.43-4.48.55s-3.28.19-4.93.21-3.52,0-5.28-.09-3.7-.2-5.55-.35-3.84-.35-5.75-.58-3.91-.48-5.87-.77-3.93-.61-5.9-.91-3.89-.68-5.84-1-3.81-.73-5.71-1.12-3.66-.76-5.48-1.16-3.46-.78-5.19-1.18l-4.81-1.15c-1.44-.35-2.89-.72-4.31-1.08-1.27-.33-2.53-.62-3.79-1l-3.15-.85c-1.24-.34-2.47-.66-3.7-1a5.93,5.93,0,0,1-.73-.16c-.32-.13,0-.29.16-.35a4.79,4.79,0,0,1,.93-.19l1.62-.27,3.39-.53c2.4-.35,4.82-.66,7.23-1s5.09-.52,7.64-.7,5.19-.3,7.79-.35,5.12,0,7.67.14,4.89.37,7.31.75a49.71,49.71,0,0,1,6.7,1.46,29.16,29.16,0,0,1,2.94,1c1,.39,1.93.88,2.88,1.3a148.17,148.17,0,0,0,28.17,9.4Z" />
    <polygon id="polygon401" class="cls-25" points="-140 440.59 71.93 274.46 -108.85 426.43 -140 440.59" />
    <polygon id="polygon403" class="cls-25" points="19.82 356.59 112.95 311.29 -123.42 438.47 19.82 356.59" />
</svg>