<svg id="Layer_1" data-name="Layer 1" xmlns="http://www.w3.org/2000/svg" viewBox="0 0 512 512"><defs><style>.cls-1{fill:#bfb3ff;}.cls-2,.cls-9{fill:#ffd2fc;}.cls-2{opacity:0.74;}.cls-2,.cls-3,.cls-4,.cls-6{isolation:isolate;}.cls-10,.cls-3{fill:#ddfff7;}.cls-3{opacity:0.67;}.cls-4,.cls-6{fill:#fff;stroke:#f5ef99;stroke-miterlimit:37.8;stroke-width:0.39px;}.cls-5{fill:#e980fc;}.cls-6{opacity:0.3;}.cls-7{fill:#b96ac9;}.cls-8{fill:#231b1b;}</style></defs><path id="path313" class="cls-1" d="M81.42,86.9c70.66-117,335-90.1,366.33-27.73S462,204.53,485.83,278.51,310.54,561.18,267.14,492.59-38.57,388.2,17.35,283.08,81.42,86.9,81.42,86.9Z"/><path id="path315" class="cls-2" d="M71.9,174.27S96.1,49.86,213,67.43s180,81.15,68.5,144.7S110.88,266.25,71.9,174.27Z"/><path id="path317" class="cls-3" d="M44.46,401.84c75.25-65,158.07-112,239.31-78s95.37-33,104.17-97.28S590.16,334.85,448,396.33,269.65,427.54,265.24,389,44.46,401.84,44.46,401.84Z"/><path id="path320" class="cls-4" d="M261.56,307.42,78.93,475.57l.19-.45,18.61,27.2.29.77,219-230.19s-50.9,34.92-55.49,34.52Z"/><g id="legs"><path id="path323" d="M173.9,331.18s5.11,34.27,2.54,42-7.84,20.16-7.84,20.16a62.54,62.54,0,0,1,6.78-5.7c1.21-.87,2.87-2.24,4.48-2.15.92,0,1.6.94,2.2,1.55a36.75,36.75,0,0,1,4,5,15.17,15.17,0,0,1,2.64,6.69v.07a9,9,0,0,1-1.16,5.54s5.14,1.82,4.57-9.91c.43.61.83,1.22,1.21,1.86a11.54,11.54,0,0,1,1.55,3.36,2.79,2.79,0,0,0,.14-.37c.06-.22.13-.44.18-.65.11-.42.2-.85.29-1.27.18-.87.32-1.74.46-2.61a16.56,16.56,0,0,0,.23-2.33c0-1.3,0-1.88,1.41-.88a3.43,3.43,0,0,1,1.39,3.08,8,8,0,0,0,.2-4.33,48.63,48.63,0,0,0-5.27-14.84,62.66,62.66,0,0,1-7.42-32.08,70.25,70.25,0,0,1,1.72-13.85S174.44,331.72,173.9,331.18Z"/><path id="path325" d="M206.31,326s2.47,23.3,2.47,24.73-5.83,10.06-6.27,12.37c0,0,8.67-2,10.15-.52s11,7.68,5.86,19c0,0,6.29-3.81,6.29-6.67,0,0,3.44,1.71,3,4.38,0,0,3-5,1.52-8.67,0,0,4.48,3.36,4.48,4.76,0,0,5.73-5.81.86-11.82s-8.67-4.19-12.2-9.34-3.52-31.53-3.52-31.53S207.4,326,206.31,326Z"/></g><path id="path328" class="cls-5" d="M446.12,112.49a185.79,185.79,0,0,0-42.42,42.87c-31.75,45.36-56,98-102.92,130.31-22,15.13-46.57,26.06-71.93,34.11-26.48,8.4-54.8,14.1-82.67,11A386.18,386.18,0,0,1,105.94,324L-136,453.53l40.32-24.88L-124,441.54l205.13-161,25.66-27.76S224.34,136.63,260.43,134.45s49.13-24.08,49.13-24.08a38.55,38.55,0,0,1,6.84-5.71h0c.32-.08,5.66-1.43,13.33-2.8,0,0,55.75,16.51,77.22,10h0C431.28,117.19,446.12,112.49,446.12,112.49Z"/><circle id="circle330" cx="361.71" cy="127.13" r="9.34"/><ellipse id="ellipse332" class="cls-6" cx="364.97" cy="127.6" rx="3.12" ry="2.82"/><ellipse id="ellipse334" class="cls-6" cx="365.31" cy="121.62" rx="1.16" ry="0.85"/><path id="path336" class="cls-5" d="M277,196.36a114.62,114.62,0,0,1-20.35,11.24c-14.48,5.92-23.77,4.36-29.72.22-9.52-6.62-10.5-19.84-10.5-19.84,8.49,1.68,22.71,3.46,35.06.41.29.34,8.4,9.66,23.31,4.86a18.22,18.22,0,0,0,2.2,3.11Z"/><path id="path338" class="cls-7" d="M214.56,225.74c-5.29,4.87-10.37,6.55-15,6.36a19,19,0,0,1-7.11-1.75c-9.12-4.1-15.18-13.95-15.18-13.95,3.54-.81,7.47-2.92,11.61-7.15a38,38,0,0,0,11.62,2.94A41.09,41.09,0,0,0,214.56,225.74Z"/><path id="path340" class="cls-8" d="M192.47,230.35c-8.84,6.11-16.54,9.93-23.24,12.1-7.52,2.43-13.76,2.8-18.87,2h0A27.71,27.71,0,0,1,130,229.56c5.43-1.38,12.22-6,20.5-16.56a29.47,29.47,0,0,0,10.16-2c.26.3,7,7.63,16.62,5.43,0,0,6.06,9.85,15.18,13.95Z"/><path id="path342" class="cls-9" d="M188.9,209.24c-4.14,4.24-8.07,6.35-11.61,7.16-9.61,2.2-16.36-5.14-16.62-5.44a57.07,57.07,0,0,0,16.24-10,37.69,37.69,0,0,0,12,8.29Z"/><path id="path344" class="cls-10" d="M207,246.54c-33,11-37.73-4.09-37.73-4.09,6.73-2.17,14.4-6,23.24-12.1a19.1,19.1,0,0,0,7.12,1.73A18.74,18.74,0,0,0,207,246.54Z"/><path id="path346" class="cls-10" d="M297.8,141.71c-46.33,17.17-63.62-4.44-64-4.89l3.57-.78c13.79-2.84,29.88-6.72,43.68-2.08a78.61,78.61,0,0,1,16.72,7.75Z"/><path id="path348" class="cls-7" d="M170.38,275.39a307.44,307.44,0,0,1-43.09,5.23,44.19,44.19,0,0,1-21.28-4.9h0a33.44,33.44,0,0,1-8.75-6.36c8.07.92,18.23-.83,29-9.8a16.26,16.26,0,0,0,9.79,5.43c0,.3-.34,10.8,34.33,10.4Z"/><path id="path350" class="cls-7" d="M55.1,292.24c4.76-7.05,9.68-14.47,15.94-20.3.4-.37,10.08,3.36,11,3.59a56.16,56.16,0,0,0,22.58.68,6.46,6.46,0,0,1,1.81-.1,7,7,0,0,1,1.71.61,44,44,0,0,0,19.13,3.89"/><path id="path352" class="cls-8" d="M106.06,275.72c-15.23,5-35-3.78-35-3.78a79.17,79.17,0,0,0,8.46-9.75,36.51,36.51,0,0,0,17.79,7.17h0A33.44,33.44,0,0,0,106.06,275.72Z"/><path id="path354" class="cls-7" d="M138.08,239.18c-30.24,23.31-43.52,2.42-43.52,2.42,4.86-6.53,10.64-14,17.79-22.54,0,0,5.35,13.64,17.66,10.5A27.2,27.2,0,0,0,138.08,239.18Z"/><path id="path356" class="cls-9" d="M150.51,213c-8.28,10.52-15.07,15.17-20.5,16.56-12.32,3.14-17.66-10.5-17.66-10.5,4.88-5.84,10.41-12.16,16.7-19,0,0,6.81,13.06,21.46,12.94Z"/><path id="path358" class="cls-7" d="M249.12,246.74c-4.72,2.66-9.44,5.12-14.11,7.36a275,275,0,0,1-25.76,10.61q-1.23.45-2.46.87h-.08c-26.91,8.13-41.35.56-48.83-7.7a33.3,33.3,0,0,1-7.52-13.48c5.11.83,11.35.49,18.87-2,0,0,4.68,15.13,37.73,4.09h0c6.55,4.89,18.89,7.47,42.16.2Z"/><path id="path360" class="cls-9" d="M206.71,265.61a263.27,263.27,0,0,1-36.31,9.78h0c-34.67.4-34.33-10.08-34.31-10.4a16.26,16.26,0,0,1-9.79-5.43c-10.77,9-20.93,10.72-29,9.8h0a36.32,36.32,0,0,1-17.79-7.17c4.13-5.42,8.85-12.23,15.06-20.58,0,0,13.3,20.88,43.53-2.42a27.34,27.34,0,0,0,12.27,5.21h0a33.48,33.48,0,0,0,7.52,13.51c7.47,8.26,21.91,15.82,48.82,7.7Z"/><path id="path362" class="cls-8" d="M274.86,229.8a213.86,213.86,0,0,1-25.73,16.94h0c-23.27,7.28-35.61,4.69-42.15-.21h0a18.7,18.7,0,0,1-7.39-14.45c4.61.19,9.69-1.49,15-6.36,8,4.63,19.48,7.28,34.5,1.32C253.77,231.91,261.67,234.82,274.86,229.8Z"/><path id="path364" class="cls-10" d="M297.83,208.36a155.34,155.34,0,0,1-23,21.44c-13.2,5-21.1,2.11-25.81-2.74-15,6-26.49,3.31-34.49-1.32a41,41,0,0,1-14-13.55c7.28.69,16-.38,26.42-4.37,6,4.14,15.25,5.7,29.73-.22.31.43,15.53,20.34,41.15.76Z"/><path id="path366" class="cls-8" d="M191.4,185c-9.39,4-16.76,5-22.47,4.3-13.29-1.52-17.59-11.67-17.59-11.67q6-5.28,12.56-10h0a.08.08,0,0,1,0,0l.07.07a2.09,2.09,0,0,1,.15.15l.12.12.29.3.16.15c.22.22.48.46.79.75l.38.36.8.73.37.33c.94.84,2.08,1.8,3.36,2.84l.42.33,1,.77.4.31.45.33.49.36.5.36c1.8,1.28,3.79,2.59,5.94,3.83l1,.56c.64.36,1.3.71,2,1,.34.17.69.35,1,.51l.66.32.77.35,1,.44c.31.14.63.27.93.39l.74.29.7.27.72.26.71.25.85.28Z"/><path id="path368" class="cls-9" d="M227,207.82c-10.42,4-19.16,5.06-26.43,4.37a38.3,38.3,0,0,1-11.62-2.95,37.69,37.69,0,0,1-12-8.29,39.2,39.2,0,0,1-8-11.59c5.71.65,13.08-.29,22.47-4.31l.11,0,1.12.32.78.2c.28.08.56.14.85.21l.63.14.94.19.75.14c.3.05.56.1.88.14.48.07.95.12,1.43.17l.47.06.6,0,.46,0c.63,0,1.25.07,1.87.08H203c.84,0,1.69-.05,2.53-.13a24.69,24.69,0,0,0,2.48-.32c.29,0,.56-.09.86-.14,0,0,2.92.85,7.55,1.76,0,0,1,13.22,10.49,19.83Z"/><path id="path370" class="cls-7" d="M176.91,201a56.62,56.62,0,0,1-16.24,10,29.48,29.48,0,0,1-10.16,2c-14.64.12-21.45-12.94-21.45-12.94q5.7-6.19,12.28-12.94,2.94-3,6-5.85,2-1.82,4-3.59s4.31,10.15,17.6,11.68A39.17,39.17,0,0,0,176.91,201Z"/><path id="path372" class="cls-10" d="M233.41,168.61c-7.75,10.89-16.24,16-24.51,17.61-.28.05-.56.11-.85.15-.83.14-1.66.25-2.49.31s-1.68.12-2.52.13h-.75c-.63,0-1.25,0-1.87-.08l-.47,0-.6,0-.47-.06c-.47-.05-.95-.1-1.42-.17l-.88-.14-.76-.14-.94-.19-.63-.14c-.21-.06-.56-.13-.84-.21l-.79-.2-1.12-.32-.1,0-.6-.19-.85-.28-.72-.25-.71-.26-.7-.27c-.26-.09-.5-.19-.74-.29l-.93-.39-1-.43-.78-.36c-.25-.11-.44-.2-.66-.32s-.69-.34-1-.51q-1-.51-2-1.05l-1-.56c-2.15-1.24-4.14-2.55-5.93-3.83l-.51-.36c-.16-.13-.32-.24-.49-.36l-.45-.33-.4-.3-1-.78-.42-.33c-1.31-1-2.45-2-3.36-2.84-.13-.11-.26-.22-.37-.33l-.81-.73-.38-.36c-.3-.29-.56-.56-.78-.75l-.16-.15-.3-.3a.68.68,0,0,0-.12-.12l-.15-.15-.06-.07,0,0h0a176.33,176.33,0,0,1,15.68-10.08s20.24,17.51,53.79,10.93Z"/><path id="path374" class="cls-5" d="M263.61,157a101,101,0,0,1-30.2,11.56c-33.55,6.58-53.84-11-53.84-11q7.06-4,14.46-7.44,4.09-1.89,8.26-3.57h0c.45.35,23.88,17.84,55.4,6.44a31.46,31.46,0,0,0,5.92,4Z"/><path id="path376" class="cls-7" d="M316.08,171.17c-.19,7.62-3,15.07-6.9,21.64-17.36,16.13-27.88,8.51-32.14,3.55a18.22,18.22,0,0,1-2.2-3.11c-14.89,4.8-23-4.52-23.31-4.86-12.32,3.05-26.56,1.25-35.06-.41-4.62-.91-7.54-1.76-7.54-1.76,8.28-1.61,16.75-6.72,24.5-17.61a100.59,100.59,0,0,0,30.2-11.56c1.12.6,2.38,1.22,3.8,1.82,0,0-11.38,15.87,17.15,16.75s31.5-4.45,31.5-4.45Z"/><path id="path378" class="cls-8" d="M309.16,192.81a110.77,110.77,0,0,1-11.33,15.55C272.21,228,257,208,256.67,207.6A114.62,114.62,0,0,0,277,196.36c4.26,5,14.79,12.58,32.14-3.55Z"/><path id="path380" class="cls-8" d="M316.08,171.17s-2.95,5.33-31.5,4.45-17.15-16.75-17.15-16.75c9.23,3.92,24.78,6.89,45.36-2a28.1,28.1,0,0,1,3.29,12.53Z"/><path id="path382" class="cls-9" d="M312.76,156.83c-20.58,8.93-36.12,5.94-45.37,2-1.41-.6-2.68-1.22-3.79-1.82a31.5,31.5,0,0,1-5.91-4c-31.53,11.39-54.95-6.1-55.41-6.45a201.22,201.22,0,0,1,31.53-9.81c.36.45,17.65,22.06,64,4.89C304,145.63,309.47,150.61,312.76,156.83Z"/><path id="path385" class="cls-9" d="M335.87,197s-54.05,77.22-122.26,86.25c0,0,77.22-9.89,122.26-86.25Z"/><path id="path387" d="M403.08,127.6s40-14.56,43-15.12C446.12,112.49,429.49,120.53,403.08,127.6Z"/><path id="path389" class="cls-8" d="M342.31,212.87s-78.07,94.82-197.76,100c0,0,120.11,3.85,197.76-100Z"/><path id="path391" class="cls-8" d="M378.72,102.11c-13.25-5.2-35-2.73-49-.26-7.67,1.35-13,2.7-13.33,2.8,9.71-6.6,29.58-15.22,58.63-4.3,1.24.61,2.46,1.19,3.67,1.76Z"/><path id="path393" class="cls-7" d="M382.46,185.31S251.05,339,152.62,331.32C152.62,331.32,293.49,351.93,382.46,185.31Z"/><path id="path395" class="cls-7" d="M74.2,313.68l-97.38,65.21S71.34,318.16,74.2,313.68Z"/><path id="path397" class="cls-7" d="M320.15,131.89l30.88-2.3s-9.15,3.44-10.87,5.15,12.78.38,12.78.38L347,139.7s12.39.19,17.92-1.53,20.58-6.09,20.58-6.09L373.91,138l16.58-1.12-16.58,7h10.68a61.24,61.24,0,0,1-32.8,7.06c-18.68-1.34-22.11-8-29.55-8,0,0,9.3-1.86,10.68-2.38,0,0-3.1-2.72-9.3-2.72s-10-5.34-10-5.34Z"/><path id="path399" class="cls-7" d="M407,111.83a29.94,29.94,0,0,1-3.61.83c-1.35.23-2.71.39-4.07.5s-3,.17-4.48.19-3.2,0-4.8-.08-3.37-.18-5-.32-3.49-.32-5.23-.52-3.56-.45-5.34-.7-3.57-.56-5.36-.84-3.54-.61-5.31-.94-3.46-.67-5.19-1l-5-1.06-4.71-1.07-4.37-1-3.92-1c-1.15-.3-2.3-.56-3.45-.9l-2.86-.77c-1.12-.3-2.24-.6-3.36-.88a5,5,0,0,1-.67-.14c-.29-.12,0-.27.15-.32a4.81,4.81,0,0,1,.84-.17l1.47-.25,3.08-.48c2.19-.32,4.39-.6,6.59-.86s4.62-.48,6.93-.64,4.72-.27,7.08-.31,4.66,0,7,.12a66.66,66.66,0,0,1,6.64.68,45.29,45.29,0,0,1,6.09,1.33c.9.26,1.8.56,2.68.91s1.75.81,2.62,1.19A135.15,135.15,0,0,0,407,111.83Z"/><polygon id="polygon401" class="cls-7" points="-123.99 441.52 75.69 284.8 -95.68 428.65 -123.99 441.52"/><polygon id="polygon403" class="cls-7" points="21.29 365.16 105.94 323.98 -136 453.53 21.29 365.16"/></svg>