<?xml version="1.0" encoding="UTF-8" standalone="no"?>
<svg
   xmlns:dc="http://purl.org/dc/elements/1.1/"
   xmlns:cc="http://creativecommons.org/ns#"
   xmlns:rdf="http://www.w3.org/1999/02/22-rdf-syntax-ns#"
   xmlns:svg="http://www.w3.org/2000/svg"
   xmlns="http://www.w3.org/2000/svg"
   xmlns:sodipodi="http://sodipodi.sourceforge.net/DTD/sodipodi-0.dtd"
   xmlns:inkscape="http://www.inkscape.org/namespaces/inkscape"
   width="450"
   height="450"
   viewBox="0 0 119.0625 119.0625"
   version="1.1"
   id="svg16"
   inkscape:version="1.0.1 (1.0.1+r74)"
   sodipodi:docname="bird.svg"
   inkscape:export-filename="/home/hachiko/inkscape/greenboxeslogo.png"
   inkscape:export-xdpi="96"
   inkscape:export-ydpi="96">
  <defs
     id="defs10">
    <style
       id="style1930">
      .cls-1 {
        fill: #3f0001;
      }

      .cls-2 {
        fill: #993d1f;
      }

      .cls-3 {
        fill: #f5ef99;
      }

      .cls-4 {
        fill: none;
        stroke: #f5ef99;
        stroke-miterlimit: 10;
      }
    </style>
    <style
       id="style4840">
      .cls-1 {
        fill: #55151e;
      }

      .cls-2, .cls-3 {
        fill: #470203;
      }

      .cls-3 {
        font-size: 44.59px;
        font-family: Armwarmer;
      }

      .cls-4 {
        letter-spacing: 0em;
      }

      .cls-5 {
        letter-spacing: -0.02em;
      }
    </style>
    <style
       id="style5074">
      .cls-1 {
        fill: #6a3256;
      }

      .cls-2 {
        fill: #963256;
      }

      .cls-3 {
        fill: #964c56;
      }
    </style>
    <style
       id="style5411">
      .cls-1 {
        fill: #e8aa26;
      }

      .cls-2 {
        fill: #baa6e7;
      }

      .cls-3 {
        fill: #ffea9e;
      }

      .cls-4 {
        fill: #c8ea9a;
      }

      .cls-5 {
        fill: #ff889a;
      }
    </style>
    <style
       id="style5545">
      .cls-1 {
        fill: #451d00;
      }

      .cls-2 {
        fill: #8b7300;
      }
    </style>
    <style
       id="style5713">.cls-1{fill:#a63e60;}.cls-2{fill:#823e60;}.cls-3{fill:#730010;}.cls-4{fill:#fff;opacity:0.3;}</style>
    <style
       id="style5915">
      .cls-1, .cls-4 {
        fill: #00042a;
      }

      .cls-2 {
        fill: #ffc13f;
      }

      .cls-3 {
        fill: #fff;
      }

      .cls-4 {
        font-size: 107.41px;
        font-family: CopperplateGothic-Bold, Copperplate Gothic Bold;
        font-weight: 700;
      }

      .cls-5 {
        letter-spacing: -0.01em;
      }
    </style>
    <style
       id="style6130">
      .cls-1 {
        fill: #002e24;
      }

      .cls-2 {
        fill: #005424;
      }

      .cls-3, .cls-4 {
        fill: #008b4a;
      }

      .cls-4 {
        font-size: 92.08px;
        font-family: CopperplateGothic-Bold, Copperplate Gothic Bold;
        font-weight: 700;
      }

      .cls-5 {
        letter-spacing: -0.02em;
      }

      .cls-6 {
        letter-spacing: -0.07em;
      }

      .cls-7 {
        letter-spacing: 0.01em;
      }
    </style>
    <style
       id="style309">.cls-1{fill:#bfb3ff;}.cls-2,.cls-8{fill:#ffd2fc;}.cls-2{opacity:0.74;}.cls-3,.cls-9{fill:#ddfff7;}.cls-3{opacity:0.67;}.cls-4{fill:#fff;}.cls-5{fill:#e980fc;}.cls-6{fill:#b96ac9;}.cls-7{fill:#231b1b;}</style>
  </defs>
  <sodipodi:namedview
     id="base"
     pagecolor="#dfd2d2"
     bordercolor="#666666"
     borderopacity="1.0"
     inkscape:pageopacity="0"
     inkscape:pageshadow="2"
     inkscape:zoom="1.979899"
     inkscape:cx="297.16053"
     inkscape:cy="209.66139"
     inkscape:document-units="px"
     inkscape:current-layer="layer1"
     inkscape:document-rotation="0"
     showgrid="false"
     inkscape:showpageshadow="false"
     inkscape:window-width="1920"
     inkscape:window-height="1018"
     inkscape:window-x="0"
     inkscape:window-y="32"
     inkscape:window-maximized="1"
     inkscape:pagecheckerboard="false"
     units="px"
     width="400mm" />
  <metadata
     id="metadata13">
    <rdf:RDF>
      <cc:Work
         rdf:about="">
        <dc:format>image/svg+xml</dc:format>
        <dc:type
           rdf:resource="http://purl.org/dc/dcmitype/StillImage" />
        <dc:title></dc:title>
      </cc:Work>
    </rdf:RDF>
  </metadata>
  <g
     inkscape:label="Layer 1"
     inkscape:groupmode="layer"
     id="layer1">
    <path
       class="cls-1"
       d="M 40.947847,28.21024 C 54.002961,6.5931406 102.84064,11.56228 108.63348,23.086915 c 5.79284,11.524636 2.63462,26.857358 7.03668,40.526111 C 120.07223,77.28178 83.281765,115.84279 75.262018,103.16952 67.24227,90.496254 18.776092,83.881773 29.109666,64.458463 39.443239,45.035152 40.947847,28.21024 40.947847,28.21024 Z"
       id="path313"
       style="stroke-width:0.103481" />
    <path
       class="cls-2"
       d="m 39.188677,44.353215 c 0,0 4.471397,-22.987182 26.061592,-19.740996 21.590194,3.246187 33.253494,14.994341 12.655678,26.73732 -20.597815,11.74298 -31.516054,9.998297 -38.71727,-6.996324 z"
       id="path315"
       style="stroke-width:0.103481" />
    <path
       class="cls-3"
       d="M 34.118127,86.401526 C 48.021782,74.397776 63.324495,65.713683 78.335392,71.987712 93.346289,78.261742 95.957105,65.882356 97.582785,54.01313 99.208466,42.143904 134.94756,74.023176 108.67798,85.384312 82.408389,96.745448 75.726646,91.150251 74.911218,84.027681 74.095791,76.905111 34.118127,86.401526 34.118127,86.401526 Z"
       id="path317"
       style="stroke-width:0.103481" />
    <path
       class="cls-4"
       d="m 74.232371,68.95573 -33.745027,31.06902 -9.992088,0.4729 -0.465663,5.28993 13.98437,-0.67883 40.470232,-42.53053 c 0,0 -9.404318,6.452016 -10.251824,6.37751 z"
       id="path320"
       style="stroke-width:0.103481;fill:#d3e6fa;fill-opacity:1" />
    <g
       id="legs"
       transform="matrix(0.10348061,0,0,0.10348061,1.5206852,17.782499)">
      <path
         d="m 546.13,536.94 c 0,0 9.13,61.19 4.53,75 -4.6,13.81 -14,36 -14,36 a 112.19,112.19 0 0 1 12.11,-10.19 c 2.16,-1.54 5.12,-4 8,-3.84 1.65,0.08 2.86,1.69 3.93,2.78 a 64,64 0 0 1 7.21,8.94 26.93,26.93 0 0 1 4.72,11.94 v 0.13 a 16.08,16.08 0 0 1 -2.08,9.9 c 0,0 9.19,3.24 8.17,-17.7 0.76,1.08 1.48,2.18 2.16,3.31 a 21.06,21.06 0 0 1 2.77,6 c 0.08,-0.21 0.19,-0.44 0.25,-0.66 0.11,-0.38 0.22,-0.77 0.32,-1.16 0.19,-0.75 0.36,-1.51 0.51,-2.26 0.32,-1.55 0.58,-3.1 0.82,-4.66 a 29.31,29.31 0 0 0 0.42,-4.17 c 0,-2.32 0.05,-3.35 2.51,-1.57 a 6.12,6.12 0 0 1 2.48,5.5 c 1,-2.42 0.78,-5.15 0.36,-7.73 A 87.12,87.12 0 0 0 581.91,616 112,112 0 0 1 568.66,558.73 126.16,126.16 0 0 1 571.73,534 c 0,0 -24.63,3.91 -25.6,2.94 z"
         id="path323" />
      <path
         d="m 604,527.75 c 0,0 4.41,41.61 4.41,44.16 0,2.55 -10.41,17.96 -11.2,22.09 0,0 15.49,-3.57 18.13,-0.93 2.64,2.64 19.66,13.7 10.47,33.95 0,0 11.23,-6.8 11.23,-11.91 0,0 6.13,3.06 5.28,7.83 0,0 5.45,-9 2.72,-15.49 0,0 8,6 8,8.51 0,0 10.22,-10.38 1.53,-21.11 -8.69,-10.73 -15.48,-7.49 -21.78,-16.68 -6.3,-9.19 -6.3,-56.3 -6.3,-56.3 0,0 -20.55,5.88 -22.49,5.88 z"
         id="path325" />
    </g>
    <path
       class="cls-5"
       d="m 108.33234,32.939304 c -3.0206,2.227937 -5.68419,4.841858 -7.83763,7.919371 -5.867346,8.381929 -10.348056,18.117385 -19.016627,24.078903 -4.05851,2.793977 -8.605448,4.814953 -13.290015,6.301969 -4.893598,1.552209 -10.126612,2.605642 -15.275807,2.03236 A 71.439909,71.439909 0 0 1 45.478214,72.017722 L 0.77459,95.951752 8.2251939,91.355143 2.9932143,93.737267 40.895057,63.986591 45.636539,58.858092 c 0,0 21.717475,-21.458774 28.386801,-21.862348 6.669325,-0.403575 9.077319,-4.449666 9.077319,-4.449666 a 7.1898328,7.1898328 0 0 1 1.263498,-1.054468 v 0 c 0.06002,-0.01552 1.046189,-0.26491 2.463873,-0.517403 0,0 10.30046,3.050609 14.26687,1.844025 v 0 c 4.4952,0.989274 7.23744,0.121072 7.23744,0.121072 z"
       id="path328"
       style="stroke-width:0.103481" />
    <circle
       cx="92.735733"
       cy="35.643253"
       r="1.7260566"
       id="circle330"
       style="stroke-width:0.103481" />
    <ellipse
       class="cls-4"
       cx="93.339027"
       cy="35.731209"
       rx="0.57638699"
       ry="0.52050751"
       id="ellipse332"
       style="stroke-width:0.103481" />
    <ellipse
       class="cls-4"
       cx="93.401123"
       cy="34.626038"
       rx="0.21420486"
       ry="0.15625572"
       id="ellipse334"
       style="stroke-width:0.103481" />
    <path
       class="cls-5"
       d="m 77.087401,48.43449 c -1.426998,0.961335 -2.67187,1.633959 -3.759451,2.077891 -2.674974,1.092755 -4.391717,0.805079 -5.491716,0.03932 -1.75917,-1.223141 -1.939227,-3.665283 -1.939227,-3.665283 1.568767,0.310441 4.196139,0.640545 6.476852,0.07657 0.05381,0.06312 1.552209,1.784006 4.307898,0.897177 a 3.3527718,3.3527718 0 0 0 0.405644,0.574317 z"
       id="path336"
       style="stroke-width:0.103481" />
    <path
       class="cls-6"
       d="m 65.547243,53.864118 c -0.977892,0.900281 -1.915426,1.209688 -2.768106,1.17554 a 3.5400717,3.5400717 0 0 1 -1.314204,-0.323894 c -1.684664,-0.758513 -2.80329,-2.577702 -2.80329,-2.577702 0.653998,-0.149013 1.380432,-0.539134 2.144118,-1.321448 a 7.0666909,7.0666909 0 0 0 2.148258,0.544308 7.5840939,7.5840939 0 0 0 2.593224,2.503196 z"
       id="path338"
       style="stroke-width:0.103481" />
    <path
       class="cls-7"
       d="m 61.464933,54.715764 c -1.632924,1.128973 -3.055782,1.834711 -4.292376,2.235181 -1.389744,0.449106 -2.542518,0.517403 -3.488331,0.360112 v 0 A 5.1129769,5.1129769 0 0 1 49.92581,54.569856 c 1.002727,-0.255597 2.256912,-1.114486 3.786356,-3.059922 A 5.4306624,5.4306624 0 0 0 55.589304,51.1343 c 0.04967,0.05484 1.296612,1.41044 3.072339,1.003762 0,0 1.118626,1.819189 2.80329,2.577702 z"
       id="path340"
       style="stroke-width:0.103481" />
    <path
       class="cls-8"
       d="m 60.805761,50.815579 c -0.763686,0.782314 -1.49012,1.172436 -2.144118,1.321448 -1.775727,0.406679 -3.022668,-0.948917 -3.072339,-1.003762 0.892003,-0.335277 1.891625,-0.919943 3.000938,-1.849199 a 6.9870108,6.9870108 0 0 0 2.215519,1.531513 z"
       id="path342"
       style="stroke-width:0.103481" />
    <path
       class="cls-9"
       d="m 64.143011,57.706353 c -6.105356,2.036499 -6.970454,-0.755408 -6.970454,-0.755408 1.241768,-0.40047 2.659452,-1.106208 4.292376,-2.235181 a 3.5400717,3.5400717 0 0 0 1.316273,0.319755 c 0,0.05484 -0.0207,1.640167 1.361805,2.670834 z"
       id="path344"
       style="stroke-width:0.103481" />
    <path
       class="cls-9"
       d="m 80.927566,38.336853 c -8.559916,3.17375 -11.755397,-0.820602 -11.82059,-0.902351 0.220414,-0.05071 0.439793,-0.09831 0.660206,-0.143838 2.548728,-0.525682 5.520691,-1.241768 8.071488,-0.385983 a 14.596975,14.596975 0 0 1 3.088896,1.432172 z"
       id="path346"
       style="stroke-width:0.103481" />
    <path
       class="cls-6"
       d="m 57.384693,63.037674 a 56.75808,56.75808 0 0 1 -7.961799,0.965474 8.1573765,8.1573765 0 0 1 -3.932263,-0.905455 v 0 a 6.1633051,6.1633051 0 0 1 -1.616367,-1.17347 c 1.491156,0.169708 3.367259,-0.154186 5.358226,-1.810911 a 3.0081813,3.0081813 0 0 0 1.808841,1.002727 c 0,0.05588 -0.06312,1.996141 6.343362,1.921635 z"
       id="path348"
       style="stroke-width:0.103481" />
    <path
       class="cls-6"
       d="m 36.083209,66.150371 c 0.879585,-1.302821 1.790214,-2.672904 2.946093,-3.751172 0.07347,-0.0683 1.862651,0.620883 2.035464,0.664345 1.432171,0.345626 2.730853,0.345626 4.173373,0.125212 a 1.1289735,1.1289735 0 0 1 0.333207,-0.01759 1.2096883,1.2096883 0 0 1 0.315616,0.111759 8.1284019,8.1284019 0 0 0 3.535932,0.718156"
       id="path350"
       style="stroke-width:0.103481" />
    <path
       class="cls-7"
       d="m 45.499944,63.097693 c -2.814672,0.931325 -6.466503,-0.698494 -6.466503,-0.698494 a 14.409675,14.409675 0 0 0 1.562557,-1.801598 6.7262396,6.7262396 0 0 0 3.287579,1.325587 v 0 a 6.1633051,6.1633051 0 0 0 1.616367,1.174505 z"
       id="path352"
       style="stroke-width:0.103481" />
    <path
       class="cls-6"
       d="m 51.415931,56.347653 c -5.587953,4.305828 -8.041478,0.447036 -8.041478,0.447036 0.898211,-1.207619 1.966131,-2.592189 3.287579,-4.166129 0,0 0.989274,2.520787 3.263778,1.940261 a 5.0260532,5.0260532 0 0 0 1.490121,1.778832 z"
       id="path354"
       style="stroke-width:0.103481" />
    <path
       class="cls-8"
       d="m 53.712166,51.508899 c -1.529444,1.945436 -2.783629,2.804325 -3.786356,3.059922 -2.276573,0.580526 -3.263778,-1.940261 -3.263778,-1.940261 0.902351,-1.078268 1.922669,-2.246564 3.085791,-3.509028 0,0 1.258325,2.413168 3.964343,2.389367 z"
       id="path356"
       style="stroke-width:0.103481" />
    <path
       class="cls-6"
       d="m 71.933031,57.744641 c -0.871306,0.491533 -1.744683,0.944778 -2.606676,1.359735 a 50.771726,50.771726 0 0 1 -4.760108,1.959923 c -0.151082,0.05485 -0.303198,0.108655 -0.45428,0.16143 h -0.01449 c -4.973278,1.500469 -7.639974,0.10348 -9.02351,-1.422859 a 6.1736532,6.1736532 0 0 1 -1.389744,-2.490778 c 0.945813,0.153151 2.098587,0.08899 3.488331,-0.360113 0,0 0.864063,2.793977 6.970454,0.755409 v 0 c 1.210723,0.903386 3.490401,1.380431 7.79002,0.03725 z"
       id="path358"
       style="stroke-width:0.103481" />
    <path
       class="cls-8"
       d="m 64.09748,61.229868 a 48.587251,48.587251 0 0 1 -6.709683,1.807806 v 0 c -6.406485,0.07451 -6.343361,-1.862651 -6.339222,-1.921635 a 3.0081813,3.0081813 0 0 1 -1.808841,-1.002727 c -1.990967,1.65569 -3.867071,1.980619 -5.358226,1.810911 v 0 a 6.7262396,6.7262396 0 0 1 -3.287579,-1.325587 c 0.762652,-1.001692 1.634993,-2.258982 2.783628,-3.802912 0,0 2.45663,3.858792 8.041478,-0.447036 a 5.0477842,5.0477842 0 0 0 2.268295,0.962369 v 0 a 6.1736532,6.1736532 0 0 0 1.389745,2.495953 c 1.380431,1.526339 4.047127,2.923327 9.020405,1.422858 z"
       id="path360"
       style="stroke-width:0.103481" />
    <path
       class="cls-7"
       d="m 76.689,54.614353 a 39.691023,39.691023 0 0 1 -4.753899,3.129253 v 0 c -4.299619,1.345248 -6.579297,0.866133 -7.788985,-0.03829 v 0 c -1.385606,-1.029632 -1.36491,-2.614955 -1.36491,-2.669799 0.852681,0.03415 1.790215,-0.275259 2.768107,-1.17554 1.479772,0.855785 3.60009,1.345248 6.374405,0.243179 0.868203,0.900282 2.327279,1.437346 4.765282,0.511195 z"
       id="path362"
       style="stroke-width:0.103481" />
    <path
       class="cls-9"
       d="m 80.93274,50.653115 a 28.778992,28.778992 0 0 1 -4.242705,3.961238 c -2.438003,0.926151 -3.89708,0.389087 -4.767352,-0.507055 -2.774315,1.106207 -4.894632,0.612605 -6.374405,-0.24318 a 7.5840939,7.5840939 0 0 1 -2.593224,-2.504231 c 1.345248,0.128316 2.957476,-0.06933 4.882215,-0.808183 1.099999,0.765756 2.816742,1.053432 5.491716,-0.03932 0.05795,0.07968 2.870552,3.758416 7.603755,0.140734 z"
       id="path364"
       style="stroke-width:0.103481" />
    <path
       class="cls-7"
       d="m 61.26832,46.343147 c -1.73537,0.742991 -3.09614,0.915804 -4.151642,0.795766 -2.455595,-0.281467 -3.251361,-2.15757 -3.251361,-2.15757 q 1.117591,-0.974788 2.322105,-1.839886 v 0 a 0.04656627,0.04656627 0 0 1 0.0072,0.0072 l 0.01242,0.01242 c 0.0072,0.0072 0.01656,0.01759 0.02794,0.02794 a 0.23076176,0.23076176 0 0 1 0.02173,0.02277 l 0.05485,0.05485 0.02897,0.02794 c 0.04036,0.04036 0.08899,0.08589 0.144873,0.138664 l 0.07037,0.06623 c 0.04553,0.04139 0.0952,0.08796 0.149012,0.134525 0.02173,0.0207 0.0445,0.04139 0.0683,0.06105 0.173848,0.15522 0.383913,0.334242 0.620884,0.525681 0.02484,0.0207 0.05174,0.04036 0.07761,0.06105 l 0.186265,0.142803 0.07347,0.05588 0.08278,0.06105 c 0.03104,0.02277 0.06105,0.04553 0.09106,0.06623 0.03001,0.0207 0.06209,0.04553 0.09313,0.06726 0.331137,0.235936 0.699528,0.47808 1.096894,0.707807 l 0.191439,0.103481 c 0.119003,0.06623 0.24111,0.13142 0.365287,0.193509 0.06312,0.03208 0.126246,0.06519 0.191439,0.0952 0.04036,0.0207 0.08071,0.03932 0.122107,0.05898 0.04139,0.01966 0.0952,0.0445 0.142803,0.06519 l 0.183161,0.08071 c 0.05691,0.02484 0.114863,0.04864 0.171778,0.0714 0.05691,0.02277 0.09003,0.03725 0.136594,0.05381 l 0.129351,0.05071 0.132455,0.0476 0.13142,0.04657 c 0.05278,0.01656 0.103481,0.03518 0.157291,0.05071 z"
       id="path366"
       style="stroke-width:0.103481" />
    <path
       class="cls-8"
       d="m 67.836234,50.551704 c -1.924739,0.738851 -3.539037,0.936499 -4.882215,0.808183 a 7.0666909,7.0666909 0 0 1 -2.148258,-0.544308 6.9870108,6.9870108 0 0 1 -2.214485,-1.531513 7.2436427,7.2436427 0 0 1 -1.474598,-2.143083 c 1.055502,0.120037 2.416272,-0.05277 4.151642,-0.795766 l 0.01966,0.0062 0.206961,0.05795 0.144873,0.03829 c 0.05174,0.01345 0.103481,0.02484 0.156256,0.03725 0.05278,0.01242 0.07761,0.01863 0.116933,0.02587 0.05691,0.01345 0.115898,0.02483 0.172813,0.03518 l 0.139698,0.02587 c 0.05485,0.0093 0.103481,0.01863 0.162465,0.02587 0.08796,0.01345 0.175917,0.0238 0.263876,0.03311 l 0.08692,0.0093 0.110725,0.01035 0.08589,0.0062 c 0.114864,0.0072 0.229727,0.01138 0.345626,0.01345 h 0.138664 c 0.155221,0 0.310442,-0.0093 0.465662,-0.02277 0.155221,-0.01345 0.310442,-0.03208 0.459454,-0.05898 0.05277,-0.0072 0.103481,-0.01759 0.158326,-0.02691 0,0 0.540168,0.157291 1.394918,0.32493 -10e-4,0 0.183161,2.442142 1.938192,3.665283 z"
       id="path368"
       style="stroke-width:0.103481" />
    <path
       class="cls-6"
       d="m 58.591276,49.284066 c -1.110347,0.931326 -2.109969,1.513922 -3.000937,1.849199 A 5.4306624,5.4306624 0 0 1 53.7132,51.508899 c -2.706017,0.0238 -3.964342,-2.389367 -3.964342,-2.389367 q 1.053433,-1.144495 2.270365,-2.391437 0.542238,-0.554656 1.109312,-1.081372 0.363217,-0.336312 0.737817,-0.663311 c 0,0 0.795766,1.876104 3.251361,2.157571 a 7.2436427,7.2436427 0 0 0 1.473563,2.143083 z"
       id="path370"
       style="stroke-width:0.103481" />
    <path
       class="cls-9"
       d="m 69.0304,43.308061 c -1.432171,2.011663 -3.000937,2.955406 -4.528311,3.25343 -0.05277,0.0093 -0.103481,0.01966 -0.158325,0.02691 q -0.229727,0.04036 -0.459454,0.05898 c -0.155221,0.01345 -0.310442,0.0207 -0.465663,0.02277 h -0.138664 c -0.115898,0 -0.230762,-0.0062 -0.345625,-0.01345 l -0.08589,-0.0062 -0.110725,-0.01035 -0.08692,-0.0093 c -0.08796,-0.0093 -0.175917,-0.01966 -0.263876,-0.03311 -0.05381,-0.0072 -0.10348,-0.01656 -0.162464,-0.02587 l -0.139699,-0.02587 c -0.05691,-0.01035 -0.115898,-0.02173 -0.172813,-0.03518 -0.03932,-0.0072 -0.07865,-0.01656 -0.116933,-0.02587 -0.03829,-0.0093 -0.103481,-0.0238 -0.156256,-0.03725 l -0.144872,-0.03829 -0.206962,-0.05795 -0.01966,-0.0062 -0.110724,-0.03518 c -0.05278,-0.01552 -0.103481,-0.03415 -0.157291,-0.05071 l -0.13142,-0.04657 -0.132455,-0.0476 -0.129351,-0.05071 c -0.04657,-0.01656 -0.0921,-0.03518 -0.136595,-0.05381 -0.0445,-0.01863 -0.114863,-0.04657 -0.171777,-0.0714 l -0.183161,-0.08071 c -0.0476,-0.0207 -0.0952,-0.04346 -0.142803,-0.06519 -0.0476,-0.02173 -0.08175,-0.03829 -0.122107,-0.05898 -0.06519,-0.03104 -0.128316,-0.06312 -0.191439,-0.0952 -0.124177,-0.06209 -0.246284,-0.127281 -0.365287,-0.193509 l -0.191439,-0.10348 c -0.397366,-0.229727 -0.765757,-0.471872 -1.096895,-0.707808 -0.03104,-0.02173 -0.06312,-0.0445 -0.09313,-0.06726 -0.03001,-0.02277 -0.06002,-0.04346 -0.09106,-0.06623 l -0.08279,-0.06105 -0.07347,-0.05588 -0.186265,-0.142803 c -0.02587,-0.0207 -0.05278,-0.04036 -0.07761,-0.06105 -0.242145,-0.191439 -0.452211,-0.37046 -0.620884,-0.525681 -0.0238,-0.01966 -0.04657,-0.04036 -0.0683,-0.06105 -0.05381,-0.04657 -0.103481,-0.09313 -0.149012,-0.134525 l -0.07037,-0.06623 c -0.05588,-0.05277 -0.103481,-0.103481 -0.144873,-0.138664 a 0.35493849,0.35493849 0 0 0 -0.02897,-0.02794 l -0.05484,-0.05485 a 0.23076176,0.23076176 0 0 0 -0.02173,-0.02276 l -0.02794,-0.02794 -0.01242,-0.01242 a 0.04656627,0.04656627 0 0 0 -0.0072,-0.0072 v 0 a 32.868546,32.868546 0 0 1 2.897457,-1.862651 c 0,0 3.739789,3.235838 9.939312,2.019941 z"
       id="path372"
       style="stroke-width:0.103481" />
    <path
       class="cls-5"
       d="m 74.610075,41.169117 c -2.024081,1.14553 -3.892941,1.806771 -5.579675,2.136874 -6.199523,1.215898 -9.947591,-2.02615 -9.947591,-2.02615 q 1.303856,-0.74713 2.67187,-1.376292 c 0.50395,-0.231797 1.011005,-0.451175 1.525304,-0.659171 v 0 c 0.08382,0.06416 4.412413,3.296892 10.237337,1.191061 a 5.8238887,5.8238887 0 0 0 1.092755,0.733678 z"
       id="path374"
       style="stroke-width:0.103481" />
    <path
       class="cls-6"
       d="m 84.305173,43.780967 c -0.03518,1.408372 -0.548447,2.783629 -1.274881,3.998491 -3.207899,2.980242 -5.151265,1.572905 -5.938752,0.655032 a 3.3527718,3.3527718 0 0 1 -0.405644,-0.574317 c -2.752584,0.886829 -4.254088,-0.834054 -4.307898,-0.897177 -2.276573,0.56397 -4.908085,0.229727 -6.476851,-0.07657 -0.85475,-0.167639 -1.394919,-0.32493 -1.394919,-0.32493 1.530478,-0.298024 3.09614,-1.241767 4.528312,-3.25343 1.686734,-0.330103 3.555593,-0.991344 5.579674,-2.136875 0.206961,0.11176 0.439793,0.225588 0.701599,0.336312 0,0 -2.102726,2.933676 3.169611,3.09614 5.272337,0.162465 5.819749,-0.822671 5.819749,-0.822671 z"
       id="path376"
       style="stroke-width:0.103481" />
    <path
       class="cls-7"
       d="m 83.026153,47.779458 a 20.574015,20.574015 0 0 1 -2.093413,2.873657 c -4.733203,3.621821 -7.545806,-0.06105 -7.60479,-0.140734 1.087581,-0.443932 2.332453,-1.116556 3.759451,-2.077891 0.787487,0.917873 2.733957,2.32521 5.938752,-0.655032 z"
       id="path378"
       style="stroke-width:0.103481" />
    <path
       class="cls-7"
       d="m 84.305173,43.780967 c 0,0 -0.545343,0.984101 -5.819749,0.822671 -5.274407,-0.161429 -3.169611,-3.09614 -3.169611,-3.09614 1.706395,0.724365 4.577982,1.272812 8.381929,-0.376669 a 5.1967962,5.1967962 0 0 1 0.607431,2.314861 c 0,0.110725 0,0.222484 0,0.335277 z"
       id="path380"
       style="stroke-width:0.103481" />
    <path
       class="cls-8"
       d="m 83.691533,41.130829 c -3.801877,1.649481 -6.673464,1.097929 -8.381929,0.376669 -0.261806,-0.110724 -0.495672,-0.224552 -0.701599,-0.336312 a 5.8238887,5.8238887 0 0 1 -1.09172,-0.733677 c -5.824924,2.10583 -10.153518,-1.126904 -10.237337,-1.191062 a 37.264402,37.264402 0 0 1 5.825958,-1.811945 c 0.06519,0.08175 3.260674,4.076101 11.82059,0.902351 1.15174,0.724364 2.158606,1.644306 2.766037,2.793976 z"
       id="path382"
       style="stroke-width:0.103481" />
    <path
       class="cls-8"
       d="m 87.962178,48.553493 c 0,0 -9.986914,14.266872 -22.589817,15.936014 -0.0041,-0.0041 14.266871,-1.827467 22.589817,-15.936014 z"
       id="path385"
       style="stroke-width:0.103481" />
    <path
       d="m 100.37985,35.731211 c 0,0 7.39783,-2.690496 7.95249,-2.793977 0,0.0021 -3.07234,1.485982 -7.95249,2.793977 z"
       id="path387"
       style="stroke-width:0.103481" />
    <path
       class="cls-7"
       d="m 89.15117,51.486134 c 0,0 -14.425197,17.519267 -36.540038,18.468184 0,0 22.193486,0.712982 36.540038,-18.468184 z"
       id="path389"
       style="stroke-width:0.103481" />
    <path
       class="cls-7"
       d="m 95.879479,31.019739 c -2.449386,-0.9603 -6.464433,-0.503951 -9.048344,-0.0476 -1.417684,0.250423 -2.403855,0.499811 -2.463873,0.517403 1.794353,-1.219002 5.46688,-2.811569 10.834419,-0.793697 0.228693,0.111759 0.45428,0.219379 0.677798,0.323895 z"
       id="path391"
       style="stroke-width:0.103481" />
    <path
       class="cls-6"
       d="m 96.569695,46.392818 c 0,0 -24.279655,28.389905 -42.467407,26.979465 0,0 26.029512,3.808086 42.467407,-26.979465 z"
       id="path393"
       style="stroke-width:0.103481" />
    <path
       class="cls-6"
       d="M 39.612933,70.112643 21.619724,82.160891 c 0,0 17.464423,-11.220403 17.993209,-12.048248 z"
       id="path395"
       style="stroke-width:0.103481" />
    <path
       class="cls-6"
       d="m 85.056442,36.523872 5.705921,-0.425305 c 0,0 -1.690873,0.634336 -2.007524,0.950987 -0.31665,0.31665 2.360393,0.07037 2.360393,0.07037 l -1.09172,0.845436 c 0,0 2.288991,0.03518 3.311379,-0.281467 1.022389,-0.316651 3.801878,-1.124834 3.801878,-1.124834 l -2.146188,1.09172 3.064061,-0.206961 -3.064061,1.302821 h 1.97234 c 0,0 -2.606676,1.552209 -6.058789,1.303855 -3.452113,-0.248353 -4.08645,-1.479772 -5.460672,-1.479772 0,0 1.717778,-0.343556 1.97234,-0.439793 0,0 -0.572247,-0.502916 -1.716743,-0.502916 -1.144496,0 -1.84092,-0.98617 -1.84092,-0.98617 z"
       id="path397"
       style="stroke-width:0.103481" />
    <path
       class="cls-6"
       d="m 101.09801,32.816162 a 5.4389409,5.4389409 0 0 1 -0.66538,0.154186 c -0.24939,0.04243 -0.50085,0.07244 -0.752308,0.0921 -0.275258,0.02173 -0.551551,0.03208 -0.827845,0.03518 q -0.443931,0 -0.887863,-0.01449 -0.466698,-0.0207 -0.931326,-0.05898 c -0.322859,-0.0269 -0.644684,-0.06002 -0.966509,-0.09727 -0.321824,-0.03725 -0.657102,-0.08175 -0.985135,-0.12935 -0.328034,-0.0476 -0.661241,-0.103481 -0.991344,-0.154187 -0.330103,-0.05071 -0.653998,-0.113828 -0.980997,-0.174882 -0.326998,-0.06105 -0.63951,-0.123142 -0.95823,-0.188335 -0.31872,-0.06519 -0.61571,-0.128315 -0.922012,-0.195578 q -0.435654,-0.09624 -0.871307,-0.197648 -0.403574,-0.0952 -0.807149,-0.193509 c -0.242144,-0.05898 -0.485324,-0.120037 -0.724364,-0.182125 -0.21317,-0.05381 -0.42427,-0.103481 -0.636406,-0.164535 l -0.52982,-0.142803 Q 87.349573,31.11908 87.039131,31.04147 a 0.96443929,0.96443929 0 0 1 -0.123142,-0.0269 c -0.05277,-0.02173 0,-0.04864 0.0269,-0.05898 a 0.85164542,0.85164542 0 0 1 0.156256,-0.03104 l 0.272154,-0.04553 c 0.189369,-0.03104 0.379774,-0.06105 0.569143,-0.08899 q 0.606396,-0.08796 1.215897,-0.15936 c 0.42634,-0.0476 0.853715,-0.08796 1.282125,-0.117968 0.42841,-0.03001 0.871307,-0.05071 1.307995,-0.05795 0.436688,-0.0072 0.859924,0 1.289368,0.02276 0.413923,0.02277 0.820602,0.06209 1.22728,0.125212 a 8.5112802,8.5112802 0 0 1 1.124835,0.245249 c 0.166603,0.04967 0.332172,0.10348 0.494637,0.169708 0.162464,0.06623 0.323894,0.149012 0.484289,0.219379 a 24.958488,24.958488 0 0 0 4.731132,1.579114 z"
       id="path399"
       style="stroke-width:0.103481" />
    <polygon
       class="cls-6"
       points="14.23,733.96 370.77,454.13 64.79,710.98 "
       id="polygon401"
       transform="matrix(0.10348061,0,0,0.10348061,1.5206852,17.782499)" />
    <polygon
       class="cls-6"
       points="273.64,597.62 424.79,524.09 -7.21,755.4 "
       id="polygon403"
       transform="matrix(0.10348061,0,0,0.10348061,1.5206852,17.782499)" />
  </g>
</svg>
