<?xml version="1.0" encoding="UTF-8" standalone="no"?>
<svg
   xmlns:dc="http://purl.org/dc/elements/1.1/"
   xmlns:cc="http://creativecommons.org/ns#"
   xmlns:rdf="http://www.w3.org/1999/02/22-rdf-syntax-ns#"
   xmlns:svg="http://www.w3.org/2000/svg"
   xmlns="http://www.w3.org/2000/svg"
   width="450"
   height="450"
   viewBox="0 0 119.0625 119.0625"
   version="1.1"
   id="svg16">
  <defs
     id="defs10">
    <style
       id="style1930">
      .cls-1 {
        fill: #3f0001;
      }

      .cls-2 {
        fill: #993d1f;
      }

      .cls-3 {
        fill: #f5ef99;
      }

      .cls-4 {
        fill: none;
        stroke: #f5ef99;
        stroke-miterlimit: 10;
      }
    </style>
    <style
       id="style4840">
      .cls-1 {
        fill: #55151e;
      }

      .cls-2, .cls-3 {
        fill: #470203;
      }

      .cls-3 {
        font-size: 44.59px;
        font-family: Armwarmer;
      }

      .cls-4 {
        letter-spacing: 0em;
      }

      .cls-5 {
        letter-spacing: -0.02em;
      }
    </style>
    <style
       id="style5074">
      .cls-1 {
        fill: #6a3256;
      }

      .cls-2 {
        fill: #963256;
      }

      .cls-3 {
        fill: #964c56;
      }
    </style>
    <style
       id="style5411">
      .cls-1 {
        fill: #e8aa26;
      }

      .cls-2 {
        fill: #baa6e7;
      }

      .cls-3 {
        fill: #ffea9e;
      }

      .cls-4 {
        fill: #c8ea9a;
      }

      .cls-5 {
        fill: #ff889a;
      }
    </style>
  </defs>
  <metadata
     id="metadata13">
    <rdf:RDF>
      <cc:Work
         rdf:about="">
        <dc:format>image/svg+xml</dc:format>
        <dc:type
           rdf:resource="http://purl.org/dc/dcmitype/StillImage" />
        <dc:title></dc:title>
      </cc:Work>
    </rdf:RDF>
  </metadata>
  <g
     id="layer1">
    <g
       id="g5445"
       transform="matrix(0.18920583,0,0,0.18920583,-37.341898,-13.123789)">
      <path
         class="cls-1"
         d="m 657.67,292.85 37.64,37.65 a 75.66,75.66 0 0 1 0,107 l -37.64,37.65"
         id="path5417" />
      <path
         class="cls-1"
         d="M 503.09,539.18 H 449.85 A 75.65,75.65 0 0 1 374.19,463.52 V 410.28"
         id="path5419" />
      <g
         id="g5425">
        <path
           class="cls-2"
           d="m 657.67,74.19 31.46,31.47 c 153.73,153.72 153.73,403 0,556.68 l -31.46,31.47"
           id="path5421" />
        <path
           class="cls-2"
           d="m 657.71,693.8 h -44.5 c -217.4,0 -393.64,-176.24 -393.64,-393.63 v -44.51"
           id="path5423" />
      </g>
      <g
         id="g5431">
        <path
           class="cls-3"
           d="m 657.67,111.12 46.93,46.93 c 124.79,124.79 124.79,327.11 0,451.9 l -46.93,46.93"
           id="path5427" />
        <path
           class="cls-3"
           d="M 631.6,667.69 H 565.22 C 388.74,667.69 245.68,524.63 245.68,348.15 V 281.77"
           id="path5429" />
      </g>
      <g
         id="g5437">
        <path
           class="cls-4"
           d="M 657.67,202 679,223.36 c 88.72,88.72 88.72,232.56 0,321.28 L 657.67,566"
           id="path5433" />
        <path
           class="cls-4"
           d="M 567.35,603.44 H 537.12 C 411.65,603.44 309.94,501.72 309.94,376.26 V 346"
           id="path5435" />
      </g>
      <g
         id="g5443">
        <path
           class="cls-5"
           d="m 657.67,303.18 v 0 a 114.31,114.31 0 0 1 0,161.64 v 0"
           id="path5439" />
        <path
           class="cls-5"
           d="m 495.79,531.88 v 0 a 114.3,114.3 0 0 1 -114.3,-114.3 v 0"
           id="path5441" />
      </g>
    </g>
  </g>
</svg>
