<?xml version="1.0" encoding="UTF-8" standalone="no"?>
<svg
   xmlns:osb="http://www.openswatchbook.org/uri/2009/osb"
   xmlns:dc="http://purl.org/dc/elements/1.1/"
   xmlns:cc="http://creativecommons.org/ns#"
   xmlns:rdf="http://www.w3.org/1999/02/22-rdf-syntax-ns#"
   xmlns:svg="http://www.w3.org/2000/svg"
   xmlns="http://www.w3.org/2000/svg"
   xmlns:sodipodi="http://sodipodi.sourceforge.net/DTD/sodipodi-0.dtd"
   xmlns:inkscape="http://www.inkscape.org/namespaces/inkscape"
   width="1940"
   height="5100"
   viewBox="0 0 513.29162 1349.375"
   version="1.1"
   id="svg16"
   inkscape:version="1.0.1 (1.0.1+r74)"
   sodipodi:docname="bg_green.svg"
   inkscape:export-filename="/home/hachiko/inkscape/bg_green.png"
   inkscape:export-xdpi="96"
   inkscape:export-ydpi="96">
  <defs
     id="defs10">
    <linearGradient
       id="linearGradient3802"
       osb:paint="solid">
      <stop
         style="stop-color:#000000;stop-opacity:1;"
         offset="0"
         id="stop3800" />
    </linearGradient>
  </defs>
  <sodipodi:namedview
     id="base"
     pagecolor="#dfd2d2"
     bordercolor="#666666"
     borderopacity="1.0"
     inkscape:pageopacity="0"
     inkscape:pageshadow="2"
     inkscape:zoom="0.175"
     inkscape:cx="264.81456"
     inkscape:cy="2058.2037"
     inkscape:document-units="px"
     inkscape:current-layer="layer2"
     inkscape:document-rotation="0"
     showgrid="false"
     inkscape:showpageshadow="false"
     inkscape:window-width="1920"
     inkscape:window-height="1018"
     inkscape:window-x="0"
     inkscape:window-y="32"
     inkscape:window-maximized="1"
     inkscape:pagecheckerboard="false"
     units="px"
     inkscape:object-paths="true"
     inkscape:snap-page="true"
     width="1920mm" />
  <metadata
     id="metadata13">
    <rdf:RDF>
      <cc:Work
         rdf:about="">
        <dc:format>image/svg+xml</dc:format>
        <dc:type
           rdf:resource="http://purl.org/dc/dcmitype/StillImage" />
        <dc:title></dc:title>
      </cc:Work>
    </rdf:RDF>
  </metadata>
  <g
     inkscape:groupmode="layer"
     id="layer2"
     inkscape:label="Layer 2"
     style="display:inline">
    <g
       id="g4247"
       transform="matrix(1.1186303,0,0,1.1876338,-30.132103,-70.935991)">
      <path
         style="fill:#297d29;fill-opacity:1;stroke:none;stroke-width:0;stroke-miterlimit:4;stroke-dasharray:none;stroke-opacity:0.99426"
         d="M 1e-5,0 70.20908,119.62944 1e-5,211.47765 Z"
         id="path3295" />
      <path
         style="fill:#237a23;fill-opacity:1;stroke:none;stroke-width:0;stroke-miterlimit:4;stroke-dasharray:none;stroke-opacity:0.99426"
         d="M 70.20908,119.62944 112.16443,0 H 1e-5 Z"
         id="path3297" />
      <path
         style="fill:#408b40;fill-opacity:1;stroke:none;stroke-width:0;stroke-miterlimit:4;stroke-dasharray:none;stroke-opacity:0.99426"
         d="M 112.16443,0 155.5372,128.13391 70.20908,119.62944 Z"
         id="path3299" />
      <path
         style="fill:#4e934e;fill-opacity:1;stroke:none;stroke-width:0;stroke-miterlimit:4;stroke-dasharray:none;stroke-opacity:0.99426"
         d="M 155.5372,128.13391 230.65996,0 H 112.16443 Z"
         id="path3301" />
      <path
         style="fill:#4d944d;fill-opacity:1;stroke:none;stroke-width:0;stroke-miterlimit:4;stroke-dasharray:none;stroke-opacity:0.99426"
         d="M 70.20908,119.62943 136.5439,264.77229 155.5372,128.13391 Z"
         id="path3303" />
      <path
         style="fill:#3b883b;fill-opacity:1;stroke:none;stroke-width:0;stroke-miterlimit:4;stroke-dasharray:none;stroke-opacity:0.99426"
         d="M 1e-5,211.47765 136.5439,264.77229 70.20908,119.62944 Z"
         id="path3305" />
      <path
         style="fill:#69a469;fill-opacity:1;stroke:none;stroke-width:0;stroke-miterlimit:4;stroke-dasharray:none;stroke-opacity:0.99426"
         d="M 136.5439,264.77229 264.9613,183.12944 155.5372,128.13391 Z"
         id="path3307" />
      <path
         style="fill:#609f60;fill-opacity:1;stroke:none;stroke-width:0;stroke-miterlimit:4;stroke-dasharray:none;stroke-opacity:0.99426"
         d="M 264.9613,183.12944 C 264.9613,183.12944 230.65996,0 230.65996,0 L 155.5372,128.13391 Z"
         id="path3309" />
      <path
         style="fill:#79ae79;fill-opacity:1;stroke:none;stroke-width:0;stroke-miterlimit:4;stroke-dasharray:none;stroke-opacity:0.99426"
         d="M 264.9613,183.12944 341.50147,72.76041 230.65996,0 c 0,0 34.30134,183.12944 34.30134,183.12944 z"
         id="path3311" />
      <path
         style="fill:#6ea76e;fill-opacity:1;stroke:none;stroke-width:0;stroke-miterlimit:4;stroke-dasharray:none;stroke-opacity:0.99426"
         d="M 264.9613,183.12944 304.93227,369.28271 136.5439,264.77229 Z"
         id="path3313" />
      <path
         style="fill:#4f944f;fill-opacity:1;stroke:none;stroke-width:0;stroke-miterlimit:4;stroke-dasharray:none;stroke-opacity:0.99426"
         d="M 1e-5,211.47765 V 397.9144 L 136.5439,264.77229 Z"
         id="path3315" />
      <path
         style="fill:#619f61;fill-opacity:1;stroke:none;stroke-width:0;stroke-miterlimit:4;stroke-dasharray:none;stroke-opacity:0.99426"
         d="M 136.5439,264.77229 164.32514,451.20902 1e-5,397.9144 Z"
         id="path3317" />
      <path
         style="fill:#77ac77;fill-opacity:1;stroke:none;stroke-width:0;stroke-miterlimit:4;stroke-dasharray:none;stroke-opacity:0.99426"
         d="M 304.93227,369.28271 164.32514,451.20903 136.5439,264.7723 Z"
         id="path3319" />
      <path
         style="fill:#89b789;fill-opacity:1;stroke:none;stroke-width:0;stroke-miterlimit:4;stroke-dasharray:none;stroke-opacity:0.99426"
         d="M 264.9613,183.12944 416.62424,265.71722 304.93227,369.2827 Z"
         id="path3321" />
      <path
         style="fill:#84b584;fill-opacity:1;stroke:none;stroke-width:0;stroke-miterlimit:4;stroke-dasharray:none;stroke-opacity:0.99426"
         d="M 341.50147,72.76041 416.62424,265.71723 264.9613,183.12945 Z"
         id="path3323" />
      <path
         style="fill:#89b789;fill-opacity:1;stroke:none;stroke-width:0;stroke-miterlimit:4;stroke-dasharray:none;stroke-opacity:0.99426"
         d="m 230.65996,0 h 185.3973 l -74.55579,72.76041 z"
         id="path3325" />
      <path
         style="fill:#a8caa8;fill-opacity:1;stroke:none;stroke-width:0;stroke-miterlimit:4;stroke-dasharray:none;stroke-opacity:0.99426"
         d="m 416.05726,0 49.0424,172.45161 -123.59819,-99.6912 z"
         id="path3327" />
      <path
         style="fill:#9cc39c;fill-opacity:1;stroke:none;stroke-width:0;stroke-miterlimit:4;stroke-dasharray:none;stroke-opacity:0.99426"
         d="M 465.09966,172.45161 416.62424,265.71722 341.50147,72.76041 Z"
         id="path3329" />
      <path
         style="fill:#b8d4b8;fill-opacity:1;stroke:none;stroke-width:0;stroke-miterlimit:4;stroke-dasharray:none;stroke-opacity:0.99426"
         d="m 416.05726,0 h 91.94271 l -42.90031,172.45161 z"
         id="path3331" />
      <path
         style="fill:#b3d1b3;fill-opacity:1;stroke:none;stroke-width:0;stroke-miterlimit:4;stroke-dasharray:none;stroke-opacity:0.99426"
         d="m 507.99997,0 c 0,0 0,271.67035 0,267.98507 0,-3.68525 -42.90031,-95.53346 -42.90031,-95.53346 z"
         id="path3333" />
      <path
         style="fill:#a5c8a5;fill-opacity:1;stroke:none;stroke-width:0;stroke-miterlimit:4;stroke-dasharray:none;stroke-opacity:0.99426"
         d="m 465.09966,172.45161 -39.6875,247.4799 82.58781,-157.0491 z"
         id="path3335" />
      <path
         style="fill:#9ec49e;fill-opacity:1;stroke:none;stroke-width:0;stroke-miterlimit:4;stroke-dasharray:none;stroke-opacity:0.99426"
         d="m 416.62424,265.71722 8.78792,154.21429 39.6875,-247.4799 z"
         id="path3337" />
      <path
         style="fill:#89b889;fill-opacity:1;stroke:none;stroke-width:0;stroke-miterlimit:4;stroke-dasharray:none;stroke-opacity:0.99426"
         d="m 304.93227,369.28271 120.47989,50.64881 -8.78792,-154.21429 z"
         id="path3339" />
      <path
         style="fill:#85b585;fill-opacity:1;stroke:none;stroke-width:0;stroke-miterlimit:4;stroke-dasharray:none;stroke-opacity:0.99426"
         d="m 304.93227,369.28271 4.8192,212.70608 115.66069,-162.05727 z"
         id="path3341" />
      <path
         style="fill:#80b280;fill-opacity:1;stroke:none;stroke-width:0;stroke-miterlimit:4;stroke-dasharray:none;stroke-opacity:0.99426"
         d="m 164.32514,451.20902 145.42633,130.77977 -4.8192,-212.70608 z"
         id="path3343" />
      <path
         style="fill:#8ebb8e;fill-opacity:1;stroke:none;stroke-width:0;stroke-miterlimit:4;stroke-dasharray:none;stroke-opacity:0.99426"
         d="m 425.41216,419.93151 82.58781,71.90996 V 262.88242 Z"
         id="path3345" />
      <path
         style="fill:#7db07d;fill-opacity:1;stroke:none;stroke-width:0;stroke-miterlimit:4;stroke-dasharray:none;stroke-opacity:0.99426"
         d="M 425.41216,419.93151 407.55279,623.66066 507.99997,491.84147 Z"
         id="path3347" />
      <path
         style="fill:#7eb07e;fill-opacity:1;stroke:none;stroke-width:0;stroke-miterlimit:4;stroke-dasharray:none;stroke-opacity:0.99426"
         d="m 309.75147,581.98879 97.80132,41.67187 17.85937,-203.72914 z"
         id="path3349" />
      <path
         style="fill:#7eb17e;fill-opacity:1;stroke:none;stroke-width:0;stroke-miterlimit:4;stroke-dasharray:none;stroke-opacity:0.99426"
         d="m 164.32514,451.20902 c 0,0 -9.92187,215.82439 -6.80357,213.27306 3.11831,-2.55134 152.2299,-82.49329 152.2299,-82.49329 z"
         id="path3351" />
      <path
         style="fill:#6da76d;fill-opacity:1;stroke:none;stroke-width:0;stroke-miterlimit:4;stroke-dasharray:none;stroke-opacity:0.99426"
         d="M 164.32514,451.20902 68.22471,528.97762 1e-5,397.91441 Z"
         id="path3353" />
      <path
         style="fill:#77ad77;fill-opacity:1;stroke:none;stroke-width:0;stroke-miterlimit:4;stroke-dasharray:none;stroke-opacity:0.99426"
         d="m 68.22471,528.97762 88.87458,133.74099 7.22585,-211.50958 z"
         id="path3355" />
      <path
         style="fill:#69a469;fill-opacity:1;stroke:none;stroke-width:0;stroke-miterlimit:4;stroke-dasharray:none;stroke-opacity:0.99426"
         d="M 68.22471,528.97762 1e-5,628.38535 V 397.9144 Z"
         id="path3357" />
      <path
         style="fill:#7db07d;fill-opacity:1;stroke:none;stroke-width:0;stroke-miterlimit:4;stroke-dasharray:none;stroke-opacity:0.99426"
         d="M 68.22471,528.97762 84.38319,786.1904 c 0,0 -84.38318,-157.80505 -84.38318,-157.80505 z"
         id="path3359" />
      <path
         style="fill:#7cb07c;fill-opacity:1;stroke:none;stroke-width:0;stroke-miterlimit:4;stroke-dasharray:none;stroke-opacity:0.99426"
         d="m 157.09929,662.71861 c 0,0 -72.7161,123.47179 -72.7161,123.47179 L 68.22471,528.97762 Z"
         id="path3361" />
      <path
         style="fill:#82b382;fill-opacity:1;stroke:none;stroke-width:0;stroke-miterlimit:4;stroke-dasharray:none;stroke-opacity:0.99426"
         d="m 157.09929,662.71861 178.44906,65.07448 -25.79688,-145.8043 z"
         id="path3363" />
      <path
         style="fill:#86b686;fill-opacity:1;stroke:none;stroke-width:0;stroke-miterlimit:4;stroke-dasharray:none;stroke-opacity:0.99426"
         d="M 84.38319,786.1904 335.54835,727.79308 157.09929,662.71861 Z"
         id="path3365" />
      <path
         style="fill:#7aae7a;fill-opacity:1;stroke:none;stroke-width:0;stroke-miterlimit:4;stroke-dasharray:none;stroke-opacity:0.99426"
         d="M 335.54835,727.79308 407.55279,623.66066 309.75147,581.98879 Z"
         id="path3367" />
      <path
         style="fill:#75ab75;fill-opacity:1;stroke:none;stroke-width:0;stroke-miterlimit:4;stroke-dasharray:none;stroke-opacity:0.99426"
         d="m 335.54835,727.79308 126.71651,-61.51562 -54.71207,-42.6168 z"
         id="path3369" />
      <path
         style="fill:#71a871;fill-opacity:1;stroke:none;stroke-width:0;stroke-miterlimit:4;stroke-dasharray:none;stroke-opacity:0.99426"
         d="m 507.99997,491.84147 v 0 l -100.44718,131.81919 54.71207,42.6168 z"
         id="path3371" />
      <path
         style="fill:#579957;fill-opacity:1;stroke:none;stroke-width:0;stroke-miterlimit:4;stroke-dasharray:none;stroke-opacity:0.99426"
         d="M 507.99997,491.84147 V 770.88235 L 462.26486,666.27746 Z"
         id="path3373" />
      <path
         style="fill:#569956;fill-opacity:1;stroke:none;stroke-width:0;stroke-miterlimit:4;stroke-dasharray:none;stroke-opacity:0.99426"
         d="m 462.26486,666.27746 23.529,181.42857 22.20611,-76.82367 z"
         id="path3375" />
      <path
         style="fill:#559855;fill-opacity:1;stroke:none;stroke-width:0;stroke-miterlimit:4;stroke-dasharray:none;stroke-opacity:0.99426"
         d="M 507.99997,770.88235 V 950.32654 L 485.79386,847.70602 Z"
         id="path3377" />
      <path
         style="fill:#4e944e;fill-opacity:1;stroke:none;stroke-width:0;stroke-miterlimit:4;stroke-dasharray:none;stroke-opacity:0.99426"
         d="M 485.79386,847.70602 365.59744,790.15915 462.26486,666.27746 Z"
         id="path3379" />
      <path
         style="fill:#71a971;fill-opacity:1;stroke:none;stroke-width:0;stroke-miterlimit:4;stroke-dasharray:none;stroke-opacity:0.99426"
         d="M 365.59744,790.15915 335.54835,727.79308 462.26486,666.27746 Z"
         id="path3381" />
      <path
         style="fill:#7db07d;fill-opacity:1;stroke:none;stroke-width:0;stroke-miterlimit:4;stroke-dasharray:none;stroke-opacity:0.99426"
         d="M 84.38319,786.1904 1e-5,778.28878 V 628.38535 Z"
         id="path3383" />
      <path
         style="fill:#94be94;fill-opacity:1;stroke:none;stroke-width:0;stroke-miterlimit:4;stroke-dasharray:none;stroke-opacity:0.99426"
         d="m 84.38319,786.1904 c 0,0 -12.75495,182.12701 -13.15586,173.70802 C 70.82643,951.47943 1e-5,778.28878 1e-5,778.28878 Z"
         id="path3385" />
      <path
         style="fill:#8cb98c;fill-opacity:1;stroke:none;stroke-width:0;stroke-miterlimit:4;stroke-dasharray:none;stroke-opacity:0.99426"
         d="M 71.98673,953.99054 238.80531,812.36566 84.38319,786.1904 Z"
         id="path3387" />
      <path
         style="fill:#80b280;fill-opacity:1;stroke:none;stroke-width:0;stroke-miterlimit:4;stroke-dasharray:none;stroke-opacity:0.99426"
         d="m 84.38319,786.1904 251.16516,-58.39732 -96.74304,84.57258 z"
         id="path3389" />
      <path
         style="fill:#79ad79;fill-opacity:1;stroke:none;stroke-width:0;stroke-miterlimit:4;stroke-dasharray:none;stroke-opacity:0.99426"
         d="M 238.80531,812.36566 365.59744,790.15915 335.54835,727.79308 Z"
         id="path3391" />
      <path
         style="fill:#73ab73;fill-opacity:1;stroke:none;stroke-width:0;stroke-miterlimit:4;stroke-dasharray:none;stroke-opacity:0.99426"
         d="M 238.80531,812.36566 399.16701,921.8125 365.59744,790.15915 Z"
         id="path3393" />
      <path
         style="fill:#64a164;fill-opacity:1;stroke:none;stroke-width:0;stroke-miterlimit:4;stroke-dasharray:none;stroke-opacity:0.99426"
         d="m 399.16701,921.8125 86.62685,-74.10648 c 0,0 -120.19642,-57.54687 -120.19642,-57.54687 z"
         id="path3395" />
      <path
         style="fill:#438d43;fill-opacity:1;stroke:none;stroke-width:0;stroke-miterlimit:4;stroke-dasharray:none;stroke-opacity:0.99426"
         d="m 399.16701,921.8125 c 0,0 108.83296,28.51404 108.83296,28.51404 L 485.79386,847.70603 Z"
         id="path3397" />
      <path
         style="fill:#86b686;fill-opacity:1;stroke:none;stroke-width:0;stroke-miterlimit:4;stroke-dasharray:none;stroke-opacity:0.99426"
         d="M 71.98673,953.99054 286.51291,1030.4576 250.83244,878.91575 Z"
         id="path3399" />
      <path
         style="fill:#87b687;fill-opacity:1;stroke:none;stroke-width:0;stroke-miterlimit:4;stroke-dasharray:none;stroke-opacity:0.99426"
         d="m 238.80531,812.36566 12.02713,66.55008 -178.84571,75.0748 z"
         id="path3401" />
      <path
         style="fill:#7eb17e;fill-opacity:1;stroke:none;stroke-width:0;stroke-miterlimit:4;stroke-dasharray:none;stroke-opacity:0.99426"
         d="M 250.83244,878.91574 399.16701,921.8125 238.80531,812.36566 Z"
         id="path3403" />
      <path
         style="fill:#76ac76;fill-opacity:1;stroke:none;stroke-width:0;stroke-miterlimit:4;stroke-dasharray:none;stroke-opacity:0.99426"
         d="M 399.16701,921.8125 286.51291,1030.4576 250.83244,878.91575 Z"
         id="path3405" />
      <path
         style="fill:#438d43;fill-opacity:1;stroke:none;stroke-width:0;stroke-miterlimit:4;stroke-dasharray:none;stroke-opacity:0.99426"
         d="m 399.16701,921.8125 29.26601,197.6458 79.56695,-169.13176 z"
         id="path3407" />
      <path
         style="fill:#569956;fill-opacity:1;stroke:none;stroke-width:0;stroke-miterlimit:4;stroke-dasharray:none;stroke-opacity:0.99426"
         d="m 286.51291,1030.4576 c 0,0 141.92011,89.0007 141.92011,89.0007 L 399.16701,921.8125 Z"
         id="path3409" />
      <path
         style="fill:#9cc39c;fill-opacity:1;stroke:none;stroke-width:0;stroke-miterlimit:4;stroke-dasharray:none;stroke-opacity:0.99426"
         d="m 71.98673,953.99054 103.07481,174.68856 111.45137,-98.2215 z"
         id="path3411" />
      <path
         style="fill:#a4c8a4;fill-opacity:1;stroke:none;stroke-width:0;stroke-miterlimit:4;stroke-dasharray:none;stroke-opacity:0.99426"
         d="M 71.98673,953.99054 1e-5,1007.2051 V 778.28878 Z"
         id="path3413" />
      <path
         style="fill:#aeceae;fill-opacity:1;stroke:none;stroke-width:0;stroke-miterlimit:4;stroke-dasharray:none;stroke-opacity:0.99426"
         d="M 1e-5,1007.2051 175.06154,1128.6791 71.98673,953.99054 Z"
         id="path3415" />
      <path
         style="fill:#bad6ba;fill-opacity:1;stroke:none;stroke-width:0;stroke-miterlimit:4;stroke-dasharray:none;stroke-opacity:0.99426"
         d="m 175.06154,1128.6791 c 0,0 -175.06153,67.2375 -175.06153,67.2375 v -188.7115 z"
         id="path3417" />
      <path
         style="fill:#abccab;fill-opacity:1;stroke:none;stroke-width:0;stroke-miterlimit:4;stroke-dasharray:none;stroke-opacity:0.99426"
         d="m 175.06154,1128.6791 125.08212,67.2375 H 1e-5 Z"
         id="path3419" />
      <path
         style="fill:#87b687;fill-opacity:1;stroke:none;stroke-width:0;stroke-miterlimit:4;stroke-dasharray:none;stroke-opacity:0.99426"
         d="m 286.51291,1030.4576 13.63075,165.459 -125.08212,-67.2375 z"
         id="path3421" />
      <path
         style="fill:#68a468;fill-opacity:1;stroke:none;stroke-width:0;stroke-miterlimit:4;stroke-dasharray:none;stroke-opacity:0.99426"
         d="m 300.14366,1195.9166 c 0,0 128.28936,-76.4583 128.28936,-76.4583 l -141.92011,-89.0007 z"
         id="path3423" />
      <path
         style="fill:#378637;fill-opacity:1;stroke:none;stroke-width:0;stroke-miterlimit:4;stroke-dasharray:none;stroke-opacity:0.99426"
         d="m 428.43302,1119.4583 79.56695,76.4583 H 300.14366 Z"
         id="path3425" />
      <path
         style="fill:#237a23;fill-opacity:1;stroke:none;stroke-width:0;stroke-miterlimit:4;stroke-dasharray:none;stroke-opacity:0.99426"
         d="m 507.99997,950.32654 v 245.59006 l -79.56695,-76.4583 z"
         id="path3427" />
    </g>
    <g
       id="g4537"
       transform="matrix(1.1186303,0,0,1.1876338,-30.132103,-70.935991)">
      <path
         style="fill:#297d29;fill-opacity:1;stroke:none;stroke-width:0;stroke-miterlimit:4;stroke-dasharray:none;stroke-opacity:0.99426"
         d="M 1e-5,0 70.20908,119.62944 1e-5,211.47765 Z"
         id="path4403" />
      <path
         style="fill:#237a23;fill-opacity:1;stroke:none;stroke-width:0;stroke-miterlimit:4;stroke-dasharray:none;stroke-opacity:0.99426"
         d="M 70.20908,119.62944 112.16443,0 H 1e-5 Z"
         id="path4405" />
      <path
         style="fill:#408b40;fill-opacity:1;stroke:none;stroke-width:0;stroke-miterlimit:4;stroke-dasharray:none;stroke-opacity:0.99426"
         d="M 112.16443,0 155.5372,128.13391 70.20908,119.62944 Z"
         id="path4407" />
      <path
         style="fill:#4e934e;fill-opacity:1;stroke:none;stroke-width:0;stroke-miterlimit:4;stroke-dasharray:none;stroke-opacity:0.99426"
         d="M 155.5372,128.13391 230.65996,0 H 112.16443 Z"
         id="path4409" />
      <path
         style="fill:#4d944d;fill-opacity:1;stroke:none;stroke-width:0;stroke-miterlimit:4;stroke-dasharray:none;stroke-opacity:0.99426"
         d="M 70.20908,119.62943 136.5439,264.77229 155.5372,128.13391 Z"
         id="path4411" />
      <path
         style="fill:#3b883b;fill-opacity:1;stroke:none;stroke-width:0;stroke-miterlimit:4;stroke-dasharray:none;stroke-opacity:0.99426"
         d="M 1e-5,211.47765 136.5439,264.77229 70.20908,119.62944 Z"
         id="path4413" />
      <path
         style="fill:#69a469;fill-opacity:1;stroke:none;stroke-width:0;stroke-miterlimit:4;stroke-dasharray:none;stroke-opacity:0.99426"
         d="M 136.5439,264.77229 264.9613,183.12944 155.5372,128.13391 Z"
         id="path4415" />
      <path
         style="fill:#609f60;fill-opacity:1;stroke:none;stroke-width:0;stroke-miterlimit:4;stroke-dasharray:none;stroke-opacity:0.99426"
         d="M 264.9613,183.12944 C 264.9613,183.12944 230.65996,0 230.65996,0 L 155.5372,128.13391 Z"
         id="path4417" />
      <path
         style="fill:#79ae79;fill-opacity:1;stroke:none;stroke-width:0;stroke-miterlimit:4;stroke-dasharray:none;stroke-opacity:0.99426"
         d="M 264.9613,183.12944 341.50147,72.76041 230.65996,0 c 0,0 34.30134,183.12944 34.30134,183.12944 z"
         id="path4419" />
      <path
         style="fill:#6ea76e;fill-opacity:1;stroke:none;stroke-width:0;stroke-miterlimit:4;stroke-dasharray:none;stroke-opacity:0.99426"
         d="M 264.9613,183.12944 304.93227,369.28271 136.5439,264.77229 Z"
         id="path4421" />
      <path
         style="fill:#4f944f;fill-opacity:1;stroke:none;stroke-width:0;stroke-miterlimit:4;stroke-dasharray:none;stroke-opacity:0.99426"
         d="M 1e-5,211.47765 V 397.9144 L 136.5439,264.77229 Z"
         id="path4423" />
      <path
         style="fill:#619f61;fill-opacity:1;stroke:none;stroke-width:0;stroke-miterlimit:4;stroke-dasharray:none;stroke-opacity:0.99426"
         d="M 136.5439,264.77229 164.32514,451.20902 1e-5,397.9144 Z"
         id="path4425" />
      <path
         style="fill:#77ac77;fill-opacity:1;stroke:none;stroke-width:0;stroke-miterlimit:4;stroke-dasharray:none;stroke-opacity:0.99426"
         d="M 304.93227,369.28271 164.32514,451.20903 136.5439,264.7723 Z"
         id="path4427" />
      <path
         style="fill:#89b789;fill-opacity:1;stroke:none;stroke-width:0;stroke-miterlimit:4;stroke-dasharray:none;stroke-opacity:0.99426"
         d="M 264.9613,183.12944 416.62424,265.71722 304.93227,369.2827 Z"
         id="path4429" />
      <path
         style="fill:#84b584;fill-opacity:1;stroke:none;stroke-width:0;stroke-miterlimit:4;stroke-dasharray:none;stroke-opacity:0.99426"
         d="M 341.50147,72.76041 416.62424,265.71723 264.9613,183.12945 Z"
         id="path4431" />
      <path
         style="fill:#89b789;fill-opacity:1;stroke:none;stroke-width:0;stroke-miterlimit:4;stroke-dasharray:none;stroke-opacity:0.99426"
         d="m 230.65996,0 h 185.3973 l -74.55579,72.76041 z"
         id="path4433" />
      <path
         style="fill:#a8caa8;fill-opacity:1;stroke:none;stroke-width:0;stroke-miterlimit:4;stroke-dasharray:none;stroke-opacity:0.99426"
         d="m 416.05726,0 49.0424,172.45161 -123.59819,-99.6912 z"
         id="path4435" />
      <path
         style="fill:#9cc39c;fill-opacity:1;stroke:none;stroke-width:0;stroke-miterlimit:4;stroke-dasharray:none;stroke-opacity:0.99426"
         d="M 465.09966,172.45161 416.62424,265.71722 341.50147,72.76041 Z"
         id="path4437" />
      <path
         style="fill:#b8d4b8;fill-opacity:1;stroke:none;stroke-width:0;stroke-miterlimit:4;stroke-dasharray:none;stroke-opacity:0.99426"
         d="m 416.05726,0 h 91.94271 l -42.90031,172.45161 z"
         id="path4439" />
      <path
         style="fill:#b3d1b3;fill-opacity:1;stroke:none;stroke-width:0;stroke-miterlimit:4;stroke-dasharray:none;stroke-opacity:0.99426"
         d="m 507.99997,0 c 0,0 0,271.67035 0,267.98507 0,-3.68525 -42.90031,-95.53346 -42.90031,-95.53346 z"
         id="path4441" />
      <path
         style="fill:#a5c8a5;fill-opacity:1;stroke:none;stroke-width:0;stroke-miterlimit:4;stroke-dasharray:none;stroke-opacity:0.99426"
         d="m 465.09966,172.45161 -39.6875,247.4799 82.58781,-157.0491 z"
         id="path4443" />
      <path
         style="fill:#9ec49e;fill-opacity:1;stroke:none;stroke-width:0;stroke-miterlimit:4;stroke-dasharray:none;stroke-opacity:0.99426"
         d="m 416.62424,265.71722 8.78792,154.21429 39.6875,-247.4799 z"
         id="path4445" />
      <path
         style="fill:#89b889;fill-opacity:1;stroke:none;stroke-width:0;stroke-miterlimit:4;stroke-dasharray:none;stroke-opacity:0.99426"
         d="m 304.93227,369.28271 120.47989,50.64881 -8.78792,-154.21429 z"
         id="path4447" />
      <path
         style="fill:#85b585;fill-opacity:1;stroke:none;stroke-width:0;stroke-miterlimit:4;stroke-dasharray:none;stroke-opacity:0.99426"
         d="m 304.93227,369.28271 4.8192,212.70608 115.66069,-162.05727 z"
         id="path4449" />
      <path
         style="fill:#80b280;fill-opacity:1;stroke:none;stroke-width:0;stroke-miterlimit:4;stroke-dasharray:none;stroke-opacity:0.99426"
         d="m 164.32514,451.20902 145.42633,130.77977 -4.8192,-212.70608 z"
         id="path4451" />
      <path
         style="fill:#8ebb8e;fill-opacity:1;stroke:none;stroke-width:0;stroke-miterlimit:4;stroke-dasharray:none;stroke-opacity:0.99426"
         d="m 425.41216,419.93151 82.58781,71.90996 V 262.88242 Z"
         id="path4453" />
      <path
         style="fill:#7db07d;fill-opacity:1;stroke:none;stroke-width:0;stroke-miterlimit:4;stroke-dasharray:none;stroke-opacity:0.99426"
         d="M 425.41216,419.93151 407.55279,623.66066 507.99997,491.84147 Z"
         id="path4455" />
      <path
         style="fill:#7eb07e;fill-opacity:1;stroke:none;stroke-width:0;stroke-miterlimit:4;stroke-dasharray:none;stroke-opacity:0.99426"
         d="m 309.75147,581.98879 97.80132,41.67187 17.85937,-203.72914 z"
         id="path4457" />
      <path
         style="fill:#7eb17e;fill-opacity:1;stroke:none;stroke-width:0;stroke-miterlimit:4;stroke-dasharray:none;stroke-opacity:0.99426"
         d="m 164.32514,451.20902 c 0,0 -9.92187,215.82439 -6.80357,213.27306 3.11831,-2.55134 152.2299,-82.49329 152.2299,-82.49329 z"
         id="path4459" />
      <path
         style="fill:#6da76d;fill-opacity:1;stroke:none;stroke-width:0;stroke-miterlimit:4;stroke-dasharray:none;stroke-opacity:0.99426"
         d="M 164.32514,451.20902 68.22471,528.97762 1e-5,397.91441 Z"
         id="path4461" />
      <path
         style="fill:#77ad77;fill-opacity:1;stroke:none;stroke-width:0;stroke-miterlimit:4;stroke-dasharray:none;stroke-opacity:0.99426"
         d="m 68.22471,528.97762 88.87458,133.74099 7.22585,-211.50958 z"
         id="path4463" />
      <path
         style="fill:#69a469;fill-opacity:1;stroke:none;stroke-width:0;stroke-miterlimit:4;stroke-dasharray:none;stroke-opacity:0.99426"
         d="M 68.22471,528.97762 1e-5,628.38535 V 397.9144 Z"
         id="path4465" />
      <path
         style="fill:#7db07d;fill-opacity:1;stroke:none;stroke-width:0;stroke-miterlimit:4;stroke-dasharray:none;stroke-opacity:0.99426"
         d="M 68.22471,528.97762 84.38319,786.1904 c 0,0 -84.38318,-157.80505 -84.38318,-157.80505 z"
         id="path4467" />
      <path
         style="fill:#7cb07c;fill-opacity:1;stroke:none;stroke-width:0;stroke-miterlimit:4;stroke-dasharray:none;stroke-opacity:0.99426"
         d="m 157.09929,662.71861 c 0,0 -72.7161,123.47179 -72.7161,123.47179 L 68.22471,528.97762 Z"
         id="path4469" />
      <path
         style="fill:#82b382;fill-opacity:1;stroke:none;stroke-width:0;stroke-miterlimit:4;stroke-dasharray:none;stroke-opacity:0.99426"
         d="m 157.09929,662.71861 178.44906,65.07448 -25.79688,-145.8043 z"
         id="path4471" />
      <path
         style="fill:#86b686;fill-opacity:1;stroke:none;stroke-width:0;stroke-miterlimit:4;stroke-dasharray:none;stroke-opacity:0.99426"
         d="M 84.38319,786.1904 335.54835,727.79308 157.09929,662.71861 Z"
         id="path4473" />
      <path
         style="fill:#7aae7a;fill-opacity:1;stroke:none;stroke-width:0;stroke-miterlimit:4;stroke-dasharray:none;stroke-opacity:0.99426"
         d="M 335.54835,727.79308 407.55279,623.66066 309.75147,581.98879 Z"
         id="path4475" />
      <path
         style="fill:#75ab75;fill-opacity:1;stroke:none;stroke-width:0;stroke-miterlimit:4;stroke-dasharray:none;stroke-opacity:0.99426"
         d="m 335.54835,727.79308 126.71651,-61.51562 -54.71207,-42.6168 z"
         id="path4477" />
      <path
         style="fill:#71a871;fill-opacity:1;stroke:none;stroke-width:0;stroke-miterlimit:4;stroke-dasharray:none;stroke-opacity:0.99426"
         d="m 507.99997,491.84147 v 0 l -100.44718,131.81919 54.71207,42.6168 z"
         id="path4479" />
      <path
         style="fill:#579957;fill-opacity:1;stroke:none;stroke-width:0;stroke-miterlimit:4;stroke-dasharray:none;stroke-opacity:0.99426"
         d="M 507.99997,491.84147 V 770.88235 L 462.26486,666.27746 Z"
         id="path4481" />
      <path
         style="fill:#569956;fill-opacity:1;stroke:none;stroke-width:0;stroke-miterlimit:4;stroke-dasharray:none;stroke-opacity:0.99426"
         d="m 462.26486,666.27746 23.529,181.42857 22.20611,-76.82367 z"
         id="path4483" />
      <path
         style="fill:#559855;fill-opacity:1;stroke:none;stroke-width:0;stroke-miterlimit:4;stroke-dasharray:none;stroke-opacity:0.99426"
         d="M 507.99997,770.88235 V 950.32654 L 485.79386,847.70602 Z"
         id="path4485" />
      <path
         style="fill:#4e944e;fill-opacity:1;stroke:none;stroke-width:0;stroke-miterlimit:4;stroke-dasharray:none;stroke-opacity:0.99426"
         d="M 485.79386,847.70602 365.59744,790.15915 462.26486,666.27746 Z"
         id="path4487" />
      <path
         style="fill:#71a971;fill-opacity:1;stroke:none;stroke-width:0;stroke-miterlimit:4;stroke-dasharray:none;stroke-opacity:0.99426"
         d="M 365.59744,790.15915 335.54835,727.79308 462.26486,666.27746 Z"
         id="path4489" />
      <path
         style="fill:#7db07d;fill-opacity:1;stroke:none;stroke-width:0;stroke-miterlimit:4;stroke-dasharray:none;stroke-opacity:0.99426"
         d="M 84.38319,786.1904 1e-5,778.28878 V 628.38535 Z"
         id="path4491" />
      <path
         style="fill:#94be94;fill-opacity:1;stroke:none;stroke-width:0;stroke-miterlimit:4;stroke-dasharray:none;stroke-opacity:0.99426"
         d="m 84.38319,786.1904 c 0,0 -12.75495,182.12701 -13.15586,173.70802 C 70.82643,951.47943 1e-5,778.28878 1e-5,778.28878 Z"
         id="path4493" />
      <path
         style="fill:#8cb98c;fill-opacity:1;stroke:none;stroke-width:0;stroke-miterlimit:4;stroke-dasharray:none;stroke-opacity:0.99426"
         d="M 71.98673,953.99054 238.80531,812.36566 84.38319,786.1904 Z"
         id="path4495" />
      <path
         style="fill:#80b280;fill-opacity:1;stroke:none;stroke-width:0;stroke-miterlimit:4;stroke-dasharray:none;stroke-opacity:0.99426"
         d="m 84.38319,786.1904 251.16516,-58.39732 -96.74304,84.57258 z"
         id="path4497" />
      <path
         style="fill:#79ad79;fill-opacity:1;stroke:none;stroke-width:0;stroke-miterlimit:4;stroke-dasharray:none;stroke-opacity:0.99426"
         d="M 238.80531,812.36566 365.59744,790.15915 335.54835,727.79308 Z"
         id="path4499" />
      <path
         style="fill:#73ab73;fill-opacity:1;stroke:none;stroke-width:0;stroke-miterlimit:4;stroke-dasharray:none;stroke-opacity:0.99426"
         d="M 238.80531,812.36566 399.16701,921.8125 365.59744,790.15915 Z"
         id="path4501" />
      <path
         style="fill:#64a164;fill-opacity:1;stroke:none;stroke-width:0;stroke-miterlimit:4;stroke-dasharray:none;stroke-opacity:0.99426"
         d="m 399.16701,921.8125 86.62685,-74.10648 c 0,0 -120.19642,-57.54687 -120.19642,-57.54687 z"
         id="path4503" />
      <path
         style="fill:#438d43;fill-opacity:1;stroke:none;stroke-width:0;stroke-miterlimit:4;stroke-dasharray:none;stroke-opacity:0.99426"
         d="m 399.16701,921.8125 c 0,0 108.83296,28.51404 108.83296,28.51404 L 485.79386,847.70603 Z"
         id="path4505" />
      <path
         style="fill:#86b686;fill-opacity:1;stroke:none;stroke-width:0;stroke-miterlimit:4;stroke-dasharray:none;stroke-opacity:0.99426"
         d="M 71.98673,953.99054 286.51291,1030.4576 250.83244,878.91575 Z"
         id="path4507" />
      <path
         style="fill:#87b687;fill-opacity:1;stroke:none;stroke-width:0;stroke-miterlimit:4;stroke-dasharray:none;stroke-opacity:0.99426"
         d="m 238.80531,812.36566 12.02713,66.55008 -178.84571,75.0748 z"
         id="path4509" />
      <path
         style="fill:#7eb17e;fill-opacity:1;stroke:none;stroke-width:0;stroke-miterlimit:4;stroke-dasharray:none;stroke-opacity:0.99426"
         d="M 250.83244,878.91574 399.16701,921.8125 238.80531,812.36566 Z"
         id="path4511" />
      <path
         style="fill:#76ac76;fill-opacity:1;stroke:none;stroke-width:0;stroke-miterlimit:4;stroke-dasharray:none;stroke-opacity:0.99426"
         d="M 399.16701,921.8125 286.51291,1030.4576 250.83244,878.91575 Z"
         id="path4513" />
      <path
         style="fill:#438d43;fill-opacity:1;stroke:none;stroke-width:0;stroke-miterlimit:4;stroke-dasharray:none;stroke-opacity:0.99426"
         d="m 399.16701,921.8125 29.26601,197.6458 79.56695,-169.13176 z"
         id="path4515" />
      <path
         style="fill:#569956;fill-opacity:1;stroke:none;stroke-width:0;stroke-miterlimit:4;stroke-dasharray:none;stroke-opacity:0.99426"
         d="m 286.51291,1030.4576 c 0,0 141.92011,89.0007 141.92011,89.0007 L 399.16701,921.8125 Z"
         id="path4517" />
      <path
         style="fill:#9cc39c;fill-opacity:1;stroke:none;stroke-width:0;stroke-miterlimit:4;stroke-dasharray:none;stroke-opacity:0.99426"
         d="m 71.98673,953.99054 103.07481,174.68856 111.45137,-98.2215 z"
         id="path4519" />
      <path
         style="fill:#a4c8a4;fill-opacity:1;stroke:none;stroke-width:0;stroke-miterlimit:4;stroke-dasharray:none;stroke-opacity:0.99426"
         d="M 71.98673,953.99054 1e-5,1007.2051 V 778.28878 Z"
         id="path4521" />
      <path
         style="fill:#aeceae;fill-opacity:1;stroke:none;stroke-width:0;stroke-miterlimit:4;stroke-dasharray:none;stroke-opacity:0.99426"
         d="M 1e-5,1007.2051 175.06154,1128.6791 71.98673,953.99054 Z"
         id="path4523" />
      <path
         style="fill:#bad6ba;fill-opacity:1;stroke:none;stroke-width:0;stroke-miterlimit:4;stroke-dasharray:none;stroke-opacity:0.99426"
         d="m 175.06154,1128.6791 c 0,0 -175.06153,67.2375 -175.06153,67.2375 v -188.7115 z"
         id="path4525" />
      <path
         style="fill:#abccab;fill-opacity:1;stroke:none;stroke-width:0;stroke-miterlimit:4;stroke-dasharray:none;stroke-opacity:0.99426"
         d="m 175.06154,1128.6791 125.08212,67.2375 H 1e-5 Z"
         id="path4527" />
      <path
         style="fill:#87b687;fill-opacity:1;stroke:none;stroke-width:0;stroke-miterlimit:4;stroke-dasharray:none;stroke-opacity:0.99426"
         d="m 286.51291,1030.4576 13.63075,165.459 -125.08212,-67.2375 z"
         id="path4529" />
      <path
         style="fill:#68a468;fill-opacity:1;stroke:none;stroke-width:0;stroke-miterlimit:4;stroke-dasharray:none;stroke-opacity:0.99426"
         d="m 300.14366,1195.9166 c 0,0 128.28936,-76.4583 128.28936,-76.4583 l -141.92011,-89.0007 z"
         id="path4531" />
      <path
         style="fill:#378637;fill-opacity:1;stroke:none;stroke-width:0;stroke-miterlimit:4;stroke-dasharray:none;stroke-opacity:0.99426"
         d="m 428.43302,1119.4583 79.56695,76.4583 H 300.14366 Z"
         id="path4533" />
      <path
         style="fill:#237a23;fill-opacity:1;stroke:none;stroke-width:0;stroke-miterlimit:4;stroke-dasharray:none;stroke-opacity:0.99426"
         d="m 507.99997,950.32654 v 245.59006 l -79.56695,-76.4583 z"
         id="path4535" />
    </g>
  </g>
</svg>
