<?xml version="1.0" encoding="UTF-8" standalone="no"?>
<svg
   xmlns:dc="http://purl.org/dc/elements/1.1/"
   xmlns:cc="http://creativecommons.org/ns#"
   xmlns:rdf="http://www.w3.org/1999/02/22-rdf-syntax-ns#"
   xmlns:svg="http://www.w3.org/2000/svg"
   xmlns="http://www.w3.org/2000/svg"
   xmlns:sodipodi="http://sodipodi.sourceforge.net/DTD/sodipodi-0.dtd"
   xmlns:inkscape="http://www.inkscape.org/namespaces/inkscape"
   width="32mm"
   height="32mm"
   viewBox="0 0 32 32"
   version="1.1"
   id="svg16"
   inkscape:version="1.0.1 (1.0.1+r74)"
   sodipodi:docname="firstcanvas.svg"
   inkscape:export-filename="/home/hachiko/inkscape/firstcanvas.png"
   inkscape:export-xdpi="96"
   inkscape:export-ydpi="96">
  <defs
     id="defs10" />
  <sodipodi:namedview
     id="base"
     pagecolor="#ffffff"
     bordercolor="#666666"
     borderopacity="1.0"
     inkscape:pageopacity="0.95294118"
     inkscape:pageshadow="2"
     inkscape:zoom="3.4561198"
     inkscape:cx="-4.7100337"
     inkscape:cy="55.131952"
     inkscape:document-units="px"
     inkscape:current-layer="layer1"
     inkscape:document-rotation="0"
     showgrid="false"
     inkscape:showpageshadow="false"
     inkscape:window-width="1920"
     inkscape:window-height="1018"
     inkscape:window-x="0"
     inkscape:window-y="32"
     inkscape:window-maximized="1"
     inkscape:pagecheckerboard="true"
     inkscape:snap-others="false"
     inkscape:snap-grids="false"
     inkscape:snap-to-guides="false"
     inkscape:object-nodes="false"
     showguides="false" />
  <metadata
     id="metadata13">
    <rdf:RDF>
      <cc:Work
         rdf:about="">
        <dc:format>image/svg+xml</dc:format>
        <dc:type
           rdf:resource="http://purl.org/dc/dcmitype/StillImage" />
        <dc:title></dc:title>
      </cc:Work>
    </rdf:RDF>
  </metadata>
  <g
     inkscape:label="Layer 1"
     inkscape:groupmode="layer"
     id="layer1">
    <rect
       style="opacity:1;fill:#fffafa;fill-opacity:1;stroke:#b86685;stroke-width:0;stroke-miterlimit:4;stroke-dasharray:none"
       id="rect834"
       width="43.119724"
       height="42.580727"
       x="-5.5598626"
       y="-5.2903643"
       inkscape:export-xdpi="96"
       inkscape:export-ydpi="96" />
    <g
       id="g875"
       style="opacity:1"
       inkscape:export-xdpi="96"
       inkscape:export-ydpi="96">
      <path
         id="rect41"
         style="fill:#800000;fill-opacity:0.72549;stroke:#b86685;stroke-width:0;stroke-miterlimit:4;stroke-dasharray:none"
         d="m -0.135965,-0.115812 v 32.231623 h 32.27193 V -0.115812 Z M 7.40776,4.556254 h 9.443868 c 1.333262,0 2.641977,0.493445 3.925859,1.481047 1.456713,1.111051 2.184879,2.518352 2.184879,4.221964 0,1.333262 -0.666615,2.518874 -1.999877,3.555856 -0.864152,0.666631 -1.752973,1.18511 -2.666504,1.55546 1.308572,0.296281 2.493666,0.777725 3.555338,1.444356 1.827063,1.135742 2.740918,2.678662 2.740918,4.629175 0,1.752993 -0.70365,3.147775 -2.110982,4.184757 -1.629543,1.209812 -3.938181,1.814877 -6.925675,1.814877 H 7.40776 V 26.4066 c 1.629543,0 2.444296,-0.641582 2.444296,-1.925464 V 7.518864 c 0,-1.283882 -0.814753,-1.925981 -2.444296,-1.925981 z m 7.44399,1.036629 c -1.456712,0 -2.184879,0.642099 -2.184879,1.925981 v 7.44399 h 1.999878 c 1.703613,0 3.036844,-0.456411 3.999756,-1.369942 0.987601,-0.938222 1.481563,-2.049765 1.481563,-3.333647 0,-1.456712 -0.469445,-2.604773 -1.407666,-3.444234 C 17.826871,6.00026 16.530673,5.592883 14.85175,5.592883 Z M 12.666871,16 v 8.481136 c 0,1.283882 0.962889,1.925464 2.888713,1.925464 1.999893,0 3.579847,-0.493445 4.740279,-1.481047 0.987602,-0.839461 1.481563,-2.000038 1.481563,-3.481441 0,-1.555473 -0.740684,-2.888704 -2.222087,-3.999756 C 18.296147,16.481444 16.666642,16 14.666749,16 Z" />
      <path
         d="M 9.421369,24.194125 V 7.232067 q 0,-1.925823 -2.444314,-1.925823 V 4.269262 h 9.443941 q 1.999893,0 3.925716,1.481402 2.185069,1.666578 2.185069,4.221998 0,1.999893 -1.999894,3.555366 -1.296227,0.999947 -2.666524,1.555472 1.962858,0.444421 3.555366,1.444368 2.740594,1.703612 2.740594,4.629382 0,2.629489 -2.110998,4.184962 -2.444314,1.814718 -6.925556,1.814718 H 6.977055 v -1.036982 q 2.444314,0 2.444314,-1.925823 z m 2.814665,-8.481029 v 8.481029 q 0,1.925823 2.888735,1.925823 2.99984,0 4.740487,-1.481402 1.481403,-1.259192 1.481403,-3.481296 0,-2.333209 -2.222104,-3.999786 -1.888788,-1.444368 -4.888628,-1.444368 z m 0,-8.481029 v 7.444048 h 1.999893 q 2.555419,0 3.999787,-1.370297 1.481402,-1.407333 1.481402,-3.333156 0,-2.185069 -1.407332,-3.444261 -1.370297,-1.222157 -3.888681,-1.222157 -2.185069,0 -2.185069,1.925823 z"
         style="font-style:normal;font-variant:normal;font-weight:normal;font-stretch:normal;font-size:37.9239px;line-height:1.25;font-family:'AR PL UKai CN';-inkscape-font-specification:'AR PL UKai CN, Normal';font-variant-ligatures:normal;font-variant-caps:normal;font-variant-numeric:normal;font-variant-east-asian:normal;fill:#800000;fill-opacity:0.699873;stroke:none;stroke-width:22.369;stroke-miterlimit:4;stroke-dasharray:none"
         id="path870" />
    </g>
  </g>
</svg>
