<svg id="Layer_1" data-name="Layer 1" xmlns="http://www.w3.org/2000/svg" xmlns:xlink="http://www.w3.org/1999/xlink" viewBox="0 0 600 200"><defs><style>.cls-1{fill:none;}.cls-2{clip-path:url(#clip-path);}.cls-3{fill:#633f98;}.cls-4{fill:#8b7eba;}.cls-5{fill:#aa68aa;}.cls-6{fill:#9b59a3;}.cls-7{fill:#cd519c;}.cls-8{clip-path:url(#clip-path-2);}</style><clipPath id="clip-path"><rect class="cls-1" width="600" height="201"/></clipPath><clipPath id="clip-path-2"><rect class="cls-1" x="-7" y="-2.35" width="614" height="205.69"/></clipPath></defs><g class="cls-2"><path class="cls-3" d="M120.06,250.45c-5.44-11.44-.26-12.11-5.37-27.43-7.82-23.45-28-46-52.78-55.76-18.2-7.2-25.64-2.3-35.78-11.93-11.62-11-6.25-21.61-16.4-34.29-7.54-9.42-21.17-16.89-35.84-18A237.27,237.27,0,0,0,177.14,319.15a61.84,61.84,0,0,0-7.88-24.27C155.92,272.47,131.74,275,120.06,250.45Z"/><path class="cls-4" d="M187.45,217.65c-22-27.14-36.94-20.57-51-43.24-15.9-25.64-4-45.52-20.88-57.25-11-7.6-17.49-.31-37.87-9.24-12.21-5.36-12.79-9.25-31.6-21.47-16-10.37-23.95-15.55-34.89-18.79-4.61-1.36-20-5.88-37.31-2.6a239.34,239.34,0,0,0,0,38c14.67,1.13,28.3,8.6,35.84,18,10.15,12.68,4.78,23.26,16.4,34.29,10.14,9.63,17.58,4.73,35.78,11.93,24.79,9.8,45,32.31,52.78,55.76,5.11,15.32-.07,16,5.37,27.43,11.68,24.59,35.86,22,49.2,44.43a61.84,61.84,0,0,1,7.88,24.27,239,239,0,0,0,74.73-1.3c-5.33-10-21.25-22.11-39.38-52.49C196.18,238,201.12,234.49,187.45,217.65Z"/><path class="cls-5" d="M357.71,218.84c-12.7-24.76-45.36-34.55-68.43-32.65-8.51.7-7.5,2.31-16.55,3.13-25.36,2.29-55.66-8.34-70.23-30-11-16.28-1.89-22.3-12.07-39.8C179.15,100.16,165.37,103,129.6,80.18c-37.16-23.66-39.32-37.52-64-41.59-17.56-2.9-17.48,4-43.39,2.23C.8,39.39-11.13,33.92-21,32a238.63,238.63,0,0,0-5.05,33c17.31-3.28,32.7,1.24,37.31,2.6,10.94,3.24,18.92,8.42,34.89,18.79,18.81,12.22,19.39,16.11,31.6,21.47,20.38,8.93,26.91,1.64,37.87,9.24,16.93,11.73,5,31.61,20.88,57.25,14,22.67,29,16.1,51,43.24,13.67,16.84,8.73,20.36,25,47.71,18.13,30.38,34,42.51,39.38,52.49a236.12,236.12,0,0,0,104.22-46.33C362.46,256.43,366.91,236.79,357.71,218.84Z"/><path class="cls-6" d="M242.76,147.72c-5.23-12.72-20.36-16.37-21-31.75-.57-13.14,10.19-16.73,13.42-30.42,5.39-22.83-15.47-51.34-37.58-65.3C173.07,4.77,164.48,18.2,128.7,2.36,98.33-11.09,95.09-24.94,72.79-25.82,58-26.41,58-20.37,27.17-14.19,9-10.54-.06-10.84-7.4-9.92A237.14,237.14,0,0,0-21,32c9.91,1.9,21.84,7.37,43.29,8.8,25.91,1.73,25.83-5.13,43.39-2.23,24.64,4.07,26.8,17.93,64,41.59,35.77,22.78,49.55,20,60.83,39.37,10.18,17.5,1.11,23.52,12.07,39.8,7.28,10.81,18.48,18.86,31,23.94C244.47,166.64,246.24,156.2,242.76,147.72Z"/><path class="cls-1" d="M154.65,43.51c22.21,3.93,24.06-6.1,46.07-2.24,7.8,1.37,15.26,4,29.64,15-7-14.32-19.65-27.74-32.78-36C173.07,4.77,164.48,18.2,128.7,2.36,98.33-11.09,95.09-24.94,72.79-25.82c-8-.32-11.66,1.3-18.16,3.8C62.07-17.7,70.44-12.23,80.4-5.69,123.06,22.34,127.41,38.69,154.65,43.51Z"/><path class="cls-7" d="M397.07,158c-21.91-12.12-33.39-.51-59.93-8.94-16.71-5.31-19-12.09-62.18-53.23-20.29-19.35-34.24-31.63-44.6-39.56,4.8,9.79,7,20,4.8,29.27-3.23,13.69-14,17.28-13.42,30.42.66,15.38,15.79,19,21,31.75,3.48,8.48,1.71,18.92-9.24,35.57a86,86,0,0,0,39.21,6c9-.82,8-2.43,16.55-3.13,23.07-1.9,55.73,7.89,68.43,32.65,9.2,17.95,4.75,37.59-1.62,52.68A239.6,239.6,0,0,0,378.21,252a236.85,236.85,0,0,0,46.39-65.53A69.48,69.48,0,0,0,397.07,158Z"/><path class="cls-3" d="M371.85,109.45c-11.92-4.24-8.74-8.38-23.19-15.6-22.11-11-52.29-12.71-76.75-2.11-18,7.78-19.75,16.5-33.73,16.87-16,.42-19.7-10.86-35.85-12.65-12-1.33-26.91,3-38.08,12.6a236.3,236.3,0,0,0,153.94,56.73A236.27,236.27,0,0,0,460.8,117.67a61.72,61.72,0,0,0-22.74-11.59C412.79,99.66,397.5,118.58,371.85,109.45Z"/><path class="cls-4" d="M396.31,38.61c-34.76-3.61-40.66,11.57-66.63,5.48-29.36-6.89-35-29.4-55.24-25.72-13.12,2.38-12.59,12.15-33.31,20.24-12.42,4.85-15.59,2.5-37.53,7.17-18.62,3.95-27.93,5.93-38,11.38-4.22,2.3-18.29,10-28.22,24.54a238.78,238.78,0,0,0,26.83,26.86C175.42,99,190.34,94.63,202.33,96c16.15,1.79,19.83,13.07,35.85,12.65,14-.37,15.77-9.09,33.73-16.87,24.46-10.6,54.64-8.94,76.75,2.11,14.45,7.22,11.27,11.36,23.19,15.6,25.65,9.13,40.94-9.79,66.21-3.37a61.72,61.72,0,0,1,22.74,11.59A238.67,238.67,0,0,0,512.71,63.9c-10.81-3.28-30.65-.6-65-9.27C416.89,46.83,417.89,40.85,396.31,38.61Z"/><path class="cls-5" d="M517.55-80.94c-26.48-8.53-56.5,7.64-71.48,25.3-5.51,6.51-3.66,6.93-9.48,13.91-16.32,19.56-45.26,33.47-70.85,28.47-19.27-3.77-17.1-14.43-36.69-19.61-21.68-5.73-29.44,6-70.84,15.18-43,9.54-54.34,1.26-74.64,15.81C169.1,8.49,174,13.29,154.47,30.38,138.29,44.54,126,49.1,117.63,54.77A239,239,0,0,0,137.42,81.7c9.93-14.56,24-22.24,28.22-24.54,10-5.45,19.34-7.43,38-11.38,21.94-4.67,25.11-2.32,37.53-7.17,20.72-8.09,20.19-17.86,33.31-20.24,20.27-3.68,25.88,18.83,55.24,25.72,26,6.09,31.87-9.09,66.63-5.48,21.58,2.24,20.58,8.22,51.45,16,34.3,8.67,54.14,6,65,9.27A235.87,235.87,0,0,0,553.65-42.55C547.49-57.72,536.75-74.76,517.55-80.94Z"/><path class="cls-6" d="M386-49.95c-12.7-5.3-26,2.82-37.32-7.59-9.69-8.89-4.62-19-12-31-12.33-19.95-47.23-25.36-72.74-19.6-28.28,6.38-24.86,22-61.36,36.05-31,12-43.07,4.47-59.46,19.61-10.87,10-6.61,14.33-24,40.48C108.75,3.46,102.16,9.62,97.62,15.46a237.74,237.74,0,0,0,20,39.31c8.35-5.67,20.66-10.23,36.84-24.39C174,13.29,169.1,8.49,183.57-1.88c20.3-14.55,31.63-6.27,74.64-15.81,41.4-9.19,49.16-20.91,70.84-15.18,19.59,5.18,17.42,15.84,36.69,19.61,12.78,2.49,26.4.27,38.86-5C400.56-37.79,394.44-46.42,386-49.95Z"/><path class="cls-6" d="M119-12a150.71,150.71,0,0,0,13.89-25c-17.46,4.63-28.35,9.92-36,20.53A42.29,42.29,0,0,0,90.78-4.31q3,10.08,6.84,19.77C102.16,9.62,108.75,3.46,119-12Z"/><path class="cls-3" d="M621.11,176.54c-11.43,5.44-12.11.26-27.43,5.37-23.45,7.82-46,28-55.76,52.78-7.2,18.2-2.3,25.64-11.93,35.78-11,11.62-21.61,6.25-34.29,16.4-9.42,7.54-16.89,21.17-18,35.84A237.27,237.27,0,0,0,689.81,119.46a61.84,61.84,0,0,0-24.27,7.88C643.13,140.67,645.7,164.86,621.11,176.54Z"/><path class="cls-4" d="M588.31,109.15c-27.14,22-20.56,36.94-43.24,51-25.64,15.9-45.52,4-57.25,20.88-7.59,11-.31,17.49-9.24,37.87-5.35,12.2-9.25,12.78-21.47,31.6-10.37,16-15.55,23.95-18.79,34.89-1.36,4.61-5.88,20-2.6,37.31a239.34,239.34,0,0,0,38,0c1.13-14.67,8.6-28.3,18-35.84,12.68-10.15,23.26-4.78,34.29-16.4,9.63-10.14,4.73-17.58,11.93-35.78,9.8-24.79,32.31-45,55.76-52.78,15.32-5.11,16,.07,27.43-5.37,24.59-11.68,22-35.87,44.43-49.2a61.84,61.84,0,0,1,24.27-7.88,239,239,0,0,0-1.3-74.73C678.54,50.06,666.4,66,636,84.11,608.68,100.42,605.15,95.48,588.31,109.15Z"/><path class="cls-5" d="M589.5-61.11C564.74-48.41,555-15.75,556.85,7.32c.7,8.51,2.31,7.5,3.13,16.55,2.29,25.36-8.34,55.66-30,70.22-16.29,11-22.3,1.89-39.81,12.08-19.39,11.28-16.58,25.06-39.36,60.83-23.67,37.16-37.53,39.32-41.6,64-2.9,17.56,4,17.48,2.24,43.39-1.44,21.45-6.91,33.38-8.81,43.29a240.38,240.38,0,0,0,33,5.05c-3.28-17.32,1.24-32.7,2.6-37.31,3.24-10.94,8.42-18.93,18.79-34.89,12.22-18.82,16.12-19.4,21.47-31.6,8.93-20.38,1.65-26.91,9.24-37.87,11.73-16.93,31.61-5,57.25-20.88,22.68-14,16.1-29,43.24-51,16.84-13.67,20.37-8.73,47.71-25,30.38-18.13,42.52-34,52.49-39.38A236.12,236.12,0,0,0,642.18-59.49C627.09-65.86,607.45-70.32,589.5-61.11Z"/><path class="cls-6" d="M518.39,53.84c-12.73,5.23-16.38,20.36-31.76,21-13.13.57-16.73-10.19-30.42-13.42-22.83-5.39-51.34,15.47-65.3,37.57-15.48,24.52-2.05,33.11-17.89,68.89-13.45,30.37-27.3,33.61-28.18,55.91-.58,14.79,5.46,14.8,11.63,45.62,3.65,18.21,3.35,27.23,4.27,34.57a238,238,0,0,0,41.94,13.64c1.9-9.91,7.37-21.84,8.81-43.29,1.73-25.91-5.14-25.83-2.24-43.39,4.07-24.64,17.93-26.8,41.6-64,22.78-35.77,20-49.55,39.36-60.83C507.72,96,513.73,105.06,530,94.09c10.8-7.27,18.86-18.47,23.93-31C537.3,52.13,526.86,50.36,518.39,53.84Z"/><path class="cls-1" d="M414.17,142c3.93-22.21-6.1-24.06-2.24-46.07,1.37-7.8,4-15.26,15-29.64-14.31,7-27.74,19.65-36,32.77-15.48,24.52-2.05,33.11-17.89,68.89-13.45,30.37-27.3,33.61-28.18,55.91-.31,7.95,1.3,11.66,3.81,18.16,4.32-7.44,9.78-15.81,16.32-25.77C393,173.54,409.35,169.19,414.17,142Z"/><path class="cls-7" d="M528.67-100.47c-12.12,21.91-.51,33.39-8.94,59.93-5.31,16.71-12.09,19-53.23,62.18-19.34,20.29-31.63,34.24-39.56,44.6,9.79-4.8,20-7,29.27-4.8,13.69,3.23,17.29,14,30.42,13.42,15.38-.66,19-15.79,31.76-21,8.47-3.48,18.91-1.71,35.56,9.23a85.88,85.88,0,0,0,6-39.2c-.82-9-2.43-8-3.13-16.55-1.9-23.07,7.89-55.73,32.65-68.43,18-9.21,37.59-4.75,52.68,1.62a239.6,239.6,0,0,0-19.53-22.12A236.85,236.85,0,0,0,557.12-128,69.47,69.47,0,0,0,528.67-100.47Z"/><path class="cls-3" d="M93.93,83.34c8.62,3.07,6.32,6.06,16.76,11.28,16,8,37.77,9.18,55.44,1.52,13-5.62,14.27-11.92,24.38-12.19,11.57-.3,14.23,7.85,25.89,9.14,8.67,1,19.45-2.19,27.52-9.1A171.42,171.42,0,0,0,29.67,77.41,44.59,44.59,0,0,0,46.1,85.78C64.36,90.42,75.4,76.75,93.93,83.34Z"/><path class="cls-4" d="M76.26,134.53c25.12,2.61,29.37-8.37,48.14-4,21.21,5,25.27,21.24,39.91,18.58,9.48-1.72,9.09-8.78,24.07-14.62,9-3.51,11.25-1.81,27.11-5.18,13.45-2.86,20.17-4.29,27.42-8.23,3.05-1.65,13.22-7.21,20.39-17.73A173.18,173.18,0,0,0,243.92,84c-8.07,6.91-18.85,10.06-27.52,9.1-11.66-1.29-14.32-9.44-25.89-9.14-10.11.27-11.4,6.57-24.38,12.19-17.67,7.66-39.47,6.46-55.44-1.52-10.44-5.22-8.14-8.21-16.76-11.28C75.4,76.75,64.36,90.42,46.1,85.78a44.59,44.59,0,0,1-16.43-8.37A172.42,172.42,0,0,0-7.84,116.25c7.81,2.38,22.15.44,46.93,6.7C61.39,128.59,60.67,132.91,76.26,134.53Z"/><path class="cls-5" d="M-11.33,220.9c19.13,6.16,40.82-5.52,51.64-18.28,4-4.7,2.65-5,6.85-10.05C59,178.44,79.86,168.39,98.35,172c13.92,2.72,12.35,10.43,26.5,14.17,15.67,4.14,21.27-4.33,51.19-11,31.07-6.9,39.25-.91,53.92-11.42,10.45-7.49,6.91-11,21-23.31,11.7-10.23,20.59-13.53,26.62-17.62a174.13,174.13,0,0,0-14.3-19.46c-7.17,10.52-17.34,16.08-20.39,17.73-7.25,3.94-14,5.37-27.42,8.23-15.86,3.37-18.14,1.67-27.11,5.18-15,5.84-14.59,12.9-24.07,14.62-14.64,2.66-18.7-13.6-39.91-18.58-18.77-4.41-23,6.57-48.14,4-15.59-1.62-14.87-5.94-37.17-11.58-24.78-6.26-39.12-4.32-46.93-6.7a170.35,170.35,0,0,0-29.57,76.91C-33,204.12-25.2,216.43-11.33,220.9Z"/><path class="cls-6" d="M83.72,198.51c9.18,3.83,18.77-2,27,5.48,7,6.42,3.34,13.75,8.68,22.39,8.91,14.42,34.13,18.33,52.55,14.17,20.44-4.61,18-15.86,44.33-26.05,22.39-8.65,31.12-3.22,43-14.16,7.86-7.26,4.78-10.36,17.37-29.25,7.44-11.17,12.2-15.62,15.48-19.84a171.94,171.94,0,0,0-14.46-28.4c-6,4.09-14.92,7.39-26.62,17.62-14.11,12.35-10.57,15.82-21,23.31-14.67,10.51-22.85,4.52-53.92,11.42-29.92,6.64-35.52,15.11-51.19,11-14.15-3.74-12.58-11.45-26.5-14.17-9.24-1.8-19.08-.2-28.08,3.62C73.19,189.72,77.61,196,83.72,198.51Z"/><path class="cls-1" d="M182,206.73c-13.36,9.34-9.18,15.41-22.4,24.68-4.68,3.29-9.84,5.76-22.81,7.48a67.79,67.79,0,0,0,35.15,1.66c20.44-4.61,18-15.86,44.33-26.05,22.39-8.65,31.12-3.22,43-14.16,4.23-3.91,5.3-6.63,7.34-11.23-6,1.6-13.08,3.08-21.51,4.83C208.92,201.41,198.36,195.28,182,206.73Z"/><path class="cls-6" d="M276.58,171.09a109.61,109.61,0,0,0-10,18c12.61-3.34,20.48-7.16,26-14.82a30.78,30.78,0,0,0,4.43-8.76q-2.17-7.28-4.94-14.28C288.78,155.47,284,159.92,276.58,171.09Z"/><path class="cls-7" d="M-.37,272.08c17.39-5,17.32-16.79,35.19-26,11.25-5.83,15.9-3.55,59-4.57,20.25-.49,33.65-1.34,43-2.58-7.45-2.55-13.78-6.65-17.4-12.51-5.34-8.64-1.69-16-8.68-22.39-8.2-7.52-17.79-1.65-27-5.48-6.11-2.55-10.53-8.79-13.45-22.89a62.24,62.24,0,0,0-23.11,16.95c-4.2,5-2.87,5.35-6.85,10.05C29.49,215.38,7.8,227.06-11.33,220.9-25.2,216.43-33,204.12-37.41,193.16A171.74,171.74,0,0,0-29,271.62,50.23,50.23,0,0,0-.37,272.08Z"/></g><g class="cls-8"><path class="cls-3" d="M115.86,254c-5.56-11.7-.27-12.4-5.5-28.07-8-24-28.63-47-54-57.07-18.62-7.36-26.23-2.35-36.61-12.2C7.85,145.32,13.34,134.49,3,121.52c-7.71-9.64-21.66-17.28-36.67-18.44a242.81,242.81,0,0,0,208,221.17,63,63,0,0,0-8.06-24.83C152.56,276.48,127.81,279.11,115.86,254Z"/><path class="cls-4" d="M184.82,220.38c-22.54-27.77-37.8-21-52.18-44.24-16.26-26.24-4-46.59-21.36-58.59-11.22-7.77-17.9-.32-38.75-9.46-12.5-5.48-13.09-9.47-32.35-22C23.85,75.51,15.68,70.21,4.48,66.89-.24,65.5-16,60.88-33.7,64.23a244.61,244.61,0,0,0,0,38.85c15,1.16,29,8.8,36.67,18.44,10.39,13,4.9,23.8,16.79,35.09,10.38,9.85,18,4.84,36.61,12.2,25.38,10,46,33.07,54,57.07,5.23,15.67-.06,16.37,5.5,28.07,12,25.16,36.7,22.53,50.35,45.47a63,63,0,0,1,8.06,24.83,244.3,244.3,0,0,0,76.47-1.33c-5.44-10.21-21.74-22.62-40.29-53.71C193.76,241.22,198.81,237.62,184.82,220.38Z"/><path class="cls-5" d="M359.06,221.6c-13-25.33-46.42-35.35-70-33.41-8.71.72-7.67,2.37-16.94,3.2-25.95,2.35-57-8.53-71.86-30.66C189,144.06,198.3,137.91,187.87,120c-11.54-19.83-25.64-17-62.25-40.28-38-24.22-40.23-38.4-65.45-42.57-18-3-17.89,4.06-44.4,2.29-21.95-1.46-34.16-7.07-44.3-9A245.46,245.46,0,0,0-33.7,64.23C-16,60.88-.24,65.5,4.48,66.89c11.2,3.32,19.37,8.62,35.7,19.23,19.26,12.5,19.85,16.49,32.35,22,20.85,9.14,27.53,1.69,38.75,9.46,17.32,12,5.1,32.35,21.36,58.59,14.38,23.2,29.64,16.47,52.18,44.24,14,17.24,8.94,20.84,25.63,48.83,18.55,31.09,34.85,43.5,40.29,53.71A241.58,241.58,0,0,0,357.4,275.51C363.92,260.07,368.48,240,359.06,221.6Z"/><path class="cls-6" d="M241.42,148.83c-5.35-13-20.83-16.76-21.51-32.5-.58-13.44,10.43-17.12,13.73-31.13,5.52-23.37-15.82-52.53-38.45-66.82C170.11,2.53,161.32,16.28,124.71.07,93.62-13.69,90.31-27.87,67.49-28.77c-15.14-.6-15.15,5.58-46.69,11.9C2.17-13.13-7.06-13.44-14.57-12.5a243,243,0,0,0-14,42.92c10.14,1.94,22.35,7.55,44.3,9,26.51,1.77,26.43-5.25,44.4-2.29,25.22,4.17,27.42,18.35,65.45,42.57C162.23,103,176.33,100.16,187.87,120c10.43,17.92,1.14,24.07,12.36,40.74,7.44,11.05,18.9,19.3,31.74,24.49C243.18,168.18,245,157.5,241.42,148.83Z"/><path class="cls-1" d="M151.25,42.18c22.73,4,24.63-6.24,47.15-2.29,8,1.4,15.62,4.09,30.34,15.36-7.18-14.65-20.11-28.39-33.55-36.87C170.11,2.53,161.32,16.28,124.71.07,93.62-13.69,90.31-27.87,67.49-28.77c-8.14-.32-11.94,1.33-18.59,3.9,7.62,4.42,16.19,10,26.37,16.7C118.93,20.52,123.38,37.25,151.25,42.18Z"/><path class="cls-7" d="M399.34,159.35c-22.43-12.4-34.17-.52-61.34-9.15-17.09-5.43-19.46-12.37-63.62-54.47-20.77-19.8-35-32.36-45.64-40.48,4.9,10,7.14,20.46,4.9,30-3.3,14-14.31,17.69-13.73,31.13.68,15.74,16.16,19.47,21.51,32.5,3.57,8.67,1.76,19.35-9.45,36.39a87.88,87.88,0,0,0,40.12,6.17c9.27-.83,8.23-2.48,16.94-3.2,23.61-1.94,57,8.08,70,33.41,9.42,18.37,4.86,38.47-1.66,53.91a245.12,245.12,0,0,0,22.64-20,242.44,242.44,0,0,0,47.47-67.06A71.23,71.23,0,0,0,399.34,159.35Z"/><path class="cls-3" d="M373.53,109.66c-12.2-4.34-8.95-8.58-23.73-16-22.63-11.3-53.51-13-78.54-2.15-18.38,8-20.22,16.89-34.53,17.26-16.38.43-20.16-11.11-36.68-13-12.27-1.36-27.54,3.1-39,12.9A241.87,241.87,0,0,0,318.62,166.8a241.78,241.78,0,0,0,145.93-48.73,63.12,63.12,0,0,0-23.27-11.86C415.42,99.64,399.77,119,373.53,109.66Z"/><path class="cls-4" d="M398.56,37.16C363,33.47,357,49,330.38,42.77c-30.06-7.05-35.8-30.08-56.53-26.32-13.43,2.44-12.89,12.43-34.1,20.71-12.7,5-15.94,2.56-38.4,7.34-19,4-28.58,6.07-38.84,11.65-4.32,2.35-18.72,10.21-28.88,25.11a244.87,244.87,0,0,0,27.45,27.49c11.43-9.8,26.7-14.26,39-12.9,16.52,1.84,20.3,13.38,36.68,13,14.31-.37,16.15-9.3,34.53-17.26,25-10.85,55.91-9.15,78.54,2.15,14.78,7.39,11.53,11.63,23.73,16,26.24,9.34,41.89-10,67.75-3.45a63.12,63.12,0,0,1,23.27,11.86,244.24,244.24,0,0,0,53.13-55c-11.07-3.36-31.37-.62-66.47-9.49C419.62,45.58,420.64,39.46,398.56,37.16Z"/><path class="cls-5" d="M522.63-85.18c-27.11-8.73-57.83,7.82-73.15,25.89-5.65,6.66-3.75,7.1-9.71,14.24-16.69,20-46.31,34.25-72.5,29.13-19.71-3.85-17.5-14.77-37.54-20.06-22.19-5.87-30.13,6.13-72.5,15.53-44,9.77-55.6,1.3-76.38,16.19-14.8,10.6-9.78,15.51-29.78,33-16.56,14.48-29.15,19.15-37.69,25a243.73,243.73,0,0,0,20.25,27.56c10.16-14.9,24.56-22.76,28.88-25.11,10.26-5.58,19.79-7.6,38.84-11.65,22.46-4.78,25.7-2.38,38.4-7.34,21.21-8.28,20.67-18.27,34.1-20.71,20.73-3.76,26.47,19.27,56.53,26.32C357,49,363,33.47,398.56,37.16c22.08,2.3,21.06,8.42,52.65,16.4,35.1,8.87,55.4,6.13,66.47,9.49A241.54,241.54,0,0,0,559.57-45.89C553.27-61.42,542.28-78.85,522.63-85.18Z"/><path class="cls-6" d="M388-53.46c-13-5.42-26.58,2.88-38.19-7.77-9.92-9.09-4.74-19.47-12.3-31.72-12.63-20.42-48.34-26-74.44-20.06-28.95,6.53-25.44,22.46-62.79,36.89C168.56-63.87,156.19-71.55,139.42-56c-11.13,10.28-6.77,14.66-24.6,41.43C104.28,1.2,97.54,7.5,92.9,13.48A242.18,242.18,0,0,0,113.38,53.7c8.54-5.8,21.13-10.47,37.69-25,20-17.5,15-22.41,29.78-33,20.78-14.89,32.37-6.42,76.38-16.19,42.37-9.4,50.31-21.4,72.5-15.53,20,5.29,17.83,16.21,37.54,20.06,13.08,2.56,27,.28,39.77-5.12C402.91-41,396.64-49.85,388-53.46Z"/><path class="cls-6" d="M114.82-14.62A155.68,155.68,0,0,0,129-40.15c-17.86,4.74-29,10.14-36.86,21a44.07,44.07,0,0,0-6.28,12.4Q89,3.56,92.9,13.48C97.54,7.5,104.28,1.2,114.82-14.62Z"/><path class="cls-3" d="M628.6,178.32c-11.7,5.56-12.39.26-28.07,5.49-24,8-47,28.64-57.06,54-7.36,18.63-2.35,26.24-12.21,36.62-11.28,11.89-22.11,6.4-35.09,16.78-9.64,7.71-17.28,21.67-18.44,36.68a242.83,242.83,0,0,0,221.18-208A63.21,63.21,0,0,0,674.07,128C651.14,141.61,653.77,166.37,628.6,178.32Z"/><path class="cls-4" d="M595,109.36c-27.77,22.54-21,37.79-44.25,52.17-26.24,16.27-46.58,4-58.59,21.37-7.77,11.21-.31,17.9-9.46,38.75-5.47,12.49-9.46,13.09-22,32.34-10.6,16.34-15.9,24.5-19.22,35.71-1.4,4.71-6,20.46-2.66,38.17a244.49,244.49,0,0,0,38.84,0c1.16-15,8.8-29,18.44-36.68,13-10.38,23.81-4.89,35.09-16.78,9.86-10.38,4.85-18,12.21-36.62,10-25.37,33.06-46,57.06-54,15.68-5.23,16.37.07,28.07-5.49,25.17-11.95,22.54-36.71,45.47-50.35a63.21,63.21,0,0,1,24.84-8.07,244.3,244.3,0,0,0-1.34-76.47c-10.2,5.45-22.62,21.75-53.71,40.29C615.88,100.42,612.27,95.36,595,109.36Z"/><path class="cls-5" d="M596.26-64.88c-25.34,13-35.36,46.42-33.41,70,.71,8.7,2.36,7.67,3.2,16.93,2.34,26-8.53,57-30.67,71.87-16.66,11.21-22.82,1.93-40.73,12.35-19.84,11.54-17,25.65-40.28,62.25-24.22,38-38.41,40.24-42.57,65.46-3,18,4.06,17.89,2.29,44.4-1.47,21.95-7.07,34.16-9,44.29a242.23,242.23,0,0,0,33.81,5.17c-3.36-17.71,1.26-33.46,2.66-38.17,3.32-11.21,8.62-19.37,19.22-35.71,12.51-19.25,16.5-19.85,22-32.34,9.15-20.85,1.69-27.54,9.46-38.75,12-17.33,32.35-5.1,58.59-21.37C574,147.15,567.27,131.9,595,109.36c17.23-14,20.84-8.94,48.82-25.64C675,65.18,687.37,48.88,697.57,43.43A241.38,241.38,0,0,0,650.16-63.22C634.73-69.75,614.63-74.3,596.26-64.88Z"/><path class="cls-6" d="M523.48,52.75c-13,5.36-16.76,20.83-32.5,21.51-13.44.58-17.11-10.42-31.12-13.73C436.49,55,407.32,76.36,393,99c-15.84,25.09-2.1,33.87-18.31,70.49-13.76,31.08-27.93,34.4-28.83,57.21-.6,15.14,5.58,15.16,11.9,46.69,3.73,18.64,3.42,27.86,4.36,35.37a242.3,242.3,0,0,0,42.93,14c1.94-10.13,7.54-22.34,9-44.29,1.77-26.51-5.26-26.44-2.29-44.4,4.16-25.22,18.35-27.43,42.57-65.46,23.31-36.6,20.44-50.71,40.28-62.25,17.91-10.42,24.07-1.14,40.73-12.35,11.06-7.45,19.3-18.91,24.5-31.75C542.83,51,532.15,49.19,523.48,52.75Z"/><path class="cls-1" d="M416.83,142.92c4-22.73-6.23-24.63-2.29-47.14,1.41-8,4.09-15.63,15.36-30.34C415.25,72.61,401.52,85.55,393,99c-15.84,25.09-2.1,33.87-18.31,70.49-13.76,31.08-27.93,34.4-28.83,57.21-.32,8.15,1.32,11.94,3.89,18.59,4.42-7.61,10-16.18,16.7-26.37C395.18,175.24,411.9,170.8,416.83,142.92Z"/><path class="cls-7" d="M534-105.16c-12.41,22.42-.52,34.17-9.16,61.33-5.43,17.1-12.37,19.47-54.46,63.63-19.8,20.76-32.37,35-40.49,45.64,10-4.91,20.47-7.15,30-4.91,14,3.31,17.68,14.31,31.12,13.73,15.74-.68,19.48-16.15,32.5-21.51,8.67-3.56,19.35-1.75,36.4,9.45a88.15,88.15,0,0,0,6.17-40.12c-.84-9.26-2.49-8.23-3.2-16.93-2-23.61,8.07-57,33.41-70,18.37-9.42,38.47-4.87,53.9,1.66a245,245,0,0,0-20-22.64,242.38,242.38,0,0,0-67.06-47.47A71.1,71.1,0,0,0,534-105.16Z"/><path class="cls-3" d="M89.12,82.94c8.82,3.14,6.47,6.2,17.15,11.54,16.35,8.17,38.66,9.4,56.74,1.56,13.28-5.76,14.6-12.2,24.94-12.47,11.84-.31,14.57,8,26.5,9.35,8.87,1,19.9-2.24,28.16-9.32A175.43,175.43,0,0,0,23.36,76.87a45.82,45.82,0,0,0,16.81,8.57C58.86,90.18,70.16,76.19,89.12,82.94Z"/><path class="cls-4" d="M71,135.32c25.7,2.67,30.06-8.56,49.26-4,21.71,5.09,25.86,21.73,40.84,19,9.7-1.76,9.31-9,24.63-15,9.18-3.58,11.52-1.85,27.75-5.3,13.76-2.93,20.64-4.39,28.06-8.42,3.12-1.69,13.53-7.37,20.86-18.14A176.25,176.25,0,0,0,242.61,83.6c-8.26,7.08-19.29,10.3-28.16,9.32-11.93-1.32-14.66-9.66-26.5-9.35C177.61,83.84,176.29,90.28,163,96c-18.08,7.84-40.39,6.61-56.74-1.56-10.68-5.34-8.33-8.4-17.15-11.54-19-6.75-30.26,7.24-48.95,2.5a45.82,45.82,0,0,1-16.81-8.57A176.59,176.59,0,0,0-15,116.62c8,2.43,22.66.44,48,6.85C55.82,129.24,55.08,133.66,71,135.32Z"/><path class="cls-5" d="M-18.6,223.71C1,230,23.18,218.06,34.25,205c4.08-4.81,2.71-5.13,7-10.29,12.06-14.45,33.46-24.74,52.38-21,14.25,2.78,12.65,10.67,27.13,14.5,16,4.23,21.76-4.43,52.37-11.23,31.8-7.05,40.18-.93,55.19-11.69,10.69-7.66,7.06-11.21,21.51-23.85,12-10.47,21.06-13.84,27.23-18a175.36,175.36,0,0,0-14.63-19.91c-7.33,10.77-17.74,16.45-20.86,18.14-7.42,4-14.3,5.49-28.06,8.42-16.23,3.45-18.57,1.72-27.75,5.3-15.32,6-14.93,13.21-24.63,15-15,2.71-19.13-13.93-40.84-19-19.2-4.51-23.56,6.72-49.26,4-16-1.66-15.22-6.08-38-11.85-25.36-6.41-40-4.42-48-6.85a174.47,174.47,0,0,0-30.27,78.7C-40.73,206.54-32.79,219.14-18.6,223.71Z"/><path class="cls-6" d="M78.68,200.79c9.38,3.92,19.2-2.08,27.59,5.62,7.16,6.56,3.42,14.07,8.88,22.91,9.12,14.76,34.93,18.76,53.78,14.5,20.91-4.72,18.38-16.23,45.37-26.66,22.91-8.85,31.84-3.3,44-14.5,8-7.42,4.89-10.59,17.77-29.93,7.61-11.42,12.48-16,15.84-20.3a175.28,175.28,0,0,0-14.8-29.06c-6.17,4.19-15.27,7.56-27.23,18C235.39,154,239,157.59,228.33,165.25c-15,10.76-23.39,4.64-55.19,11.69-30.61,6.8-36.35,15.46-52.37,11.23-14.48-3.83-12.88-11.72-27.13-14.5-9.45-1.85-19.52-.2-28.73,3.7C67.9,191.8,72.43,198.19,78.68,200.79Z"/><path class="cls-1" d="M179.22,209.21c-13.66,9.56-9.39,15.77-22.91,25.26-4.8,3.36-10.07,5.89-23.34,7.65,11.14,3.82,24.77,4.23,36,1.7,20.91-4.72,18.38-16.23,45.37-26.66,22.91-8.85,31.84-3.3,44-14.5,4.32-4,5.42-6.77,7.5-11.48-6.14,1.63-13.38,3.15-22,4.94C206.8,203.76,196,197.49,179.22,209.21Z"/><path class="cls-6" d="M276,172.73a113.43,113.43,0,0,0-10.27,18.45c12.91-3.42,21-7.33,26.64-15.17a31.92,31.92,0,0,0,4.53-9q-2.22-7.45-5.06-14.62C288.51,156.75,283.64,161.31,276,172.73Z"/><path class="cls-7" d="M-7.37,276.09c17.79-5.12,17.72-17.19,36-26.66,11.51-6,16.26-3.62,60.32-4.68,20.73-.49,34.44-1.36,44-2.63-7.63-2.61-14.11-6.8-17.82-12.8-5.46-8.84-1.72-16.35-8.88-22.91-8.39-7.7-18.21-1.7-27.59-5.62-6.25-2.6-10.78-9-13.77-23.42a63.77,63.77,0,0,0-23.65,17.34c-4.3,5.16-2.93,5.48-7,10.29C23.18,218.06,1,230-18.6,223.71c-14.19-4.57-22.13-17.17-26.69-28.39a177.88,177.88,0,0,0-1.35,21.78,175.19,175.19,0,0,0,10,58.51A51.54,51.54,0,0,0-7.37,276.09Z"/></g></svg>